<svg width="161" height="26" viewBox="0 0 161 26" fill="none" xmlns="http://www.w3.org/2000/svg">
<path d="M8.397 9.368C7.39433 9.66667 6.96767 10.0293 5.53833 10.4347C2.67967 10.008 0.909 5.4 4.83433 3.65067C6.989 2.712 9.91167 1.64533 10.829 1.38933C12.749 0.792 15.757 1.47467 15.757 4.312C15.757 10.2853 15.5223 16.28 15.5863 22.232C12.2583 24.7493 8.31167 23.064 8.16233 19.9493C7.99167 16.792 8.37567 11.7787 8.41833 9.496C8.41833 9.47467 8.41833 9.432 8.397 9.368ZM34.481 13.4427C34.481 14.616 34.3103 16.472 33.713 18.2427C32.6463 21.336 30.5343 23.128 27.249 23.4907C25.7557 23.6613 24.241 23.5973 22.7903 23.192C20.273 22.5307 18.7157 20.888 17.969 18.4773C17.1583 15.96 17.073 13.3787 17.2437 10.7973C17.3503 9.048 17.6703 7.34133 18.417 5.72C19.569 3.224 21.5317 1.816 24.2623 1.45333C25.969 1.21867 27.6543 1.34667 29.2757 1.96533C31.4303 2.84 32.7743 4.504 33.585 6.63733C34.2677 8.6 34.481 10.648 34.481 13.4427ZM27.0783 12.8027C26.9717 11.7147 26.9077 10.6267 26.7797 9.624C26.6517 8.70667 26.2677 8.28 25.649 8.25867C25.0517 8.25867 24.625 8.62133 24.433 9.496C24.049 11.1387 24.113 12.7813 24.2197 14.424C24.2623 15.064 24.4117 15.7467 24.6463 16.344C24.945 17.112 25.8623 17.176 26.3743 16.536C26.5877 16.3013 26.7157 16.024 26.7583 15.7253C26.8863 14.744 26.9717 13.72 27.0783 12.8027ZM53.1997 13.4427C53.1997 14.616 53.0291 16.472 52.4317 18.2427C51.3651 21.336 49.2531 23.128 45.9677 23.4907C44.4744 23.6613 42.9597 23.5973 41.5091 23.192C38.9918 22.5307 37.4344 20.888 36.6877 18.4773C35.8771 15.96 35.7917 13.3787 35.9624 10.7973C36.0691 9.048 36.3891 7.34133 37.1357 5.72C38.2878 3.224 40.2504 1.816 42.9811 1.45333C44.6877 1.21867 46.3731 1.34667 47.9944 1.96533C50.1491 2.84 51.4931 4.504 52.3037 6.63733C52.9864 8.6 53.1997 10.648 53.1997 13.4427ZM45.7971 12.8027C45.6904 11.7147 45.6264 10.6267 45.4984 9.624C45.3704 8.70667 44.9864 8.28 44.3678 8.25867C43.7704 8.25867 43.3438 8.62133 43.1518 9.496C42.7677 11.1387 42.8317 12.7813 42.9384 14.424C42.9811 15.064 43.1304 15.7467 43.3651 16.344C43.6637 17.112 44.5811 17.176 45.0931 16.536C45.3064 16.3013 45.4344 16.024 45.4771 15.7253C45.6051 14.744 45.6904 13.72 45.7971 12.8027ZM71.9185 13.4427C71.9185 14.616 71.7478 16.472 71.1505 18.2427C70.0838 21.336 67.9718 23.128 64.6865 23.4907C63.1932 23.6613 61.6785 23.5973 60.2278 23.192C57.7105 22.5307 56.1532 20.888 55.4065 18.4773C54.5958 15.96 54.5105 13.3787 54.6812 10.7973C54.7878 9.048 55.1078 7.34133 55.8545 5.72C57.0065 3.224 58.9692 1.816 61.6998 1.45333C63.4065 1.21867 65.0918 1.34667 66.7132 1.96533C68.8678 2.84 70.2118 4.504 71.0225 6.63733C71.7052 8.6 71.9185 10.648 71.9185 13.4427ZM64.5158 12.8027C64.4092 11.7147 64.3452 10.6267 64.2172 9.624C64.0892 8.70667 63.7052 8.28 63.0865 8.25867C62.4892 8.25867 62.0625 8.62133 61.8705 9.496C61.4865 11.1387 61.5505 12.7813 61.6572 14.424C61.6998 15.064 61.8492 15.7467 62.0838 16.344C62.3825 17.112 63.2998 17.176 63.8118 16.536C64.0252 16.3013 64.1532 16.024 64.1958 15.7253C64.3238 14.744 64.4092 13.72 64.5158 12.8027ZM90.6372 13.4427C90.6372 14.616 90.4666 16.472 89.8692 18.2427C88.8026 21.336 86.6906 23.128 83.4052 23.4907C81.9119 23.6613 80.3972 23.5973 78.9466 23.192C76.4293 22.5307 74.8719 20.888 74.1252 18.4773C73.3146 15.96 73.2292 13.3787 73.3999 10.7973C73.5066 9.048 73.8266 7.34133 74.5732 5.72C75.7253 3.224 77.6879 1.816 80.4186 1.45333C82.1252 1.21867 83.8106 1.34667 85.4319 1.96533C87.5866 2.84 88.9306 4.504 89.7412 6.63733C90.4239 8.6 90.6372 10.648 90.6372 13.4427ZM83.2346 12.8027C83.1279 11.7147 83.0639 10.6267 82.9359 9.624C82.8079 8.70667 82.4239 8.28 81.8053 8.25867C81.2079 8.25867 80.7812 8.62133 80.5893 9.496C80.2052 11.1387 80.2692 12.7813 80.3759 14.424C80.4186 15.064 80.5679 15.7467 80.8026 16.344C81.1012 17.112 82.0186 17.176 82.5306 16.536C82.7439 16.3013 82.8719 16.024 82.9146 15.7253C83.0426 14.744 83.1279 13.72 83.2346 12.8027ZM118.549 15.5547C115.306 17.9867 111.487 17.0053 111.167 16.8133C111.146 16.792 111.146 16.792 111.125 16.8133C111.103 16.8133 111.061 16.8347 111.039 16.8347C111.018 16.8347 111.018 16.856 111.018 16.8773C111.018 17.2613 111.039 19.992 110.805 22.2747C109.013 24.216 104.149 23.7467 103.231 18.9253C102.869 17.0267 102.783 5.89067 103.466 3.30933C105.322 1.51733 114.303 0.194668 118.591 3.07467C121.983 5.35733 122.815 12.376 118.549 15.5547ZM114.303 9.51733C114.303 8.62133 112.917 7.66133 111.509 8.49333C111.509 9.38933 111.509 10.008 111.53 10.7333C111.53 10.84 111.679 10.9893 111.765 10.9893C112.298 10.9893 112.831 11.0107 113.365 10.9253C114.005 10.7973 114.303 10.3493 114.303 9.51733ZM131.375 8.17333C131.759 7.42667 134.106 2.584 134.938 1.496C138.309 0.664 142.576 3.16 140.634 6.95733C139.333 9.496 132.613 20.7813 130.927 22.7867C126.277 25.1333 122.778 21.272 125.082 17.5173C126.319 15.4693 126.149 15.96 126.64 15.0213C126.789 14.7227 126.576 14.3173 126.405 14.0187C124.506 10.6907 122.693 8.10933 121.029 4.376C122.586 0.92 127.194 0.6 128.431 2.69067C129.434 4.41867 130.01 5.784 130.906 7.55467C130.991 7.74667 131.098 7.96 131.184 8.17333C131.247 8.17333 131.311 8.17333 131.375 8.17333ZM156.667 9.944C160.635 12.9093 159.589 19.0533 156.709 21.5493C154.363 23.576 148.688 23.8747 146.021 22.168C143.888 20.8027 142.778 18.8187 142.48 15.8747C141.904 10.456 142.544 4.312 142.842 1.73067C146.234 1.41067 153.573 1.496 157.2 1.752C157.946 2.84 158.458 7.61867 153.573 7.61867C152.507 7.61867 152.037 7.61867 149.669 7.61867C149.669 8.04533 149.669 8.62133 149.669 8.728C149.669 8.74933 149.691 8.74933 149.712 8.77067C149.733 8.77067 149.754 8.792 149.776 8.792C149.797 8.792 149.797 8.792 149.818 8.792C150.117 8.6 153.68 7.704 156.667 9.944ZM150.139 16.5147C151.44 17.304 152.634 16.6853 152.741 15.576C152.869 14.1253 151.354 13.336 150.16 14.424C150.096 15.0213 150.01 15.7893 150.139 16.5147Z" fill="#9D182B"/>
</svg>
