<svg width="943" height="197" viewBox="0 0 943 197" fill="none" xmlns="http://www.w3.org/2000/svg">
<g filter="url(#filter0_d_1_4)">
<path d="M6.25169 186.536C5.00369 183.624 4.03302 179.949 3.33969 175.512C2.64635 171.075 2.23035 166.499 2.09169 161.784C1.95302 156.931 2.09169 152.285 2.50769 147.848C3.06235 143.411 3.82502 139.736 4.79569 136.824C6.87569 135.992 8.88635 134.605 10.8277 132.664C12.9077 130.584 14.641 127.325 16.0277 122.888C17.4144 118.312 18.1077 111.933 18.1077 103.752C18.1077 94.8773 17.2757 88.2213 15.6117 83.784C14.0864 79.208 12.2144 76.1573 9.99569 74.632C7.91569 72.968 6.04369 72.136 4.37969 72.136C3.13169 69.64 2.23035 66.2427 1.67569 61.944C1.12102 57.6453 0.843688 53.0693 0.843688 48.216C0.982354 43.224 1.39835 38.44 2.09169 33.864C2.78502 29.1493 3.82502 25.128 5.21169 21.8C15.473 22.216 24.6944 22.2853 32.8757 22.008C41.1957 21.7307 49.4464 21.3147 57.6277 20.76C65.9477 20.2053 74.961 19.72 84.6677 19.304C94.513 18.7493 106.092 18.472 119.404 18.472C138.956 18.472 155.457 20.2053 168.908 23.672C182.358 27 192.55 33.1707 199.484 42.184C206.556 51.0587 210.092 63.7467 210.092 80.248C210.092 94.5307 207.388 105.971 201.98 114.568C196.71 123.165 189.084 129.405 179.1 133.288C169.116 137.032 157.121 138.904 143.116 138.904C134.241 138.904 127.169 138.211 121.9 136.824C116.63 135.299 111.777 131.971 107.34 126.84L102.972 130.792C106.577 135.091 110.945 138.419 116.076 140.776C121.206 142.995 127.585 144.243 135.212 144.52C136.46 148.403 137.222 152.84 137.5 157.832C137.916 162.824 137.777 167.816 137.084 172.808C136.529 177.8 135.489 182.307 133.964 186.328C127.169 185.773 117.74 185.08 105.676 184.248C93.7504 183.416 80.0917 183.069 64.6997 183.208C56.9344 183.208 49.3077 183.416 41.8197 183.832C34.3317 184.248 27.4677 184.664 21.2277 185.08C15.1264 185.635 10.1344 186.12 6.25169 186.536ZM102.972 94.808H115.66V80.872H102.972V94.808ZM217.666 186.536C216.279 182.099 215.239 176.829 214.546 170.728C213.991 164.627 213.852 158.525 214.13 152.424C214.407 146.323 215.1 141.261 216.21 137.24C219.399 136.408 222.311 134.259 224.946 130.792C227.58 127.187 228.898 121.224 228.898 112.904C228.898 105.832 228.135 100.355 226.61 96.472C225.223 92.4507 223.628 89.608 221.826 87.944C220.023 86.28 218.428 85.3787 217.042 85.24C215.655 80.664 214.684 75.256 214.13 69.016C213.714 62.6373 213.783 56.328 214.338 50.088C215.031 43.848 216.21 38.7173 217.874 34.696C224.391 35.528 231.74 36.2213 239.922 36.776C248.103 37.192 256.492 37.4 265.09 37.4C273.687 37.4 282.146 37.3307 290.466 37.192C298.786 36.9147 305.65 36.6373 311.058 36.36C309.671 37.8853 308.215 40.1733 306.69 43.224C305.164 46.136 303.778 49.3253 302.53 52.792C301.42 56.2587 300.588 59.5867 300.034 62.776C299.479 65.8267 299.41 68.184 299.826 69.848C302.183 63.192 305.858 56.952 310.85 51.128C315.842 45.304 322.29 40.5893 330.194 36.984C338.236 33.24 347.735 31.368 358.69 31.368C372.834 31.368 384.066 35.32 392.386 43.224C400.706 51.128 404.866 63.5387 404.866 80.456C404.866 96.8187 400.082 109.645 390.514 118.936C381.084 128.227 368.327 132.872 352.242 132.872C342.119 132.872 334.007 130.445 327.906 125.592C321.943 120.6 319.031 113.528 319.17 104.376H313.138C312.999 112.141 314.386 118.589 317.298 123.72C320.348 128.851 324.855 133.219 330.818 136.824C331.788 139.736 332.412 143.411 332.69 147.848C333.106 152.285 333.244 157 333.106 161.992C332.967 166.845 332.551 171.491 331.858 175.928C331.164 180.227 330.263 183.763 329.154 186.536C324.578 186.12 318.754 185.635 311.682 185.08C304.61 184.664 297.122 184.248 289.218 183.832C281.314 183.555 273.756 183.416 266.546 183.416C256.146 183.416 246.786 183.763 238.466 184.456C230.284 185.149 223.351 185.843 217.666 186.536ZM413.101 186.536C411.992 183.763 411.091 180.227 410.397 175.928C409.704 171.491 409.288 166.845 409.149 161.992C409.149 157.139 409.288 152.563 409.565 148.264C409.981 143.827 410.675 140.221 411.645 137.448C413.725 136.616 415.736 135.299 417.677 133.496C419.619 131.693 421.213 128.989 422.461 125.384C423.848 121.779 424.541 116.856 424.541 110.616C424.541 104.515 423.709 99.8 422.045 96.472C420.52 93.0053 418.717 90.5093 416.637 88.984C414.696 87.32 413.032 86.1413 411.645 85.448C410.397 83.0907 409.496 79.7627 408.941 75.464C408.387 71.0267 408.109 66.2427 408.109 61.112C408.248 55.9813 408.664 51.0587 409.357 46.344C410.051 41.6293 411.091 37.7467 412.477 34.696C414.003 34.8347 415.32 35.0427 416.429 35.32C417.539 35.4587 418.787 35.5973 420.173 35.736C419.619 44.3333 421.352 51.752 425.373 57.992C429.395 64.0933 434.872 68.4613 441.805 71.096C448.877 73.7307 456.365 74.2853 464.269 72.76C457.613 72.4827 451.443 70.7493 445.757 67.56C440.211 64.232 435.704 59.864 432.237 54.456C428.909 48.9093 427.245 42.7387 427.245 35.944C427.245 30.2587 428.563 24.7813 431.197 19.512C433.971 14.104 438.547 9.66666 444.925 6.2C451.304 2.59466 459.901 0.79199 470.717 0.79199C488.051 0.79199 500.669 5.15999 508.573 13.896C516.616 22.4933 520.637 35.2507 520.637 52.168C520.637 60.072 519.944 67.352 518.557 74.008C517.309 80.5253 515.992 86.8347 514.605 92.936C513.357 98.8987 512.733 105 512.733 111.24C512.733 117.203 513.357 121.987 514.605 125.592C515.992 129.197 517.656 131.901 519.597 133.704C521.677 135.368 523.688 136.616 525.629 137.448C526.6 140.221 527.224 143.827 527.501 148.264C527.917 152.563 528.056 157.139 527.917 161.992C527.917 166.845 527.571 171.491 526.877 175.928C526.184 180.227 525.283 183.763 524.173 186.536C520.291 186.12 515.229 185.635 508.989 185.08C502.888 184.664 496.232 184.248 489.021 183.832C481.811 183.555 474.6 183.416 467.389 183.416C460.733 183.416 453.939 183.555 447.005 183.832C440.211 184.248 433.832 184.664 427.869 185.08C421.907 185.635 416.984 186.12 413.101 186.536ZM627.996 190.28C604.423 190.28 585.287 186.952 570.588 180.296C556.028 173.501 545.351 164.072 538.556 152.008C531.9 139.805 528.572 125.592 528.572 109.368C528.572 93.2827 531.762 79.4853 538.14 67.976C544.658 56.328 553.74 47.384 565.388 41.144C577.036 34.7653 590.626 31.576 606.156 31.576C621.271 31.576 632.988 34.0027 641.308 38.856C649.767 43.5707 654.204 52.5147 654.62 65.688C656.146 60.8347 656.7 55.9813 656.284 51.128C656.007 46.136 655.591 41.2827 655.036 36.568C659.612 36.568 664.812 36.4987 670.636 36.36C676.599 36.2213 682.7 36.0827 688.94 35.944C695.18 35.6667 701.074 35.4587 706.62 35.32C712.167 35.1813 716.882 35.112 720.764 35.112C721.596 38.856 722.22 43.64 722.636 49.464C723.191 55.1493 723.538 61.3893 723.676 68.184C723.815 74.84 723.676 81.4267 723.26 87.944C722.844 94.4613 722.22 100.285 721.388 105.416C717.367 105.971 712.236 106.456 705.996 106.872C699.756 107.149 693.031 107.357 685.82 107.496C678.61 107.635 671.399 107.635 664.188 107.496C656.978 107.357 650.322 107.149 644.22 106.872C638.258 106.456 633.474 105.971 629.868 105.416L629.66 97.72H619.676V122.056H629.66V113.528C659.335 112.141 690.327 112.141 722.636 113.528C722.082 130.861 718.546 145.213 712.028 156.584C705.65 167.955 695.666 176.413 682.076 181.96C668.487 187.507 650.46 190.28 627.996 190.28ZM823.944 190.072C801.341 190.072 782.898 186.952 768.616 180.712C754.472 174.333 744.072 165.251 737.416 153.464C730.76 141.677 727.432 127.464 727.432 110.824C727.432 91.688 730.968 76.296 738.04 64.648C745.25 53 756.413 44.5413 771.528 39.272C786.642 33.864 806.125 31.16 829.976 31.16C847.725 31.16 863.533 33.032 877.4 36.776C891.405 40.52 902.429 46.0667 910.472 53.416C918.514 60.6267 922.536 69.5707 922.536 80.248C922.536 84.1307 921.912 88.0827 920.664 92.104C919.554 95.9867 917.197 99.5227 913.592 102.712C909.986 105.901 904.578 108.467 897.368 110.408C890.157 112.349 880.52 113.32 868.456 113.32C860.413 113.32 853.133 113.251 846.616 113.112C840.237 112.835 834.344 112.419 828.936 111.864H818.536V127.256H828.728V118.936C858.125 117.549 889.186 117.549 921.912 118.936C921.912 134.328 918.584 147.293 911.928 157.832C905.272 168.371 894.802 176.413 880.52 181.96C866.237 187.368 847.378 190.072 823.944 190.072ZM818.536 101.048H828.728V88.984H818.536V101.048Z" fill="#9D182B"/>
</g>
<defs>
<filter id="filter0_d_1_4" x="0.843689" y="0.791992" width="941.692" height="195.488" filterUnits="userSpaceOnUse" color-interpolation-filters="sRGB">
<feFlood flood-opacity="0" result="BackgroundImageFix"/>
<feColorMatrix in="SourceAlpha" type="matrix" values="0 0 0 0 0 0 0 0 0 0 0 0 0 0 0 0 0 0 127 0" result="hardAlpha"/>
<feOffset dx="20" dy="6"/>
<feComposite in2="hardAlpha" operator="out"/>
<feColorMatrix type="matrix" values="0 0 0 0 1 0 0 0 0 0.581731 0 0 0 0 0.686298 0 0 0 1 0"/>
<feBlend mode="normal" in2="BackgroundImageFix" result="effect1_dropShadow_1_4"/>
<feBlend mode="normal" in="SourceGraphic" in2="effect1_dropShadow_1_4" result="shape"/>
</filter>
</defs>
</svg>
