<svg width="180" height="172" viewBox="0 0 180 172" fill="none" xmlns="http://www.w3.org/2000/svg">
<path d="M83.765 4.21751C86.363 -0.873243 93.637 -0.873237 96.235 4.21752L118.958 48.7431C119.975 50.7361 121.884 52.1228 124.093 52.4743L173.462 60.3258C179.106 61.2235 181.354 68.1416 177.315 72.1855L141.99 107.555C140.409 109.139 139.68 111.382 140.029 113.593L147.817 162.971C148.708 168.616 142.823 172.892 137.729 170.3L93.1739 147.635C91.1796 146.62 88.8204 146.62 86.8261 147.635L42.2714 170.3C37.1773 172.892 31.2925 168.616 32.183 162.971L39.9712 113.593C40.3198 111.382 39.5908 109.139 38.0096 107.555L2.68506 72.1855C-1.35372 68.1416 0.894087 61.2235 6.53851 60.3258L55.9066 52.4743C58.1164 52.1228 60.025 50.7361 61.0421 48.7431L83.765 4.21751Z" fill="#F2E0D2"/>
</svg>
