<svg width="324" height="37" viewBox="0 0 324 37" fill="none" xmlns="http://www.w3.org/2000/svg">
<path d="M24.7558 16.86C29.9158 20.55 27.5158 30.03 21.8458 32.31C17.9158 33.9 8.6158 34.62 3.1858 30.24C0.305801 26.61 3.6658 20.55 8.5558 22.92C12.7858 25.02 16.7458 25.08 17.2258 23.25C17.7658 21.21 14.8558 20.28 10.7158 20.4C8.3458 19.14 7.7758 13.59 12.3058 13.5C15.1558 13.47 17.1358 13.14 17.1058 12.06C17.0758 9.45 10.3858 10.41 8.0158 11.94C5.2258 10.62 3.3658 5.28 7.5058 3.63C11.5858 2.01 16.1458 2.34 18.5458 3.09C25.6258 5.28 26.3158 10.89 26.0158 13.41C25.8358 14.73 25.4458 15.9 24.7558 16.86ZM29.0582 23.4C30.2282 17.37 33.5282 7.53 35.4482 3.78C39.5582 2.43 48.4982 0.54 51.9182 8.88C53.5382 12.84 56.6582 22.86 57.7982 29.16C57.3782 32.43 48.2282 36.15 45.8582 27.93C43.9682 27.84 41.8682 27.96 39.9482 27.9C39.4382 29.16 38.9582 30.66 38.5382 32.22C31.1582 34.92 27.7682 30.21 29.0582 23.4ZM41.1182 19.86C42.4082 19.86 43.5782 19.86 44.8082 19.86C44.2382 17.43 43.6382 15.06 43.0682 12.66C42.9782 12.69 42.8882 12.69 42.7982 12.69C42.2582 15.06 41.6882 17.4 41.1182 19.86ZM69.46 13.92C70.48 12.36 71.35 10.95 72.25 9.57C73.39 7.86 75.88 4.32 76.99 2.61C81.25 1.71 85.72 5.13 83.23 10.29C81.67 13.59 81.31 13.8 79.42 16.92C79.18 17.28 79.18 17.55 79.39 17.94C81.58 22.08 84.4 26.49 85.54 29.52C84.4 33.45 77.23 36.63 74.05 30.33C73.39 29.07 72.64 27.57 71.23 24.78C70.54 25.89 69.67 27.27 69.58 27.93C69.46 28.56 69.49 30.33 69.64 32.04C67.06 34.26 59.71 34.14 58.99 28.77C58.3 23.73 58.03 10.35 58.6 4.65C61 1.59 69.28 1.53 69.49 7.44C69.61 11.04 69.55 10.62 69.46 13.23C69.46 13.41 69.46 13.56 69.46 13.92ZM86.8463 23.4C88.0163 17.37 91.3163 7.53 93.2363 3.78C97.3463 2.43 106.286 0.54 109.706 8.88C111.326 12.84 114.446 22.86 115.586 29.16C115.166 32.43 106.016 36.15 103.646 27.93C101.756 27.84 99.6563 27.96 97.7363 27.9C97.2263 29.16 96.7463 30.66 96.3263 32.22C88.9463 34.92 85.5563 30.21 86.8463 23.4ZM98.9063 19.86C100.196 19.86 101.366 19.86 102.596 19.86C102.026 17.43 101.426 15.06 100.856 12.66C100.766 12.69 100.676 12.69 100.586 12.69C100.046 15.06 99.4763 17.4 98.9063 19.86ZM139.321 16.86C144.481 20.55 142.081 30.03 136.411 32.31C132.481 33.9 123.181 34.62 117.751 30.24C114.871 26.61 118.231 20.55 123.121 22.92C127.351 25.02 131.311 25.08 131.791 23.25C132.331 21.21 129.421 20.28 125.281 20.4C122.911 19.14 122.341 13.59 126.871 13.5C129.721 13.47 131.701 13.14 131.671 12.06C131.641 9.45 124.951 10.41 122.581 11.94C119.791 10.62 117.931 5.28 122.071 3.63C126.151 2.01 130.711 2.34 133.111 3.09C140.191 5.28 140.881 10.89 140.581 13.41C140.401 14.73 140.011 15.9 139.321 16.86ZM143.624 23.4C144.794 17.37 148.094 7.53 150.014 3.78C154.124 2.43 163.064 0.54 166.484 8.88C168.104 12.84 171.224 22.86 172.364 29.16C171.944 32.43 162.794 36.15 160.424 27.93C158.534 27.84 156.434 27.96 154.514 27.9C154.004 29.16 153.524 30.66 153.104 32.22C145.724 34.92 142.334 30.21 143.624 23.4ZM155.684 19.86C156.974 19.86 158.144 19.86 159.374 19.86C158.804 17.43 158.204 15.06 157.634 12.66C157.544 12.69 157.454 12.69 157.364 12.69C156.824 15.06 156.254 17.4 155.684 19.86ZM193.637 3.42C195.227 5.46 195.977 12.84 189.227 13.23C188.177 13.29 187.427 13.35 187.307 13.35C187.517 18.81 187.277 27.99 186.707 32.01C184.187 34.74 177.617 33.75 176.297 27C175.997 25.35 175.757 18.9 175.817 13.35C173.837 13.47 171.617 13.5 169.667 13.14C167.747 10.71 168.167 3.84 173.867 3.51C177.647 3.27 190.217 3.45 193.637 3.42ZM207.843 11.85C208.293 11.58 213.693 10.2 218.223 13.62C224.223 18.12 223.053 27.96 218.283 31.17C212.283 35.22 199.623 33.36 197.013 30.84C196.053 27.21 196.353 6.84 196.863 4.17C201.063 0.870001 207.303 3 207.543 6.51C207.753 9.63 207.633 11.22 207.633 11.76C207.633 11.79 207.663 11.82 207.663 11.82C207.723 11.85 207.753 11.85 207.783 11.88C207.813 11.88 207.843 11.88 207.843 11.85ZM208.323 23.55C210.303 24.75 212.253 23.37 212.253 22.11C212.253 20.94 211.833 20.31 210.933 20.13C210.213 20.01 209.433 20.04 208.683 20.04C208.563 20.04 208.353 20.28 208.353 20.4C208.323 21.45 208.323 22.29 208.323 23.55ZM238.985 23.4C240.155 17.37 243.455 7.53 245.375 3.78C249.485 2.43 258.425 0.54 261.845 8.88C263.465 12.84 266.585 22.86 267.725 29.16C267.305 32.43 258.155 36.15 255.785 27.93C253.895 27.84 251.795 27.96 249.875 27.9C249.365 29.16 248.885 30.66 248.465 32.22C241.085 34.92 237.695 30.21 238.985 23.4ZM251.045 19.86C252.335 19.86 253.505 19.86 254.735 19.86C254.165 17.43 253.565 15.06 252.995 12.66C252.905 12.69 252.815 12.69 252.725 12.69C252.185 15.06 251.615 17.4 251.045 19.86ZM289.971 22.53C285.411 25.95 280.041 24.57 279.591 24.3C279.561 24.27 279.561 24.27 279.531 24.3C279.501 24.3 279.441 24.33 279.411 24.33C279.381 24.33 279.381 24.36 279.381 24.39C279.381 24.93 279.411 28.77 279.081 31.98C276.561 34.71 269.721 34.05 268.431 27.27C267.921 24.6 267.801 8.94 268.761 5.31C271.371 2.79 284.001 0.930002 290.031 4.98C294.801 8.19 295.971 18.06 289.971 22.53ZM284.001 14.04C284.001 12.78 282.051 11.43 280.071 12.6C280.071 13.86 280.071 14.73 280.101 15.75C280.101 15.9 280.311 16.11 280.431 16.11C281.181 16.11 281.931 16.14 282.681 16.02C283.581 15.84 284.001 15.21 284.001 14.04ZM320.858 3.42C322.448 5.46 323.198 12.84 316.448 13.23C315.398 13.29 314.648 13.35 314.528 13.35C314.738 18.81 314.498 27.99 313.928 32.01C311.408 34.74 304.838 33.75 303.518 27C303.218 25.35 302.978 18.9 303.038 13.35C301.058 13.47 298.838 13.5 296.888 13.14C294.968 10.71 295.388 3.84 301.088 3.51C304.868 3.27 317.438 3.45 320.858 3.42Z" fill="#F2E0D2"/>
</svg>
