<svg width="640" height="57" viewBox="0 0 640 57" fill="none" xmlns="http://www.w3.org/2000/svg">
<path d="M1.83032 49.105C1.39699 47.7183 1.07199 46.0717 0.85532 44.165C0.681987 42.2583 0.638653 40.3517 0.72532 38.445C0.811987 36.5383 1.02865 34.9567 1.37532 33.7C2.37199 33.44 3.28199 32.7683 4.10532 31.685C4.92865 30.5583 5.34032 28.695 5.34032 26.095C5.34032 23.885 5.10199 22.1733 4.62532 20.96C4.19199 19.7033 3.69365 18.815 3.13032 18.295C2.56699 17.775 2.06865 17.4933 1.63532 17.45C1.20199 16.02 0.898653 14.33 0.72532 12.38C0.59532 10.3867 0.616987 8.415 0.79032 6.465C1.00699 4.515 1.37532 2.91166 1.89532 1.655C3.93199 1.915 6.22865 2.13167 8.78532 2.305C11.3853 2.435 14.1153 2.5 16.9753 2.5C19.792 2.5 22.5437 2.41333 25.2303 2.24C27.917 2.06667 30.257 1.85 32.2503 1.59C32.5537 2.63 32.7703 4.06 32.9003 5.88C33.0303 7.65666 33.052 9.49833 32.9653 11.405C32.922 13.3117 32.7703 14.9583 32.5103 16.345H31.7303V19.53H35.6953V16.345H34.9153C34.6553 14.9583 34.482 13.3117 34.3953 11.405C34.352 9.49833 34.3953 7.65666 34.5253 5.88C34.6553 4.06 34.872 2.63 35.1753 1.59C37.1687 1.85 39.5087 2.06667 42.1953 2.24C44.882 2.41333 47.6337 2.5 50.4503 2.5C53.3103 2.5 56.0187 2.435 58.5753 2.305C61.1753 2.13167 63.4937 1.915 65.5303 1.655C66.0937 2.91166 66.462 4.515 66.6353 6.465C66.8087 8.415 66.8303 10.3867 66.7003 12.38C66.5703 14.33 66.267 16.02 65.7903 17.45C65.4003 17.4933 64.902 17.775 64.2953 18.295C63.732 18.815 63.212 19.7033 62.7353 20.96C62.302 22.1733 62.0853 23.885 62.0853 26.095C62.0853 28.695 62.497 30.5583 63.3203 31.685C64.187 32.7683 65.097 33.44 66.0503 33.7C66.397 34.9567 66.6137 36.5383 66.7003 38.445C66.787 40.3517 66.7437 42.2583 66.5703 44.165C66.397 46.0717 66.072 47.7183 65.5953 49.105C64.5553 48.975 63.407 48.8233 62.1503 48.65C60.8937 48.52 59.3553 48.39 57.5353 48.26C55.7587 48.1733 53.4837 48.13 50.7103 48.13C47.287 48.13 44.2753 48.2383 41.6753 48.455C39.0753 48.6717 36.887 48.8883 35.1103 49.105C34.8503 48.0217 34.6553 46.5917 34.5253 44.815C34.3953 43.0383 34.352 41.1967 34.3953 39.29C34.482 37.3833 34.6553 35.7367 34.9153 34.35H35.6953V31.49H31.7303V34.35H32.5103C32.8137 35.7367 32.987 37.3833 33.0303 39.29C33.117 41.1967 33.0953 43.0383 32.9653 44.815C32.8353 46.5917 32.6187 48.0217 32.3153 49.105C31.2753 48.975 30.127 48.8233 28.8703 48.65C27.6137 48.52 26.0753 48.39 24.2553 48.26C22.4787 48.1733 20.2037 48.13 17.4303 48.13C14.007 48.13 10.9953 48.2383 8.39532 48.455C5.79532 48.6717 3.60699 48.8883 1.83032 49.105ZM96.2235 50.21C91.0235 50.21 86.9069 49.5383 83.8735 48.195C80.8835 46.8517 78.7385 45.0967 77.4385 42.93C76.1385 40.7633 75.4885 38.4233 75.4885 35.91C75.4885 32.0967 76.8319 28.9983 79.5185 26.615C82.2052 24.2317 86.4952 23.0183 92.3885 22.975L106.169 22.845V19.4H102.594V21.155C98.1735 21.3283 93.8185 21.5017 89.5285 21.675C85.2385 21.8483 80.9702 21.7833 76.7235 21.48C75.6402 14.72 75.7485 8.17667 77.0485 1.85C78.3052 1.85 79.8219 1.87166 81.5985 1.915C83.4185 1.95833 85.3252 2.02333 87.3185 2.11C89.3552 2.15333 91.3485 2.19666 93.2985 2.24C95.2485 2.28333 96.9819 2.32667 98.4985 2.37C97.9352 3.67 97.6102 4.97 97.5235 6.27C97.4802 7.57 97.6752 8.82666 98.1085 10.04C98.3252 6.44333 99.6902 3.95166 102.204 2.565C104.717 1.17833 108.27 0.485 112.864 0.485C118.8 0.485 123.35 1.35167 126.514 3.085C129.677 4.775 131.779 7.31 132.819 10.69C133.339 12.2933 133.555 14.0267 133.469 15.89C133.425 17.71 133.295 19.4867 133.079 21.22C132.862 22.9533 132.754 24.5133 132.754 25.9C132.754 28.5433 133.165 30.4283 133.989 31.555C134.855 32.6383 135.765 33.3533 136.719 33.7C137.109 34.9567 137.325 36.5383 137.369 38.445C137.455 40.3517 137.412 42.2583 137.239 44.165C137.065 46.0717 136.762 47.7183 136.329 49.105C134.422 49.5383 132.429 49.82 130.349 49.95C128.269 50.1233 126.579 50.21 125.279 50.21C121.985 50.21 119.407 49.82 117.544 49.04C115.68 48.26 114.749 46.83 114.749 44.75C114.749 44.0133 114.879 43.2333 115.139 42.41C115.442 41.5867 115.789 40.6983 116.179 39.745L114.489 38.9C113.709 40.8067 112.625 42.6267 111.239 44.36C109.895 46.0933 108.01 47.5017 105.584 48.585C103.2 49.6683 100.08 50.21 96.2235 50.21ZM102.594 31.165H106.169V27.07H102.594V31.165ZM184.805 49.495C181.252 49.495 178.002 49.43 175.055 49.3C172.152 49.17 169.314 49.04 166.54 48.91C163.81 48.8233 160.907 48.7583 157.83 48.715C154.754 48.715 151.287 48.845 147.43 49.105C146.997 47.7183 146.672 46.0717 146.455 44.165C146.282 42.2583 146.239 40.3517 146.325 38.445C146.412 36.5383 146.629 34.9567 146.975 33.7C147.972 33.44 148.882 32.7683 149.705 31.685C150.529 30.5583 150.94 28.695 150.94 26.095C150.94 23.885 150.702 22.1733 150.225 20.96C149.792 19.7033 149.294 18.815 148.73 18.295C148.167 17.775 147.669 17.4933 147.235 17.45C146.802 16.02 146.499 14.33 146.325 12.38C146.195 10.3867 146.217 8.415 146.39 6.465C146.607 4.515 146.975 2.91166 147.495 1.655C150.919 1.87167 154.104 2.00167 157.05 2.045C160.04 2.045 162.944 2.02333 165.76 1.98C168.577 1.89333 171.437 1.80666 174.34 1.72C177.244 1.63333 180.32 1.59 183.57 1.59C187.037 1.59 190.2 1.74166 193.06 2.045C195.964 2.34833 198.477 2.955 200.6 3.865C202.724 4.775 204.37 6.14 205.54 7.96C206.71 9.73666 207.295 12.0983 207.295 15.045C207.295 16.8217 206.884 18.5117 206.06 20.115C205.28 21.7183 204.197 23.1917 202.81 24.535C205.194 25.9217 206.819 27.4817 207.685 29.215C208.595 30.905 209.05 32.7683 209.05 34.805C209.05 37.0583 208.682 39.095 207.945 40.915C207.209 42.735 205.93 44.295 204.11 45.595C202.334 46.8517 199.864 47.805 196.7 48.455C193.58 49.1483 189.615 49.495 184.805 49.495ZM176.03 21.935H180.06V18.555H176.03V21.935ZM176.03 31.685H180.385V28.435H176.03V31.685ZM219.088 49.105C218.654 47.7183 218.329 46.0717 218.113 44.165C217.939 42.2583 217.896 40.3517 217.983 38.445C218.069 36.5383 218.286 34.9567 218.633 33.7C219.629 33.44 220.539 32.7683 221.363 31.685C222.186 30.5583 222.598 28.695 222.598 26.095C222.598 23.885 222.359 22.1733 221.883 20.96C221.449 19.7033 220.951 18.815 220.388 18.295C219.824 17.775 219.326 17.4933 218.893 17.45C218.459 16.02 218.156 14.33 217.983 12.38C217.853 10.3867 217.874 8.415 218.048 6.465C218.264 4.515 218.633 2.91166 219.153 1.655C221.189 1.915 223.508 2.13167 226.108 2.305C228.708 2.435 231.524 2.5 234.558 2.5C237.374 2.5 240.126 2.41333 242.813 2.24C245.499 2.06667 247.839 1.85 249.833 1.59C250.309 4.10333 250.418 6.37833 250.158 8.415C249.898 10.4517 249.248 12.4017 248.208 14.265C247.168 16.1283 245.694 18.0567 243.788 20.05L245.153 21.35C247.363 19.0533 249.009 16.865 250.093 14.785C251.176 12.6617 251.826 10.5383 252.043 8.415C252.303 6.24833 252.216 3.995 251.783 1.655C253.863 1.87167 256.333 2.06667 259.193 2.24C262.053 2.41333 264.999 2.5 268.033 2.5C271.066 2.5 273.883 2.435 276.483 2.305C279.083 2.13167 281.401 1.915 283.438 1.655C284.001 2.91166 284.369 4.515 284.543 6.465C284.716 8.415 284.738 10.3867 284.608 12.38C284.478 14.33 284.174 16.02 283.698 17.45C283.308 17.4933 282.809 17.775 282.203 18.295C281.639 18.815 281.119 19.7033 280.643 20.96C280.209 22.1733 279.993 23.885 279.993 26.095C279.993 28.695 280.404 30.5583 281.228 31.685C282.094 32.7683 283.004 33.44 283.958 33.7C284.304 34.9567 284.521 36.5383 284.608 38.445C284.694 40.3517 284.651 42.2583 284.478 44.165C284.304 46.0717 283.979 47.7183 283.503 49.105C282.463 48.975 281.314 48.8233 280.058 48.65C278.801 48.52 277.241 48.39 275.378 48.26C273.514 48.1733 271.153 48.13 268.293 48.13C264.869 48.13 261.858 48.2383 259.258 48.455C256.658 48.6717 254.469 48.8883 252.693 49.105C252.259 46.5917 252.151 44.3167 252.368 42.28C252.628 40.2433 253.278 38.2933 254.318 36.43C255.358 34.5233 256.831 32.595 258.738 30.645L257.373 29.345C255.206 31.5983 253.559 33.7867 252.433 35.91C251.349 38.0333 250.699 40.1783 250.483 42.345C250.266 44.4683 250.353 46.7217 250.743 49.105C249.659 48.975 248.446 48.8233 247.103 48.65C245.803 48.52 244.178 48.39 242.228 48.26C240.321 48.1733 237.916 48.13 235.013 48.13C231.459 48.13 228.361 48.2383 225.718 48.455C223.074 48.6717 220.864 48.8883 219.088 49.105ZM294.681 49.105C294.247 47.7183 293.922 46.0717 293.706 44.165C293.532 42.2583 293.489 40.3517 293.576 38.445C293.662 36.5383 293.879 34.9567 294.226 33.7C295.222 33.44 296.132 32.7683 296.956 31.685C297.779 30.5583 298.191 28.695 298.191 26.095C298.191 23.885 297.952 22.1733 297.476 20.96C297.042 19.7033 296.544 18.815 295.981 18.295C295.417 17.775 294.919 17.4933 294.486 17.45C294.052 16.02 293.749 14.33 293.576 12.38C293.446 10.3867 293.467 8.415 293.641 6.465C293.857 4.515 294.226 2.91166 294.746 1.655C296.566 1.74166 299.447 1.95833 303.391 2.305C307.334 2.60833 312.317 2.76 318.341 2.76C324.754 2.76 330.127 2.60833 334.461 2.305C338.837 2.00166 341.957 1.85 343.821 1.85C344.037 2.71666 344.211 4.01666 344.341 5.75C344.514 7.48333 344.644 9.455 344.731 11.665C344.817 13.8317 344.861 16.0633 344.861 18.36C344.861 20.6567 344.796 22.845 344.666 24.925C344.536 26.9617 344.362 28.695 344.146 30.125C337.949 31.035 332.164 31.035 326.791 30.125C326.487 26.615 326.422 23.495 326.596 20.765H324.581V26.03C324.581 27.98 324.754 29.475 325.101 30.515C325.491 31.5117 326.097 32.2483 326.921 32.725C327.744 33.1583 328.806 33.505 330.106 33.765C330.496 35.0217 330.734 36.6033 330.821 38.51C330.907 40.3733 330.864 42.2583 330.691 44.165C330.517 46.0717 330.192 47.7183 329.716 49.105C328.329 48.975 326.834 48.8233 325.231 48.65C323.671 48.52 321.807 48.39 319.641 48.26C317.517 48.1733 314.874 48.13 311.711 48.13C307.897 48.13 304.539 48.2383 301.636 48.455C298.776 48.6717 296.457 48.8883 294.681 49.105ZM374.284 50.21C369.084 50.21 364.967 49.5383 361.934 48.195C358.944 46.8517 356.799 45.0967 355.499 42.93C354.199 40.7633 353.549 38.4233 353.549 35.91C353.549 32.0967 354.892 28.9983 357.579 26.615C360.266 24.2317 364.556 23.0183 370.449 22.975L384.229 22.845V19.4H380.654V21.155C376.234 21.3283 371.879 21.5017 367.589 21.675C363.299 21.8483 359.031 21.7833 354.784 21.48C353.701 14.72 353.809 8.17667 355.109 1.85C356.366 1.85 357.882 1.87166 359.659 1.915C361.479 1.95833 363.386 2.02333 365.379 2.11C367.416 2.15333 369.409 2.19666 371.359 2.24C373.309 2.28333 375.042 2.32667 376.559 2.37C375.996 3.67 375.671 4.97 375.584 6.27C375.541 7.57 375.736 8.82666 376.169 10.04C376.386 6.44333 377.751 3.95166 380.264 2.565C382.777 1.17833 386.331 0.485 390.924 0.485C396.861 0.485 401.411 1.35167 404.574 3.085C407.737 4.775 409.839 7.31 410.879 10.69C411.399 12.2933 411.616 14.0267 411.529 15.89C411.486 17.71 411.356 19.4867 411.139 21.22C410.922 22.9533 410.814 24.5133 410.814 25.9C410.814 28.5433 411.226 30.4283 412.049 31.555C412.916 32.6383 413.826 33.3533 414.779 33.7C415.169 34.9567 415.386 36.5383 415.429 38.445C415.516 40.3517 415.472 42.2583 415.299 44.165C415.126 46.0717 414.822 47.7183 414.389 49.105C412.482 49.5383 410.489 49.82 408.409 49.95C406.329 50.1233 404.639 50.21 403.339 50.21C400.046 50.21 397.467 49.82 395.604 49.04C393.741 48.26 392.809 46.83 392.809 44.75C392.809 44.0133 392.939 43.2333 393.199 42.41C393.502 41.5867 393.849 40.6983 394.239 39.745L392.549 38.9C391.769 40.8067 390.686 42.6267 389.299 44.36C387.956 46.0933 386.071 47.5017 383.644 48.585C381.261 49.6683 378.141 50.21 374.284 50.21ZM380.654 31.165H384.229V27.07H380.654V31.165ZM468.651 55.865C468.347 54.5217 468.109 53.2 467.936 51.9C467.762 50.6 467.632 49.4733 467.546 48.52C465.682 48.39 463.646 48.3033 461.436 48.26C459.226 48.2167 456.929 48.195 454.546 48.195C451.166 48.195 447.699 48.2383 444.146 48.325C440.636 48.455 437.277 48.6067 434.071 48.78C430.864 48.9967 428.004 49.2567 425.491 49.56C425.057 48.0867 424.732 46.375 424.516 44.425C424.342 42.4317 424.299 40.4817 424.386 38.575C424.472 36.625 424.689 35 425.036 33.7C426.032 33.44 426.942 32.7683 427.766 31.685C428.589 30.5583 429.001 28.695 429.001 26.095C429.001 23.885 428.762 22.1733 428.286 20.96C427.852 19.7033 427.354 18.815 426.791 18.295C426.227 17.775 425.729 17.4933 425.296 17.45C424.862 16.02 424.559 14.33 424.386 12.38C424.256 10.3867 424.277 8.415 424.451 6.465C424.667 4.515 425.036 2.91166 425.556 1.655C427.592 1.915 429.889 2.13167 432.446 2.305C435.002 2.435 437.624 2.5 440.311 2.5C442.997 2.5 445.662 2.41333 448.306 2.24C450.949 2.06667 453.267 1.85 455.261 1.59C455.564 2.71666 455.781 4.255 455.911 6.205C456.041 8.155 456.062 10.17 455.976 12.25C455.932 14.33 455.781 16.1283 455.521 17.645V30.45H457.926V17.645C457.666 16.1283 457.492 14.33 457.406 12.25C457.362 10.17 457.406 8.155 457.536 6.205C457.666 4.255 457.882 2.71666 458.186 1.59C460.179 1.85 462.497 2.06667 465.141 2.24C467.827 2.41333 470.492 2.5 473.136 2.5C475.822 2.5 478.444 2.435 481.001 2.305C483.557 2.13167 485.854 1.915 487.891 1.655C488.454 2.91166 488.822 4.515 488.996 6.465C489.169 8.415 489.191 10.3867 489.061 12.38C488.931 14.33 488.627 16.02 488.151 17.45C487.761 17.4933 487.262 17.775 486.656 18.295C486.092 18.815 485.572 19.7033 485.096 20.96C484.662 22.1733 484.446 23.885 484.446 26.095C484.446 28.6517 485.031 30.5583 486.201 31.815C487.371 33.0283 488.649 33.6567 490.036 33.7C490.339 34.4367 490.577 35.52 490.751 36.95C490.967 38.3367 491.097 39.9183 491.141 41.695C491.227 43.4283 491.227 45.205 491.141 47.025C491.054 48.845 490.902 50.535 490.686 52.095C490.512 53.655 490.252 54.9117 489.906 55.865C488.736 56.125 487.284 56.2983 485.551 56.385C483.817 56.515 481.954 56.58 479.961 56.58C478.011 56.58 476.039 56.515 474.046 56.385C472.096 56.2983 470.297 56.125 468.651 55.865ZM501.211 49.105C500.777 47.7183 500.452 46.0717 500.236 44.165C500.062 42.2583 500.019 40.3517 500.106 38.445C500.192 36.5383 500.409 34.9567 500.756 33.7C501.752 33.44 502.662 32.7683 503.486 31.685C504.309 30.5583 504.721 28.695 504.721 26.095C504.721 23.885 504.482 22.1733 504.006 20.96C503.572 19.7033 503.074 18.815 502.511 18.295C501.947 17.775 501.449 17.4933 501.016 17.45C500.582 16.02 500.279 14.33 500.106 12.38C499.976 10.3867 499.997 8.415 500.171 6.465C500.387 4.515 500.756 2.91166 501.276 1.655C503.312 1.915 505.631 2.13167 508.231 2.305C510.831 2.435 513.647 2.5 516.681 2.5C519.497 2.5 522.249 2.41333 524.936 2.24C527.622 2.06667 529.962 1.85 531.956 1.59C532.432 4.10333 532.541 6.37833 532.281 8.415C532.021 10.4517 531.371 12.4017 530.331 14.265C529.291 16.1283 527.817 18.0567 525.911 20.05L527.276 21.35C529.486 19.0533 531.132 16.865 532.216 14.785C533.299 12.6617 533.949 10.5383 534.166 8.415C534.426 6.24833 534.339 3.995 533.906 1.655C535.986 1.87167 538.456 2.06667 541.316 2.24C544.176 2.41333 547.122 2.5 550.156 2.5C553.189 2.5 556.006 2.435 558.606 2.305C561.206 2.13167 563.524 1.915 565.561 1.655C566.124 2.91166 566.492 4.515 566.666 6.465C566.839 8.415 566.861 10.3867 566.731 12.38C566.601 14.33 566.297 16.02 565.821 17.45C565.431 17.4933 564.932 17.775 564.326 18.295C563.762 18.815 563.242 19.7033 562.766 20.96C562.332 22.1733 562.116 23.885 562.116 26.095C562.116 28.695 562.527 30.5583 563.351 31.685C564.217 32.7683 565.127 33.44 566.081 33.7C566.427 34.9567 566.644 36.5383 566.731 38.445C566.817 40.3517 566.774 42.2583 566.601 44.165C566.427 46.0717 566.102 47.7183 565.626 49.105C564.586 48.975 563.437 48.8233 562.181 48.65C560.924 48.52 559.364 48.39 557.501 48.26C555.637 48.1733 553.276 48.13 550.416 48.13C546.992 48.13 543.981 48.2383 541.381 48.455C538.781 48.6717 536.592 48.8883 534.816 49.105C534.382 46.5917 534.274 44.3167 534.491 42.28C534.751 40.2433 535.401 38.2933 536.441 36.43C537.481 34.5233 538.954 32.595 540.861 30.645L539.496 29.345C537.329 31.5983 535.682 33.7867 534.556 35.91C533.472 38.0333 532.822 40.1783 532.606 42.345C532.389 44.4683 532.476 46.7217 532.866 49.105C531.782 48.975 530.569 48.8233 529.226 48.65C527.926 48.52 526.301 48.39 524.351 48.26C522.444 48.1733 520.039 48.13 517.136 48.13C513.582 48.13 510.484 48.2383 507.841 48.455C505.197 48.6717 502.987 48.8883 501.211 49.105ZM576.739 49.105C576.349 47.8917 576.045 46.375 575.829 44.555C575.612 42.6917 575.547 40.785 575.634 38.835C575.72 36.885 575.937 35.1733 576.284 33.7C577.237 33.2233 578.234 32.5517 579.274 31.685C580.314 30.8183 581.245 29.735 582.069 28.435C580.682 26.9183 579.599 25.3583 578.819 23.755C578.082 22.1517 577.714 20.18 577.714 17.84C577.714 13.2467 578.775 9.715 580.899 7.245C583.065 4.775 586.164 3.06333 590.194 2.11C594.267 1.11333 599.164 0.614998 604.884 0.614998C608.784 0.614998 612.164 0.679998 615.024 0.809999C617.927 0.939998 620.57 1.09166 622.954 1.265C625.337 1.43833 627.72 1.56833 630.104 1.655C632.53 1.74166 635.195 1.74166 638.099 1.655C638.662 2.91166 639.03 4.515 639.204 6.465C639.377 8.415 639.399 10.3867 639.269 12.38C639.139 14.33 638.835 16.02 638.359 17.45C637.969 17.4933 637.47 17.775 636.864 18.295C636.3 18.815 635.78 19.7033 635.304 20.96C634.87 22.1733 634.654 23.885 634.654 26.095C634.654 28.695 635.065 30.5583 635.889 31.685C636.755 32.7683 637.665 33.44 638.619 33.7C638.965 34.9567 639.182 36.5383 639.269 38.445C639.355 40.3517 639.312 42.2583 639.139 44.165C638.965 46.0717 638.64 47.7183 638.164 49.105C636.43 48.9317 634.264 48.7367 631.664 48.52C629.064 48.3033 626.334 48.1733 623.474 48.13C620.224 48.0867 617.212 48.1733 614.439 48.39C611.709 48.65 609.477 48.8667 607.744 49.04C607.354 47.9133 607.072 46.505 606.899 44.815C606.769 43.0817 606.747 41.305 606.834 39.485C606.964 37.6217 607.18 35.9533 607.484 34.48H609.499V28.89C607.852 30.4933 606.66 32.2483 605.924 34.155C605.23 36.0617 604.862 38.2283 604.819 40.655C604.819 43.0817 605.057 45.8983 605.534 49.105C604.494 48.975 603.302 48.8233 601.959 48.65C600.659 48.52 599.012 48.39 597.019 48.26C595.069 48.1733 592.555 48.13 589.479 48.13C586.055 48.13 583.412 48.2383 581.549 48.455C579.729 48.715 578.125 48.9317 576.739 49.105ZM605.989 23.17H609.759V19.01H605.989V23.17Z" fill="#9D182B"/>
</svg>
