<svg width="173" height="22" viewBox="0 0 173 22" fill="none" xmlns="http://www.w3.org/2000/svg">
<path d="M9.32644 1.802C13.1964 1.802 17.8764 2.45 17.8764 5.924C17.8764 7.742 17.8764 12.908 17.8764 17.534C17.8764 18.182 17.8584 19.064 17.8044 19.478C17.0124 20.378 11.6484 21.044 11.2164 17.714C11.0904 16.778 11.0724 8.66 11.0724 7.868C9.92044 7.868 8.87644 7.868 7.68844 7.868C7.68844 9.65 7.68844 17.588 7.68844 19.478C6.71644 20.396 1.31644 21.404 1.02844 16.922C0.884441 14.924 0.650441 6.698 0.866441 3.386C2.88244 2.144 6.87844 1.802 9.32644 1.802ZM28.1234 1.64C34.2614 1.604 36.2954 5.798 36.8354 7.22C37.6814 9.524 37.8794 11.864 37.1594 14.24C36.1874 17.372 34.0814 19.352 30.8774 20.108C28.2854 20.738 25.7474 20.54 23.3534 19.298C21.0674 18.128 19.7534 16.202 19.1954 13.736C18.6554 11.414 18.7994 8.75 19.6454 6.896C20.7794 4.358 23.1734 1.658 28.1234 1.64ZM28.2134 8.084C26.8814 8.084 25.6934 9.218 25.8374 11.36C25.9634 13.448 27.3494 14.186 28.2854 14.114C29.2394 14.06 30.4094 13.322 30.5174 11.288C30.6434 9.254 29.4914 8.084 28.2134 8.084ZM52.0396 13.718C49.3036 15.77 46.0816 14.942 45.8116 14.78C45.7936 14.762 45.7936 14.762 45.7756 14.78C45.7576 14.78 45.7216 14.798 45.7036 14.798C45.6856 14.798 45.6856 14.816 45.6856 14.834C45.6856 15.158 45.7036 17.462 45.5056 19.388C43.9936 21.026 39.8896 20.63 39.1156 16.562C38.8096 14.96 38.7376 5.564 39.3136 3.386C40.8796 1.874 48.4576 0.758001 52.0756 3.188C54.9376 5.114 55.6396 11.036 52.0396 13.718ZM48.4576 8.624C48.4576 7.868 47.2876 7.058 46.0996 7.76C46.0996 8.516 46.0996 9.038 46.1176 9.65C46.1176 9.74 46.2436 9.866 46.3156 9.866C46.7656 9.866 47.2156 9.884 47.6656 9.812C48.2056 9.704 48.4576 9.326 48.4576 8.624ZM70.258 2C71.23 3.26 71.698 7.76 67.576 8.012C66.928 8.048 66.478 8.084 66.406 8.084C66.532 11.414 66.388 17.012 66.046 19.478C64.48 21.152 60.466 20.54 59.674 16.418C59.494 15.41 59.332 11.468 59.368 8.084C58.162 8.156 56.812 8.174 55.624 7.958C54.454 6.464 54.706 2.27 58.18 2.054C60.502 1.928 68.188 2.018 70.258 2ZM92.8035 3.71C96.1695 5.906 96.7455 11.45 93.1455 14.096C90.4095 16.094 87.1695 15.302 86.9175 15.122C86.8995 15.122 86.8815 15.122 86.8815 15.122C86.8635 15.122 86.8275 15.14 86.8095 15.14C86.7915 15.158 86.7915 15.176 86.7915 15.176C86.7915 15.5 86.8095 17.75 86.6115 19.658C85.0995 21.26 80.9955 20.864 80.2215 16.886C80.1495 16.58 80.1135 15.932 80.0775 15.086C80.0595 15.068 80.0415 15.068 80.0235 15.05C80.0055 15.05 79.9875 15.05 79.9875 15.068C79.7175 15.23 76.8015 16.094 74.0835 14.096C70.4835 11.45 70.8615 6.842 73.6875 4.232C77.1255 1.028 89.1135 1.28 92.8035 3.71ZM79.8075 10.316C79.8795 10.316 79.9875 10.19 80.0055 10.118C80.0055 9.74 80.0055 9.344 80.0235 8.966C80.0235 8.75 80.0235 8.516 80.0235 8.246C78.8355 7.544 77.6475 8.354 77.6475 9.092C77.6475 9.776 77.9175 10.154 78.4575 10.262C78.8895 10.334 79.3575 10.316 79.8075 10.316ZM88.7715 10.262C89.3115 10.154 89.5635 9.776 89.5635 9.092C89.5635 8.354 88.3755 7.544 87.2055 8.246C87.2055 8.984 87.2055 9.488 87.2055 10.1C87.2235 10.172 87.3495 10.316 87.4215 10.316C87.8715 10.316 88.3215 10.334 88.7715 10.262ZM106.144 1.64C112.282 1.604 114.316 5.798 114.856 7.22C115.702 9.524 115.9 11.864 115.18 14.24C114.208 17.372 112.102 19.352 108.898 20.108C106.306 20.738 103.768 20.54 101.374 19.298C99.0879 18.128 97.7739 16.202 97.2159 13.736C96.6759 11.414 96.8199 8.75 97.6659 6.896C98.7999 4.358 101.194 1.658 106.144 1.64ZM106.234 8.084C104.902 8.084 103.714 9.218 103.858 11.36C103.984 13.448 105.37 14.186 106.306 14.114C107.26 14.06 108.43 13.322 108.538 11.288C108.664 9.254 107.512 8.084 106.234 8.084ZM124.372 12.152C124.354 12.152 124.336 12.152 124.318 12.152C124.336 12.152 124.354 12.152 124.372 12.152ZM131.014 5.384C132.022 7.832 133.408 14.006 134.128 17.876C133.444 20.252 128.134 21.62 127.234 17.48C126.442 13.736 125.794 9.848 125.524 7.724C125.47 7.724 125.416 7.724 125.344 7.724C125.002 9.182 124.66 10.64 124.318 12.152C123.706 14.762 122.968 18.794 122.698 19.766C118.126 21.44 116.002 18.542 116.812 14.33C117.532 10.604 119.584 4.556 120.772 2.234C123.346 1.406 128.89 0.236 131.014 5.384ZM141.435 9.704C141.453 9.722 141.471 9.722 141.507 9.74C141.579 9.596 141.669 9.47 141.741 9.344C143.055 6.968 144.657 4.034 145.503 2.594C147.537 1.406 152.001 1.55 152.235 5.276C152.415 8.192 152.181 16.112 152.001 19.334C148.905 21.35 145.773 19.892 145.629 17.156C145.575 16.058 145.647 15.428 145.719 13.196C145.665 13.196 145.629 13.178 145.575 13.178C145.503 13.286 145.431 13.376 145.359 13.502C144.945 14.15 142.443 18.488 141.813 19.496C138.861 21.404 135.387 19.82 134.955 16.22C134.613 13.322 134.757 4.862 134.847 2.9C136.737 0.866 141.147 1.928 141.399 4.484C141.597 6.518 141.435 7.184 141.435 9.704ZM162.833 1.64C168.971 1.604 171.005 5.798 171.545 7.22C172.391 9.524 172.589 11.864 171.869 14.24C170.897 17.372 168.791 19.352 165.587 20.108C162.995 20.738 160.457 20.54 158.063 19.298C155.777 18.128 154.463 16.202 153.905 13.736C153.365 11.414 153.509 8.75 154.355 6.896C155.489 4.358 157.883 1.658 162.833 1.64ZM162.923 8.084C161.591 8.084 160.403 9.218 160.547 11.36C160.673 13.448 162.059 14.186 162.995 14.114C163.949 14.06 165.119 13.322 165.227 11.288C165.353 9.254 164.201 8.084 162.923 8.084Z" fill="#9D182B"/>
</svg>
