<svg width="196" height="32" viewBox="0 0 196 32" fill="none" xmlns="http://www.w3.org/2000/svg">
<path d="M12.6301 2.714C18.2201 2.714 24.9801 3.65 24.9801 8.668C24.9801 11.294 24.9801 18.756 24.9801 25.438C24.9801 26.374 24.9541 27.648 24.8761 28.246C23.7321 29.546 15.9841 30.508 15.3601 25.698C15.1781 24.346 15.1521 12.62 15.1521 11.476C13.4881 11.476 11.9801 11.476 10.2641 11.476C10.2641 14.05 10.2641 25.516 10.2641 28.246C8.86011 29.572 1.06011 31.028 0.644109 24.554C0.436109 21.668 0.0981094 9.786 0.410109 5.002C3.32211 3.208 9.09411 2.714 12.6301 2.714ZM40.3907 2.48C49.2567 2.428 52.1947 8.486 52.9747 10.54C54.1967 13.868 54.4827 17.248 53.4427 20.68C52.0387 25.204 48.9967 28.064 44.3687 29.156C40.6247 30.066 36.9587 29.78 33.5007 27.986C30.1987 26.296 28.3007 23.514 27.4947 19.952C26.7147 16.598 26.9227 12.75 28.1447 10.072C29.7827 6.406 33.2407 2.506 40.3907 2.48ZM40.5207 11.788C38.5967 11.788 36.8807 13.426 37.0887 16.52C37.2707 19.536 39.2727 20.602 40.6247 20.498C42.0027 20.42 43.6927 19.354 43.8487 16.416C44.0307 13.478 42.3667 11.788 40.5207 11.788ZM81.6418 2.714C87.2318 2.714 93.9918 3.65 93.9918 8.668C93.9918 11.294 93.9918 18.756 93.9918 25.438C93.9918 26.374 93.9658 27.648 93.8878 28.246C92.7438 29.546 84.9958 30.508 84.3718 25.698C84.1898 24.346 84.1638 12.62 84.1638 11.476C82.4998 11.476 80.9918 11.476 79.2758 11.476C79.2758 14.05 79.2758 25.516 79.2758 28.246C77.8718 29.572 70.0718 31.028 69.6558 24.554C69.4478 21.668 69.1098 9.786 69.4218 5.002C72.3338 3.208 78.1058 2.714 81.6418 2.714ZM106.672 17.664C106.646 17.664 106.62 17.664 106.594 17.664C106.62 17.664 106.646 17.664 106.672 17.664ZM116.266 7.888C117.722 11.424 119.724 20.342 120.764 25.932C119.776 29.364 112.106 31.34 110.806 25.36C109.662 19.952 108.726 14.336 108.336 11.268C108.258 11.268 108.18 11.268 108.076 11.268C107.582 13.374 107.088 15.48 106.594 17.664C105.71 21.434 104.644 27.258 104.254 28.662C97.6504 31.08 94.5824 26.894 95.7524 20.81C96.7924 15.428 99.7564 6.692 101.472 3.338C105.19 2.142 113.198 0.452 116.266 7.888ZM122.089 22.994C121.881 19.432 121.985 7.602 122.505 3.208C126.847 2.766 136.649 2.87 141.277 3.234C142.239 4.612 142.915 11.06 136.649 11.06C135.245 11.06 134.647 11.06 131.293 11.06C131.293 11.476 131.293 11.892 131.293 12.412C132.801 12.412 137.091 12.126 139.301 12.828C140.861 16.286 139.665 19.302 135.843 19.484C134.517 19.536 133.737 19.484 131.319 19.484C131.319 20.056 131.319 20.524 131.319 21.07C131.501 21.07 131.709 21.07 131.917 21.07C134.699 21.07 137.481 21.07 140.263 21.07C142.239 23.852 141.563 28.35 136.623 29C134.465 29.286 127.679 29.338 125.807 28.896C123.363 28.272 122.297 26.53 122.089 22.994ZM167.906 8.564C168.4 11.762 168.244 23.592 167.62 28.064C165.436 30.482 159.742 29.624 158.624 23.618C158.598 23.592 158.598 23.566 158.598 23.54C154.542 23.54 151.474 23.384 151.084 23.384C146.014 23.072 144.064 21.616 143.596 17.534C142.998 12.62 142.972 9.708 143.7 4.118C144.844 2.792 152.592 1.83 153.216 6.744C153.372 8.122 153.424 13.504 153.424 14.674C154.438 14.674 156.18 14.648 158.182 14.648C158.156 10.436 158.286 6.016 158.728 4.378C161.12 2.168 166.944 2.168 167.906 8.564ZM179.307 14.128C179.333 14.154 179.359 14.154 179.411 14.18C179.515 13.972 179.645 13.79 179.749 13.608C181.647 10.176 183.961 5.938 185.183 3.858C188.121 2.142 194.569 2.35 194.907 7.732C195.167 11.944 194.829 23.384 194.569 28.038C190.097 30.95 185.573 28.844 185.365 24.892C185.287 23.306 185.391 22.396 185.495 19.172C185.417 19.172 185.365 19.146 185.287 19.146C185.183 19.302 185.079 19.432 184.975 19.614C184.377 20.55 180.763 26.816 179.853 28.272C175.589 31.028 170.571 28.74 169.947 23.54C169.453 19.354 169.661 7.134 169.791 4.3C172.521 1.362 178.891 2.896 179.255 6.588C179.541 9.526 179.307 10.488 179.307 14.128Z" fill="#9D182B"/>
</svg>
