<svg width="113" height="32" viewBox="0 0 113 32" fill="none" xmlns="http://www.w3.org/2000/svg">
<path d="M32.3228 5.47C37.1848 8.642 38.0168 16.65 32.8168 20.472C28.8648 23.358 24.1848 22.214 23.8208 21.954C23.7948 21.954 23.7688 21.954 23.7688 21.954C23.7428 21.954 23.6908 21.98 23.6648 21.98C23.6388 22.006 23.6388 22.032 23.6388 22.032C23.6388 22.5 23.6648 25.75 23.3788 28.506C21.1948 30.82 15.2668 30.248 14.1488 24.502C14.0448 24.06 13.9928 23.124 13.9408 21.902C13.9148 21.876 13.8888 21.876 13.8628 21.85C13.8368 21.85 13.8108 21.85 13.8108 21.876C13.4208 22.11 9.2088 23.358 5.2828 20.472C0.0828008 16.65 0.628801 9.994 4.7108 6.224C9.6768 1.596 26.9928 1.96 32.3228 5.47ZM13.5508 15.012C13.6548 15.012 13.8108 14.83 13.8368 14.726C13.8368 14.18 13.8368 13.608 13.8628 13.062C13.8628 12.75 13.8628 12.412 13.8628 12.022C12.1468 11.008 10.4308 12.178 10.4308 13.244C10.4308 14.232 10.8208 14.778 11.6008 14.934C12.2248 15.038 12.9008 15.012 13.5508 15.012ZM26.4988 14.934C27.2788 14.778 27.6428 14.232 27.6428 13.244C27.6428 12.178 25.9268 11.008 24.2368 12.022C24.2368 13.088 24.2368 13.816 24.2368 14.7C24.2628 14.804 24.4448 15.012 24.5488 15.012C25.1988 15.012 25.8488 15.038 26.4988 14.934ZM48.4122 10.93C48.8802 10.02 51.7402 4.118 52.7542 2.792C56.8622 1.778 62.0622 4.82 59.6962 9.448C58.1102 12.542 49.9202 26.296 47.8662 28.74C42.1982 31.6 37.9342 26.894 40.7422 22.318C42.2502 19.822 42.0422 20.42 42.6402 19.276C42.8222 18.912 42.5622 18.418 42.3542 18.054C40.0402 13.998 37.8302 10.852 35.8022 6.302C37.7002 2.09 43.3162 1.7 44.8242 4.248C46.0462 6.354 46.7482 8.018 47.8402 10.176C47.9442 10.41 48.0742 10.67 48.1782 10.93C48.2562 10.93 48.3342 10.93 48.4122 10.93ZM72.4756 17.664C72.4496 17.664 72.4236 17.664 72.3976 17.664C72.4236 17.664 72.4496 17.664 72.4756 17.664ZM82.0696 7.888C83.5256 11.424 85.5276 20.342 86.5676 25.932C85.5796 29.364 77.9096 31.34 76.6096 25.36C75.4656 19.952 74.5296 14.336 74.1396 11.268C74.0616 11.268 73.9836 11.268 73.8796 11.268C73.3856 13.374 72.8916 15.48 72.3976 17.664C71.5136 21.434 70.4476 27.258 70.0576 28.662C63.4536 31.08 60.3856 26.894 61.5556 20.81C62.5956 15.428 65.5596 6.692 67.2756 3.338C70.9936 2.142 79.0016 0.452 82.0696 7.888ZM98.5264 17.664C98.5004 17.664 98.4744 17.664 98.4484 17.664C98.4744 17.664 98.5004 17.664 98.5264 17.664ZM108.12 7.888C109.576 11.424 111.578 20.342 112.618 25.932C111.63 29.364 103.96 31.34 102.66 25.36C101.516 19.952 100.58 14.336 100.19 11.268C100.112 11.268 100.034 11.268 99.9304 11.268C99.4364 13.374 98.9424 15.48 98.4484 17.664C97.5644 21.434 96.4984 27.258 96.1084 28.662C89.5044 31.08 86.4364 26.894 87.6064 20.81C88.6464 15.428 91.6104 6.692 93.3264 3.338C97.0444 2.142 105.052 0.452 108.12 7.888Z" fill="#9D182B"/>
</svg>
