<svg width="80" height="22" viewBox="0 0 80 22" fill="none" xmlns="http://www.w3.org/2000/svg">
<path d="M20.2604 14.546C21.4664 16.004 21.5924 19.784 17.2724 20.018C12.0524 20.324 6.61636 20.072 6.18436 20.054C2.67436 19.856 1.32436 18.884 0.982363 16.166C0.586363 12.89 0.568363 6.554 1.05436 2.846C1.86436 1.946 7.22836 1.298 7.66036 4.574C7.76836 5.51 7.80436 13.484 7.80436 14.258C8.52436 14.258 9.74836 14.258 11.1704 14.258C11.1704 12.476 11.1704 4.7 11.1704 2.828C12.1604 1.946 17.5424 0.955999 17.8484 5.348C17.9384 6.68 18.0824 10.838 18.0824 14.384C18.9284 14.42 19.6844 14.474 20.2604 14.546ZM22.1527 15.842C22.0087 13.376 22.0807 5.186 22.4407 2.144C25.4467 1.838 32.2327 1.91 35.4367 2.162C36.1027 3.116 36.5707 7.58 32.2327 7.58C31.2607 7.58 30.8467 7.58 28.5247 7.58C28.5247 7.868 28.5247 8.156 28.5247 8.516C29.5687 8.516 32.5387 8.318 34.0687 8.804C35.1487 11.198 34.3207 13.286 31.6747 13.412C30.7567 13.448 30.2167 13.412 28.5427 13.412C28.5427 13.808 28.5427 14.132 28.5427 14.51C28.6687 14.51 28.8127 14.51 28.9567 14.51C30.8827 14.51 32.8087 14.51 34.7347 14.51C36.1027 16.436 35.6347 19.55 32.2147 20C30.7207 20.198 26.0227 20.234 24.7267 19.928C23.0347 19.496 22.2967 18.29 22.1527 15.842ZM43.8638 8.228C45.0518 8.228 46.1678 8.228 47.3198 8.228C47.3738 6.212 47.3378 3.71 47.4998 2.738C49.7138 0.974 54.1058 2.09 54.1058 5.528C54.1058 7.328 54.1058 13.07 54.0878 17.642C54.0878 18.272 54.0698 19.136 54.0338 19.55C53.2238 20.45 47.8598 21.098 47.4458 17.822C47.3198 16.886 47.2838 14.816 47.2838 14.042C46.1318 14.042 45.1058 14.042 43.9178 14.042C43.9178 15.806 43.9178 17.696 43.9178 19.568C42.9278 20.468 37.5458 21.458 37.2398 17.03C37.0958 15.05 36.8798 6.284 37.0958 3.008C39.4898 1.028 43.5398 2.018 43.8098 4.754C43.9718 6.338 43.8638 8.048 43.8638 8.228ZM78.949 5.564C78.283 1.244 74.251 1.244 72.595 2.72C72.001 4.916 72.217 14.69 72.523 16.292C73.297 20.36 77.257 20.936 78.751 19.298C79.183 16.274 79.291 7.724 78.949 5.564ZM62.407 7.454C62.659 7.274 65.899 6.464 68.635 8.498C72.235 11.198 71.533 17.12 68.671 19.028C65.053 21.458 57.475 20.36 55.909 18.83C55.315 16.652 55.513 4.43 55.819 2.828C58.339 0.848001 62.065 2.126 62.209 4.232C62.335 6.104 62.281 7.076 62.281 7.382C62.281 7.4 62.281 7.418 62.299 7.418C62.317 7.436 62.335 7.436 62.371 7.454C62.371 7.454 62.389 7.454 62.407 7.454ZM62.695 14.456C63.865 15.176 65.053 14.348 65.053 13.61C65.053 12.908 64.801 12.512 64.243 12.422C63.811 12.332 63.361 12.35 62.911 12.35C62.839 12.35 62.695 12.494 62.695 12.566C62.677 13.196 62.695 13.7 62.695 14.456Z" fill="#9D182B"/>
</svg>
