<svg width="308" height="62" viewBox="0 0 308 62" fill="none" xmlns="http://www.w3.org/2000/svg">
<path d="M49.1682 60.591C48.8369 59.1237 48.5766 57.68 48.3872 56.26C48.1979 54.84 48.0559 53.6093 47.9612 52.568C45.9259 52.426 43.7012 52.3313 41.2872 52.284C38.8732 52.2367 36.3646 52.213 33.7612 52.213C30.0692 52.213 26.2826 52.2603 22.4012 52.355C18.5672 52.497 14.8989 52.6627 11.3962 52.852C7.89356 53.0887 4.76956 53.3727 2.02422 53.704C1.55089 52.0947 1.19589 50.225 0.959223 48.095C0.769889 45.9177 0.722556 43.7877 0.817223 41.705C0.911889 39.575 1.14856 37.8 1.52722 36.38C2.61589 36.096 3.60989 35.3623 4.50922 34.179C5.40856 32.9483 5.85822 30.913 5.85822 28.073C5.85822 25.659 5.59789 23.7893 5.07722 22.464C4.60389 21.0913 4.05956 20.121 3.44422 19.553C2.82889 18.985 2.28456 18.6773 1.81122 18.63C1.33789 17.068 1.00656 15.222 0.817223 13.092C0.675223 10.9147 0.698889 8.761 0.888223 6.631C1.12489 4.501 1.52722 2.74966 2.09522 1.377C4.31989 1.661 6.82856 1.89767 9.62122 2.087C12.4139 2.229 15.2776 2.3 18.2122 2.3C21.1469 2.3 24.0579 2.20533 26.9452 2.016C29.8326 1.82667 32.3649 1.59 34.5422 1.306C34.8736 2.53666 35.1102 4.217 35.2522 6.347C35.3942 8.477 35.4179 10.678 35.3232 12.95C35.2759 15.222 35.1102 17.1863 34.8262 18.843V32.83H37.4532V18.843C37.1692 17.1863 36.9799 15.222 36.8852 12.95C36.8379 10.678 36.8852 8.477 37.0272 6.347C37.1692 4.217 37.4059 2.53666 37.7372 1.306C39.9146 1.59 42.4469 1.82667 45.3342 2.016C48.2689 2.20533 51.1799 2.3 54.0672 2.3C57.0019 2.3 59.8656 2.229 62.6582 2.087C65.4509 1.89767 67.9596 1.661 70.1842 1.377C70.7996 2.74966 71.2019 4.501 71.3912 6.631C71.5806 8.761 71.6042 10.9147 71.4622 13.092C71.3202 15.222 70.9889 17.068 70.4682 18.63C70.0422 18.6773 69.4979 18.985 68.8352 19.553C68.2199 20.121 67.6519 21.0913 67.1312 22.464C66.6579 23.7893 66.4212 25.659 66.4212 28.073C66.4212 30.8657 67.0602 32.9483 68.3382 34.321C69.6162 35.6463 71.0126 36.3327 72.5272 36.38C72.8586 37.1847 73.1189 38.368 73.3082 39.93C73.5449 41.4447 73.6869 43.1723 73.7342 45.113C73.8289 47.0063 73.8289 48.947 73.7342 50.935C73.6396 52.923 73.4739 54.769 73.2372 56.473C73.0479 58.177 72.7639 59.5497 72.3852 60.591C71.1072 60.875 69.5216 61.0643 67.6282 61.159C65.7349 61.301 63.6996 61.372 61.5222 61.372C59.3922 61.372 57.2386 61.301 55.0612 61.159C52.9312 61.0643 50.9669 60.875 49.1682 60.591ZM106.219 54.414C98.5036 54.414 92.2083 53.349 87.3329 51.219C82.5049 49.0417 78.9549 45.9413 76.6829 41.918C74.4109 37.8947 73.2749 33.043 73.2749 27.363C73.2749 20.831 74.4819 15.577 76.8959 11.601C79.3573 7.625 83.1676 4.73766 88.3269 2.939C93.4863 1.093 100.137 0.169999 108.278 0.169999C114.337 0.169999 119.733 0.808999 124.466 2.087C129.247 3.365 133.01 5.25833 135.755 7.767C138.5 10.2283 139.873 13.2813 139.873 16.926C139.873 18.2513 139.66 19.6003 139.234 20.973C138.855 22.2983 138.051 23.5053 136.82 24.594C135.589 25.6827 133.743 26.5583 131.282 27.221C128.821 27.8837 125.531 28.215 121.413 28.215C118.668 28.215 116.183 28.1913 113.958 28.144C111.781 28.0493 109.769 27.9073 107.923 27.718H104.373V32.972H107.852V30.132C117.887 29.6587 128.489 29.6587 139.66 30.132C139.66 35.386 138.524 39.8117 136.252 43.409C133.98 47.0063 130.406 49.7517 125.531 51.645C120.656 53.491 114.218 54.414 106.219 54.414ZM104.373 24.026H107.852V19.908H104.373V24.026ZM142.499 53.207C142.025 51.6923 141.67 49.8937 141.434 47.811C141.244 45.7283 141.197 43.6457 141.292 41.563C141.386 39.4803 141.623 37.7527 142.002 36.38C143.09 36.096 144.084 35.3623 144.984 34.179C145.883 32.9483 146.333 30.913 146.333 28.073C146.333 25.659 146.072 23.7893 145.552 22.464C145.078 21.0913 144.534 20.121 143.919 19.553C143.303 18.985 142.759 18.6773 142.286 18.63C141.812 17.068 141.481 15.222 141.292 13.092C141.15 10.9147 141.173 8.761 141.363 6.631C141.599 4.501 142.002 2.74966 142.57 1.377C144.794 1.661 147.303 1.89767 150.096 2.087C152.936 2.229 155.918 2.3 159.042 2.3C162.118 2.3 165.124 2.20533 168.059 2.016C170.993 1.82667 173.549 1.59 175.727 1.306C176.058 2.442 176.295 4.004 176.437 5.992C176.579 7.93266 176.602 9.94433 176.508 12.027C176.46 14.1097 176.295 15.9083 176.011 17.423H175.159V20.902H179.49V17.423H178.638C178.354 15.9083 178.165 14.1097 178.07 12.027C178.023 9.94433 178.07 7.93266 178.212 5.992C178.354 4.004 178.59 2.442 178.922 1.306C181.099 1.59 183.655 1.82667 186.59 2.016C189.525 2.20533 192.53 2.3 195.607 2.3C198.731 2.3 201.689 2.229 204.482 2.087C207.322 1.89767 209.854 1.661 212.079 1.377C212.694 2.74966 213.097 4.501 213.286 6.631C213.475 8.761 213.499 10.9147 213.357 13.092C213.215 15.222 212.883 17.068 212.363 18.63C211.937 18.6773 211.393 18.985 210.73 19.553C210.115 20.121 209.547 21.0913 209.026 22.464C208.553 23.7893 208.316 25.659 208.316 28.073C208.316 30.913 208.766 32.9483 209.665 34.179C210.612 35.3623 211.606 36.096 212.647 36.38C213.026 37.7527 213.262 39.4803 213.357 41.563C213.452 43.6457 213.404 45.7283 213.215 47.811C213.026 49.8937 212.671 51.6923 212.15 53.207C211.014 53.065 209.76 52.8993 208.387 52.71C207.014 52.568 205.334 52.426 203.346 52.284C201.405 52.1893 198.92 52.142 195.891 52.142C192.152 52.142 188.862 52.2603 186.022 52.497C183.182 52.7337 180.792 52.9703 178.851 53.207C178.567 52.0237 178.354 50.4617 178.212 48.521C178.07 46.5803 178.023 44.5687 178.07 42.486C178.165 40.4033 178.354 38.6047 178.638 37.09H179.49V33.966H175.159V37.09H176.011C176.342 38.6047 176.531 40.4033 176.579 42.486C176.674 44.5687 176.65 46.5803 176.508 48.521C176.366 50.4617 176.129 52.0237 175.798 53.207C174.662 53.065 173.408 52.8993 172.035 52.71C170.662 52.568 168.982 52.426 166.994 52.284C165.053 52.1893 162.568 52.142 159.539 52.142C155.799 52.142 152.51 52.2603 149.67 52.497C146.83 52.7337 144.439 52.9703 142.499 53.207ZM255.048 53.562C251.546 53.562 248.422 53.5147 245.676 53.42C242.931 53.3253 240.399 53.2307 238.079 53.136C235.76 53.0413 233.464 52.9467 231.192 52.852C228.968 52.8047 226.625 52.8047 224.163 52.852C221.702 52.8993 218.933 53.0177 215.856 53.207C215.383 51.6923 215.028 49.8937 214.791 47.811C214.602 45.7283 214.555 43.6457 214.649 41.563C214.744 39.4803 214.981 37.7527 215.359 36.38C216.448 36.096 217.442 35.3623 218.341 34.179C219.241 32.9483 219.69 30.913 219.69 28.073C219.69 25.659 219.43 23.7893 218.909 22.464C218.436 21.0913 217.892 20.121 217.276 19.553C216.661 18.985 216.117 18.6773 215.643 18.63C215.17 17.068 214.839 15.222 214.649 13.092C214.507 10.9147 214.531 8.761 214.72 6.631C214.957 4.501 215.359 2.74966 215.927 1.377C217.489 1.661 219.714 1.945 222.601 2.229C225.489 2.46566 228.518 2.584 231.689 2.584C235.807 2.584 239.452 2.46566 242.623 2.229C245.842 1.99233 248.351 1.77933 250.149 1.59C250.623 3.578 250.93 5.211 251.072 6.489C251.262 7.71967 251.285 8.903 251.143 10.039C251.049 11.175 250.788 12.595 250.362 14.299C249.084 14.9617 247.854 15.719 246.67 16.571C245.534 17.3757 244.469 18.2277 243.475 19.127L244.895 20.618C247.309 18.488 249.889 16.8313 252.634 15.648C255.427 14.4173 258.409 13.802 261.58 13.802C264.278 13.802 266.74 14.157 268.964 14.867C271.189 15.577 273.106 16.6893 274.715 18.204L276.135 16.642C273.627 14.3227 270.361 12.808 266.337 12.098C266.29 10.1573 266.385 8.193 266.621 6.205C266.858 4.217 267.237 2.60766 267.757 1.377C269.225 1.47166 271.047 1.61367 273.224 1.803C275.449 1.99233 277.816 2.158 280.324 2.3C282.88 2.39466 285.389 2.442 287.85 2.442C291.779 2.442 295.234 2.32367 298.216 2.087C301.246 1.85033 303.802 1.61367 305.884 1.377C306.5 2.74966 306.902 4.501 307.091 6.631C307.281 8.761 307.304 10.9147 307.162 13.092C307.02 15.222 306.689 17.068 306.168 18.63C305.742 18.6773 305.198 18.985 304.535 19.553C303.92 20.121 303.352 21.0913 302.831 22.464C302.358 23.7893 302.121 25.659 302.121 28.073C302.121 30.913 302.571 32.9483 303.47 34.179C304.417 35.3623 305.411 36.096 306.452 36.38C306.831 37.7527 307.068 39.4803 307.162 41.563C307.257 43.6457 307.21 45.7283 307.02 47.811C306.831 49.8937 306.476 51.6923 305.955 53.207C304.63 53.065 302.902 52.8993 300.772 52.71C298.642 52.568 296.347 52.426 293.885 52.284C291.424 52.1893 288.963 52.142 286.501 52.142C283.993 52.142 281.413 52.213 278.762 52.355C276.159 52.5443 273.816 52.71 271.733 52.852C273.011 51.9527 274.1 50.793 274.999 49.373C275.899 47.9057 276.443 46.0833 276.632 43.906C274.881 47.5033 272.112 50.012 268.325 51.432C264.586 52.852 260.16 53.562 255.048 53.562ZM247.167 34.321H251.356V29.706H247.167V34.321Z" fill="#9D182B"/>
</svg>
