<svg width="238" height="40" viewBox="0 0 238 40" fill="none" xmlns="http://www.w3.org/2000/svg">
<path d="M31.85 10.324C32.4707 14.342 32.2747 29.2053 31.4907 34.824C28.7467 37.862 21.5927 36.784 20.188 29.238C20.1553 29.2053 20.1553 29.1727 20.1553 29.14C15.0593 29.14 11.2047 28.944 10.7147 28.944C4.34467 28.552 1.89467 26.7227 1.30667 21.594C0.555333 15.42 0.522667 11.7613 1.43733 4.738C2.87467 3.072 12.6093 1.86333 13.3933 8.03733C13.5893 9.76867 13.6547 16.5307 13.6547 18.0007C14.9287 18.0007 17.1173 17.968 19.6327 17.968C19.6 12.676 19.7633 7.12267 20.3187 5.06467C23.324 2.288 30.6413 2.288 31.85 10.324ZM46.1754 17.3147C46.208 17.3473 46.2407 17.3473 46.306 17.38C46.4367 17.1187 46.6 16.89 46.7307 16.6613C49.1154 12.3493 52.0227 7.02467 53.558 4.41133C57.2494 2.25533 65.3507 2.51667 65.7754 9.27867C66.102 14.5707 65.6774 28.944 65.3507 34.7913C59.732 38.45 54.048 35.804 53.7867 30.8387C53.6887 28.846 53.8194 27.7027 53.95 23.652C53.852 23.652 53.7867 23.6193 53.6887 23.6193C53.558 23.8153 53.4274 23.9787 53.2967 24.2073C52.5454 25.3833 48.0047 33.256 46.8614 35.0853C41.504 38.548 35.1994 35.6733 34.4154 29.14C33.7947 23.8807 34.056 8.52733 34.2194 4.96667C37.6494 1.27533 45.6527 3.20267 46.11 7.84133C46.4694 11.5327 46.1754 12.7413 46.1754 17.3147ZM90.0723 16.008C96.1483 20.5487 94.5477 29.9567 90.1377 33.7787C86.5443 36.882 77.855 37.3393 73.7717 34.726C70.505 32.6353 68.8063 29.5973 68.349 25.0893C67.467 16.792 68.447 7.384 68.9043 3.43133C74.0983 2.94133 85.3357 3.072 90.889 3.464C92.0323 5.13 92.8163 12.4473 85.3357 12.4473C83.7023 12.4473 82.9837 12.4473 79.3577 12.4473C79.3577 13.1007 79.3577 13.9827 79.3577 14.146C79.3577 14.1787 79.3903 14.1787 79.423 14.2113C79.4557 14.2113 79.4883 14.244 79.521 14.244C79.5537 14.244 79.5537 14.244 79.5863 14.244C80.0437 13.95 85.499 12.578 90.0723 16.008ZM80.0763 26.0693C82.069 27.278 83.8983 26.3307 84.0617 24.632C84.2577 22.4107 81.9383 21.202 80.109 22.868C80.011 23.7827 79.8803 24.9587 80.0763 26.0693ZM107.856 17.3147C107.889 17.3473 107.921 17.3473 107.987 17.38C108.117 17.1187 108.281 16.89 108.411 16.6613C110.796 12.3493 113.703 7.02467 115.239 4.41133C118.93 2.25533 127.031 2.51667 127.456 9.27867C127.783 14.5707 127.358 28.944 127.031 34.7913C121.413 38.45 115.729 35.804 115.467 30.8387C115.369 28.846 115.5 27.7027 115.631 23.652C115.533 23.652 115.467 23.6193 115.369 23.6193C115.239 23.8153 115.108 23.9787 114.977 24.2073C114.226 25.3833 109.685 33.256 108.542 35.0853C103.185 38.548 96.88 35.6733 96.096 29.14C95.4754 23.8807 95.7367 8.52733 95.9 4.96667C99.33 1.27533 107.333 3.20267 107.791 7.84133C108.15 11.5327 107.856 12.7413 107.856 17.3147ZM145.772 25.5467C147.046 18.9807 150.639 8.266 152.73 4.18267C157.205 2.71267 166.94 0.654667 170.664 9.736C172.428 14.048 175.825 24.9587 177.067 31.8187C176.609 35.3793 166.646 39.43 164.065 30.4793C162.007 30.3813 159.721 30.512 157.63 30.4467C157.075 31.8187 156.552 33.452 156.095 35.1507C148.059 38.0907 144.367 32.962 145.772 25.5467ZM158.904 21.692C160.309 21.692 161.583 21.692 162.922 21.692C162.301 19.046 161.648 16.4653 161.027 13.852C160.929 13.8847 160.831 13.8847 160.733 13.8847C160.145 16.4653 159.525 19.0133 158.904 21.692ZM201.29 24.5993C196.325 28.3233 190.478 26.8207 189.988 26.5267C189.955 26.494 189.955 26.494 189.922 26.5267C189.89 26.5267 189.824 26.5593 189.792 26.5593C189.759 26.5593 189.759 26.592 189.759 26.6247C189.759 27.2127 189.792 31.394 189.432 34.8893C186.688 37.862 179.24 37.1433 177.836 29.7607C177.28 26.8533 177.15 9.80133 178.195 5.84867C181.037 3.10467 194.79 1.07934 201.356 5.48933C206.55 8.98467 207.824 19.732 201.29 24.5993ZM194.79 15.3547C194.79 13.9827 192.666 12.5127 190.51 13.7867C190.51 15.1587 190.51 16.106 190.543 17.2167C190.543 17.38 190.772 17.6087 190.902 17.6087C191.719 17.6087 192.536 17.6413 193.352 17.5107C194.332 17.3147 194.79 16.6287 194.79 15.3547ZM234.923 3.79067C236.654 6.012 237.471 14.048 230.121 14.4727C228.978 14.538 228.161 14.6033 228.03 14.6033C228.259 20.5487 227.998 30.5447 227.377 34.922C224.633 37.8947 217.479 36.8167 216.042 29.4667C215.715 27.67 215.454 20.6467 215.519 14.6033C213.363 14.734 210.946 14.7667 208.822 14.3747C206.732 11.7287 207.189 4.248 213.396 3.88867C217.512 3.62733 231.199 3.82333 234.923 3.79067Z" fill="#9D182B"/>
</svg>
