<svg width="447" height="37" viewBox="0 0 447 37" fill="none" xmlns="http://www.w3.org/2000/svg">
<path d="M32.8074 20.888C33.6134 22.448 33.5614 29.546 33.0934 32.432C31.3514 34.59 24.8254 35.188 24.6174 28.948C24.3574 28.948 24.1234 28.922 23.8894 28.896C20.1974 29.052 14.3214 29.156 9.82337 29.104C9.87538 30.326 9.97938 31.704 9.90137 33.472C5.87137 36.098 1.26938 34.512 1.03537 28.584C0.957375 26.504 0.905375 21.798 6.07937 20.446C7.14537 15.246 9.82337 7.264 11.4094 4.17C14.9454 3 22.5634 1.388 25.5014 8.512C26.4634 10.852 27.6594 15.662 28.6474 20.186C30.3374 20.368 31.7934 20.602 32.8074 20.888ZM15.8554 19.796C16.9474 19.77 18.0914 19.77 19.2354 19.77C18.6374 16.572 18.1954 13.634 17.9354 11.762C17.8574 11.762 17.7794 11.762 17.7014 11.762C17.2334 13.764 16.7654 15.792 16.2714 17.872C16.1414 18.47 16.0114 19.12 15.8554 19.796ZM46.5391 2.48C55.4051 2.428 58.3431 8.486 59.1231 10.54C60.3451 13.868 60.6311 17.248 59.5911 20.68C58.1871 25.204 55.1451 28.064 50.5171 29.156C46.7731 30.066 43.1071 29.78 39.6491 27.986C36.3471 26.296 34.4491 23.514 33.6431 19.952C32.8631 16.598 33.0711 12.75 34.2931 10.072C35.9311 6.406 39.3891 2.506 46.5391 2.48ZM46.6691 11.788C44.7451 11.788 43.0291 13.426 43.2371 16.52C43.4191 19.536 45.4211 20.602 46.7731 20.498C48.1511 20.42 49.8411 19.354 49.9971 16.416C50.1791 13.478 48.5151 11.788 46.6691 11.788ZM74.6887 2.714C80.2787 2.714 87.0387 3.65 87.0387 8.668C87.0387 11.294 87.0387 18.756 87.0387 25.438C87.0387 26.374 87.0127 27.648 86.9347 28.246C85.7907 29.546 78.0427 30.508 77.4187 25.698C77.2367 24.346 77.2107 12.62 77.2107 11.476C75.5467 11.476 74.0387 11.476 72.3227 11.476C72.3227 14.05 72.3227 25.516 72.3227 28.246C70.9187 29.572 63.1187 31.028 62.7027 24.554C62.4947 21.668 62.1567 9.786 62.4687 5.002C65.3807 3.208 71.1527 2.714 74.6887 2.714ZM114.641 2.714C120.231 2.714 126.991 3.65 126.991 8.668C126.991 11.294 126.991 18.756 126.991 25.438C126.991 26.374 126.965 27.648 126.887 28.246C125.743 29.546 117.995 30.508 117.371 25.698C117.189 24.346 117.163 12.62 117.163 11.476C115.499 11.476 113.991 11.476 112.275 11.476C112.275 14.05 112.275 25.516 112.275 28.246C110.871 29.572 103.071 31.028 102.655 24.554C102.447 21.668 102.109 9.786 102.421 5.002C105.333 3.208 111.105 2.714 114.641 2.714ZM129.037 22.994C128.829 19.432 128.933 7.602 129.453 3.208C133.795 2.766 143.597 2.87 148.225 3.234C149.187 4.612 149.863 11.06 143.597 11.06C142.193 11.06 141.595 11.06 138.241 11.06C138.241 11.476 138.241 11.892 138.241 12.412C139.749 12.412 144.039 12.126 146.249 12.828C147.809 16.286 146.613 19.302 142.791 19.484C141.465 19.536 140.685 19.484 138.267 19.484C138.267 20.056 138.267 20.524 138.267 21.07C138.449 21.07 138.657 21.07 138.865 21.07C141.647 21.07 144.429 21.07 147.211 21.07C149.187 23.852 148.511 28.35 143.571 29C141.413 29.286 134.627 29.338 132.755 28.896C130.311 28.272 129.245 26.53 129.037 22.994ZM169.368 19.926C165.416 22.89 160.762 21.694 160.372 21.46C160.346 21.434 160.346 21.434 160.32 21.46C160.294 21.46 160.242 21.486 160.216 21.486C160.19 21.486 160.19 21.512 160.19 21.538C160.19 22.006 160.216 25.334 159.93 28.116C157.746 30.482 151.818 29.91 150.7 24.034C150.258 21.72 150.154 8.148 150.986 5.002C153.248 2.818 164.194 1.206 169.42 4.716C173.554 7.498 174.568 16.052 169.368 19.926ZM164.194 12.568C164.194 11.476 162.504 10.306 160.788 11.32C160.788 12.412 160.788 13.166 160.814 14.05C160.814 14.18 160.996 14.362 161.1 14.362C161.75 14.362 162.4 14.388 163.05 14.284C163.83 14.128 164.194 13.582 164.194 12.568ZM190.361 11.138C188.827 10.722 187.553 10.852 186.279 11.502C184.459 12.412 183.939 14.622 184.225 16.598C184.641 19.718 187.319 20.81 189.945 20.42C191.713 20.186 193.949 18.73 194.599 18.366C198.213 19.016 200.605 25.282 193.949 28.402C191.219 29.676 186.669 29.546 183.731 28.766C179.207 27.596 176.399 24.71 175.099 20.342C174.241 17.274 174.163 14.154 175.203 11.138C176.373 7.68 179.207 5.08 181.937 3.858C185.395 2.298 191.557 1.726 197.095 4.924C198.421 9.89 193.793 12.516 190.361 11.138ZM212.061 2.48C220.927 2.428 223.865 8.486 224.645 10.54C225.867 13.868 226.153 17.248 225.113 20.68C223.709 25.204 220.667 28.064 216.039 29.156C212.295 30.066 208.629 29.78 205.171 27.986C201.869 26.296 199.971 23.514 199.165 19.952C198.385 16.598 198.593 12.75 199.815 10.072C201.453 6.406 204.911 2.506 212.061 2.48ZM212.191 11.788C210.267 11.788 208.551 13.426 208.759 16.52C208.941 19.536 210.943 20.602 212.295 20.498C213.673 20.42 215.363 19.354 215.519 16.416C215.701 13.478 214.037 11.788 212.191 11.788ZM237.331 11.996C239.047 11.996 240.66 11.996 242.323 11.996C242.401 9.084 242.349 5.47 242.584 4.066C245.781 1.518 252.126 3.13 252.126 8.096C252.126 10.696 252.126 18.99 252.099 25.594C252.099 26.504 252.073 27.752 252.022 28.35C250.851 29.65 243.103 30.586 242.506 25.854C242.323 24.502 242.271 21.512 242.271 20.394C240.607 20.394 239.125 20.394 237.409 20.394C237.409 22.942 237.409 25.672 237.409 28.376C235.979 29.676 228.205 31.106 227.763 24.71C227.555 21.85 227.243 9.188 227.555 4.456C231.013 1.596 236.863 3.026 237.253 6.978C237.487 9.266 237.331 11.736 237.331 11.996ZM253.872 20.68C254.886 15.454 257.746 6.926 259.41 3.676C262.972 2.506 270.72 0.868 273.684 8.096C275.088 11.528 277.792 20.212 278.78 25.672C278.416 28.506 270.486 31.73 268.432 24.606C266.794 24.528 264.974 24.632 263.31 24.58C262.868 25.672 262.452 26.972 262.088 28.324C255.692 30.664 252.754 26.582 253.872 20.68ZM264.324 17.612C265.442 17.612 266.456 17.612 267.522 17.612C267.028 15.506 266.508 13.452 266.014 11.372C265.936 11.398 265.858 11.398 265.78 11.398C265.312 13.452 264.818 15.48 264.324 17.612ZM309.364 16.65C310.222 18.522 312.432 22.526 313.446 25.126C313.238 28.818 306.998 32.146 303.904 26.27C303.28 25.126 302.266 22.682 301.356 20.524C301.252 23.436 301.044 26.192 300.81 27.882C298.574 30.274 292.802 29.364 291.71 23.41C291.58 22.786 291.476 21.356 291.424 19.536C290.02 22.812 287.914 27.7 287.42 28.844C280.244 30.612 279.23 25.412 279.854 23.202C280.634 20.524 282.168 18.522 283.052 16.676C283.156 16.468 283.104 16.104 283 15.896C281.544 12.854 280.062 9.812 278.606 6.77C279.178 3.104 285.86 1.362 287.706 4.846C289.032 7.342 290.384 10.514 291.346 12.932C291.372 9.266 291.554 5.756 291.944 4.326C294.414 2.168 300.316 2.194 301.252 8.564C301.356 9.344 301.434 10.618 301.46 12.178C302.682 9.422 304.372 5.86 306.14 3.026C309.364 1.856 314.382 4.352 312.692 9.24C311.938 11.45 310.716 13.192 309.416 15.87C309.312 16.104 309.26 16.442 309.364 16.65ZM349.833 11.736C352.251 13.972 351.393 19.822 345.361 20.992C345.231 21.018 345.049 21.044 344.867 21.07C344.815 23.228 344.659 25.178 344.347 26.296C341.877 28.48 335.897 28.506 334.909 22.084C334.883 21.876 334.857 21.642 334.831 21.382C332.725 21.33 330.853 21.174 329.761 20.888C327.551 18.418 327.551 12.438 333.973 11.45C334.207 11.398 334.467 11.372 334.753 11.346C334.857 9.448 335.013 7.654 335.221 6.224C337.431 3.806 343.281 4.664 344.451 10.67C344.477 10.852 344.503 11.034 344.529 11.268C346.505 11.372 348.351 11.528 349.833 11.736ZM360.222 12.386C359 12.75 358.48 13.192 356.738 13.686C353.254 13.166 351.096 7.55 355.88 5.418C358.506 4.274 362.068 2.974 363.186 2.662C365.526 1.934 369.192 2.766 369.192 6.224C369.192 13.504 368.906 20.81 368.984 28.064C364.928 31.132 360.118 29.078 359.936 25.282C359.728 21.434 360.196 15.324 360.248 12.542C360.248 12.516 360.248 12.464 360.222 12.386ZM392.012 17.352C392.012 18.782 391.804 21.044 391.076 23.202C389.776 26.972 387.202 29.156 383.198 29.598C381.378 29.806 379.532 29.728 377.764 29.234C374.696 28.428 372.798 26.426 371.888 23.488C370.9 20.42 370.796 17.274 371.004 14.128C371.134 11.996 371.524 9.916 372.434 7.94C373.838 4.898 376.23 3.182 379.558 2.74C381.638 2.454 383.692 2.61 385.668 3.364C388.294 4.43 389.932 6.458 390.92 9.058C391.752 11.45 392.012 13.946 392.012 17.352ZM382.99 16.572C382.86 15.246 382.782 13.92 382.626 12.698C382.47 11.58 382.002 11.06 381.248 11.034C380.52 11.034 380 11.476 379.766 12.542C379.298 14.544 379.376 16.546 379.506 18.548C379.558 19.328 379.74 20.16 380.026 20.888C380.39 21.824 381.508 21.902 382.132 21.122C382.392 20.836 382.548 20.498 382.6 20.134C382.756 18.938 382.86 17.69 382.99 16.572ZM414.825 17.352C414.825 18.782 414.617 21.044 413.889 23.202C412.589 26.972 410.015 29.156 406.011 29.598C404.191 29.806 402.345 29.728 400.577 29.234C397.509 28.428 395.611 26.426 394.701 23.488C393.713 20.42 393.609 17.274 393.817 14.128C393.947 11.996 394.337 9.916 395.247 7.94C396.651 4.898 399.043 3.182 402.371 2.74C404.451 2.454 406.505 2.61 408.481 3.364C411.107 4.43 412.745 6.458 413.733 9.058C414.565 11.45 414.825 13.946 414.825 17.352ZM405.803 16.572C405.673 15.246 405.595 13.92 405.439 12.698C405.283 11.58 404.815 11.06 404.061 11.034C403.333 11.034 402.813 11.476 402.579 12.542C402.111 14.544 402.189 16.546 402.319 18.548C402.371 19.328 402.553 20.16 402.839 20.888C403.203 21.824 404.321 21.902 404.945 21.122C405.205 20.836 405.361 20.498 405.413 20.134C405.569 18.938 405.673 17.69 405.803 16.572ZM423.885 26.14C424.353 25.126 424.405 25.048 424.873 24.112C428.487 17.196 433.063 6.952 436.365 2.09C439.225 1.44 440.863 3.78 439.953 5.782C439.225 7.394 429.371 27.362 427.759 29.858C424.925 31.106 422.689 28.74 423.885 26.14ZM423.209 17.04C419.959 16.858 417.931 15.506 417.073 12.932C416.579 11.372 416.553 9.76 416.761 8.174C417.437 3.702 421.077 2.584 424.431 3C427.681 3.442 429.709 5.756 429.813 9.058C429.839 10.28 429.709 11.554 429.371 12.776C428.487 15.636 426.173 17.144 423.209 17.04ZM421.831 9.682C421.831 10.8 422.273 11.684 423.209 11.684C424.249 11.684 424.613 11.008 424.613 9.63C424.613 9.006 424.379 7.914 423.313 7.914C422.403 7.914 421.805 8.616 421.831 9.682ZM440.317 29.52C437.041 29.39 435.039 28.064 434.207 25.464C433.687 23.878 433.661 22.266 433.895 20.68C434.571 16.208 438.185 15.09 441.539 15.506C444.789 15.948 446.843 18.262 446.921 21.59C446.921 22.812 446.817 24.086 446.479 25.282C445.621 28.142 443.307 29.676 440.317 29.52ZM438.939 22.188C438.939 23.332 439.407 24.164 440.317 24.164C441.383 24.164 441.721 23.514 441.721 22.162C441.721 21.538 441.487 20.446 440.447 20.446C439.511 20.446 438.913 21.148 438.939 22.188Z" fill="#F2E0D2"/>
</svg>
