<svg width="433" height="45" viewBox="0 0 433 45" fill="none" xmlns="http://www.w3.org/2000/svg">
<path d="M40.7875 25.808C41.8002 27.768 41.7349 36.686 41.1469 40.312C38.9582 43.0233 30.7589 43.7747 30.4975 35.9347C30.1709 35.9347 29.8769 35.902 29.5829 35.8693C24.9442 36.0653 17.5615 36.196 11.9102 36.1307C11.9755 37.666 12.1062 39.3973 12.0082 41.6187C6.94486 44.918 1.16286 42.9253 0.868865 35.4773C0.770865 32.864 0.705531 26.9513 7.2062 25.2527C8.54553 18.7193 11.9102 8.69067 13.9029 4.80333C18.3455 3.33333 27.9169 1.308 31.6082 10.2587C32.8169 13.1987 34.3195 19.242 35.5609 24.926C37.6842 25.1547 39.5135 25.4487 40.7875 25.808ZM19.4889 24.436C20.8609 24.4033 22.2982 24.4033 23.7355 24.4033C22.9842 20.3853 22.4289 16.694 22.1022 14.342C22.0042 14.342 21.9062 14.342 21.8082 14.342C21.2202 16.8573 20.6322 19.4053 20.0115 22.0187C19.8482 22.77 19.6849 23.5867 19.4889 24.436ZM58.0403 2.68C69.1796 2.61467 72.8709 10.226 73.8509 12.8067C75.3863 16.988 75.7456 21.2347 74.4389 25.5467C72.6749 31.2307 68.8529 34.824 63.0383 36.196C58.3343 37.3393 53.7283 36.98 49.3836 34.726C45.2349 32.6027 42.8503 29.1073 41.8376 24.632C40.8576 20.418 41.1189 15.5833 42.6543 12.2187C44.7123 7.61267 49.0569 2.71267 58.0403 2.68ZM58.2036 14.3747C55.7863 14.3747 53.6303 16.4327 53.8916 20.32C54.1203 24.1093 56.6356 25.4487 58.3343 25.318C60.0656 25.22 62.1889 23.8807 62.3849 20.1893C62.6136 16.498 60.5229 14.3747 58.2036 14.3747ZM93.4077 2.974C100.431 2.974 108.924 4.15 108.924 10.4547C108.924 13.754 108.924 23.1293 108.924 31.5247C108.924 32.7007 108.892 34.3013 108.794 35.0527C107.356 36.686 97.6217 37.8947 96.8377 31.8513C96.609 30.1527 96.5763 15.42 96.5763 13.9827C94.4857 13.9827 92.591 13.9827 90.435 13.9827C90.435 17.2167 90.435 31.6227 90.435 35.0527C88.671 36.7187 78.871 38.548 78.3483 30.414C78.087 26.788 77.6623 11.8593 78.0543 5.84867C81.713 3.59467 88.965 2.974 93.4077 2.974ZM128.286 2.68C139.426 2.61467 143.117 10.226 144.097 12.8067C145.632 16.988 145.992 21.2347 144.685 25.5467C142.921 31.2307 139.099 34.824 133.284 36.196C128.58 37.3393 123.974 36.98 119.63 34.726C115.481 32.6027 113.096 29.1073 112.084 24.632C111.104 20.418 111.365 15.5833 112.9 12.2187C114.958 7.61267 119.303 2.71267 128.286 2.68ZM128.45 14.3747C126.032 14.3747 123.876 16.4327 124.138 20.32C124.366 24.1093 126.882 25.4487 128.58 25.318C130.312 25.22 132.435 23.8807 132.631 20.1893C132.86 16.498 130.769 14.3747 128.45 14.3747ZM161.367 21.7573C161.334 21.7573 161.302 21.7573 161.269 21.7573C161.302 21.7573 161.334 21.7573 161.367 21.7573ZM173.421 9.47467C175.25 13.9173 177.766 25.122 179.072 32.1453C177.831 36.4573 168.194 38.94 166.561 31.4267C165.124 24.632 163.948 17.576 163.458 13.7213C163.36 13.7213 163.262 13.7213 163.131 13.7213C162.51 16.3673 161.89 19.0133 161.269 21.7573C160.158 26.494 158.819 33.8113 158.329 35.5753C150.032 38.6133 146.177 33.354 147.647 25.71C148.954 18.948 152.678 7.972 154.834 3.758C159.505 2.25533 169.566 0.132 173.421 9.47467ZM192.002 14.636C194.158 14.636 196.183 14.636 198.274 14.636C198.372 10.9773 198.306 6.43667 198.6 4.67267C202.618 1.47133 210.589 3.49667 210.589 9.736C210.589 13.0027 210.589 23.4233 210.556 31.7207C210.556 32.864 210.524 34.432 210.458 35.1833C208.988 36.8167 199.254 37.9927 198.502 32.0473C198.274 30.3487 198.208 26.592 198.208 25.1873C196.118 25.1873 194.256 25.1873 192.1 25.1873C192.1 28.3887 192.1 31.8187 192.1 35.216C190.303 36.8493 180.536 38.646 179.98 30.61C179.719 27.0167 179.327 11.108 179.719 5.16267C184.064 1.56933 191.414 3.366 191.904 8.33133C192.198 11.206 192.002 14.3093 192.002 14.636ZM224.968 17.3147C225.001 17.3473 225.034 17.3473 225.099 17.38C225.23 17.1187 225.393 16.89 225.524 16.6613C227.908 12.3493 230.816 7.02467 232.351 4.41133C236.042 2.25533 244.144 2.51667 244.568 9.27867C244.895 14.5707 244.47 28.944 244.144 34.7913C238.525 38.45 232.841 35.804 232.58 30.8387C232.482 28.846 232.612 27.7027 232.743 23.652C232.645 23.652 232.58 23.6193 232.482 23.6193C232.351 23.8153 232.22 23.9787 232.09 24.2073C231.338 25.3833 226.798 33.256 225.654 35.0853C220.297 38.548 213.992 35.6733 213.208 29.14C212.588 23.8807 212.849 8.52733 213.012 4.96667C216.442 1.27533 224.446 3.20267 224.903 7.84133C225.262 11.5327 224.968 12.7413 224.968 17.3147ZM273.798 3.79067C275.529 6.012 276.346 14.048 268.996 14.4727C267.853 14.538 267.036 14.6033 266.905 14.6033C267.134 20.5487 266.873 30.5447 266.252 34.922C263.508 37.8947 256.354 36.8167 254.917 29.4667C254.59 27.67 254.329 20.6467 254.394 14.6033C252.238 14.734 249.821 14.7667 247.697 14.3747C245.607 11.7287 246.064 4.248 252.271 3.88867C256.387 3.62733 270.074 3.82333 273.798 3.79067ZM276.919 28.454C276.657 23.9787 276.788 9.11533 277.441 3.59467C282.897 3.03933 295.212 3.17 301.027 3.62733C302.235 5.35867 303.085 13.46 295.212 13.46C293.448 13.46 292.697 13.46 288.483 13.46C288.483 13.9827 288.483 14.5053 288.483 15.1587C290.377 15.1587 295.767 14.7993 298.544 15.6813C300.504 20.026 299.001 23.8153 294.199 24.044C292.533 24.1093 291.553 24.044 288.515 24.044C288.515 24.7627 288.515 25.3507 288.515 26.0367C288.744 26.0367 289.005 26.0367 289.267 26.0367C292.762 26.0367 296.257 26.0367 299.753 26.0367C302.235 29.532 301.386 35.1833 295.179 36C292.468 36.3593 283.942 36.4247 281.59 35.8693C278.519 35.0853 277.18 32.8967 276.919 28.454ZM316.502 21.7573C316.469 21.7573 316.437 21.7573 316.404 21.7573C316.437 21.7573 316.469 21.7573 316.502 21.7573ZM328.556 9.47467C330.385 13.9173 332.901 25.122 334.207 32.1453C332.966 36.4573 323.329 38.94 321.696 31.4267C320.259 24.632 319.083 17.576 318.593 13.7213C318.495 13.7213 318.397 13.7213 318.266 13.7213C317.645 16.3673 317.025 19.0133 316.404 21.7573C315.293 26.494 313.954 33.8113 313.464 35.5753C305.167 38.6133 301.312 33.354 302.782 25.71C304.089 18.948 307.813 7.972 309.969 3.758C314.64 2.25533 324.701 0.132 328.556 9.47467ZM347.837 12.97C348.327 12.676 354.207 11.1733 359.14 14.8973C365.673 19.7973 364.399 30.512 359.205 34.0073C352.672 38.4173 338.886 36.392 336.044 33.648C334.999 29.6953 335.326 7.51467 335.881 4.60733C340.454 1.014 347.249 3.33333 347.51 7.15533C347.739 10.5527 347.608 12.284 347.608 12.872C347.608 12.9047 347.641 12.9373 347.641 12.9373C347.706 12.97 347.739 12.97 347.772 13.0027C347.804 13.0027 347.837 13.0027 347.837 12.97ZM348.36 25.71C350.516 27.0167 352.639 25.514 352.639 24.142C352.639 22.868 352.182 22.182 351.202 21.986C350.418 21.8553 349.568 21.888 348.752 21.888C348.621 21.888 348.392 22.1493 348.392 22.28C348.36 23.4233 348.36 24.338 348.36 25.71ZM377.522 14.636C379.678 14.636 381.704 14.636 383.794 14.636C383.892 10.9773 383.827 6.43667 384.121 4.67267C388.139 1.47133 396.11 3.49667 396.11 9.736C396.11 13.0027 396.11 23.4233 396.077 31.7207C396.077 32.864 396.044 34.432 395.979 35.1833C394.509 36.8167 384.774 37.9927 384.023 32.0473C383.794 30.3487 383.729 26.592 383.729 25.1873C381.638 25.1873 379.776 25.1873 377.62 25.1873C377.62 28.3887 377.62 31.8187 377.62 35.216C375.824 36.8493 366.056 38.646 365.501 30.61C365.24 27.0167 364.848 11.108 365.24 5.16267C369.584 1.56933 376.934 3.366 377.424 8.33133C377.718 11.206 377.522 14.3093 377.522 14.636ZM414.534 2.68C425.674 2.61467 429.365 10.226 430.345 12.8067C431.88 16.988 432.24 21.2347 430.933 25.5467C429.169 31.2307 425.347 34.824 419.532 36.196C414.828 37.3393 410.222 36.98 405.878 34.726C401.729 32.6027 399.344 29.1073 398.332 24.632C397.352 20.418 397.613 15.5833 399.148 12.2187C401.206 7.61267 405.551 2.71267 414.534 2.68ZM414.698 14.3747C412.28 14.3747 410.124 16.4327 410.386 20.32C410.614 24.1093 413.13 25.4487 414.828 25.318C416.56 25.22 418.683 23.8807 418.879 20.1893C419.108 16.498 417.017 14.3747 414.698 14.3747Z" fill="#F2E0D2"/>
</svg>
