<svg width="139" height="23" viewBox="0 0 139 23" fill="none" xmlns="http://www.w3.org/2000/svg">
<path d="M15.4323 10.316C18.5283 12.53 17.0883 18.218 13.6863 19.586C11.3283 20.54 5.74829 20.972 2.49029 18.344C0.762289 16.166 2.77829 12.53 5.71229 13.952C8.25029 15.212 9.85229 15.032 10.1403 13.934C10.4643 12.71 9.49229 12.368 7.00829 12.44C5.58629 11.684 5.24429 8.354 7.96229 8.3C9.67229 8.282 10.1583 8.21 10.1403 7.562C10.1223 5.996 6.72029 6.986 5.29829 7.904C3.62429 7.112 2.59829 3.368 5.08229 2.378C7.53029 1.406 10.2663 1.604 11.7063 2.054C15.9543 3.368 16.3683 6.734 16.1883 8.246C16.0803 9.038 15.8463 9.74 15.4323 10.316ZM18.2837 14.438C19.0217 10.676 21.0737 4.574 22.2797 2.252C24.8177 1.388 30.3797 0.218 32.5217 5.402C33.5117 7.868 35.4557 14.096 36.1577 18.02C35.9057 20.054 30.2177 22.358 28.7417 17.246C27.5717 17.192 26.2577 17.264 25.0697 17.228C24.7457 18.02 24.4397 18.956 24.1877 19.91C19.5977 21.584 17.5097 18.668 18.2837 14.438ZM25.7897 12.242C26.5997 12.242 27.3377 12.242 28.0937 12.242C27.7157 10.73 27.3557 9.236 27.0137 7.76C26.9417 7.778 26.8877 7.778 26.8337 7.778C26.5097 9.236 26.1497 10.712 25.7897 12.242ZM43.5468 8.552C44.1588 7.616 44.6808 6.77 45.2208 5.942C45.9048 4.916 47.3988 2.792 48.0648 1.766C50.6208 1.226 53.3028 3.278 51.8088 6.374C50.8728 8.354 50.6568 8.48 49.5228 10.352C49.3788 10.568 49.3788 10.73 49.5048 10.964C50.8188 13.448 52.5108 16.094 53.1948 17.912C52.5108 20.27 48.2088 22.178 46.3008 18.398C45.9048 17.642 45.4548 16.742 44.6088 15.068C44.1948 15.734 43.6728 16.562 43.6188 16.958C43.5468 17.336 43.5648 18.398 43.6548 19.424C42.1068 20.756 37.6968 20.684 37.2648 17.462C36.8508 14.438 36.6888 6.41 37.0308 2.99C38.4708 1.154 43.4388 1.118 43.5648 4.664C43.6368 6.824 43.6008 6.572 43.5468 8.138C43.5468 8.246 43.5468 8.336 43.5468 8.552ZM54.2486 14.438C54.9866 10.676 57.0386 4.574 58.2446 2.252C60.7826 1.388 66.3446 0.218 68.4866 5.402C69.4766 7.868 71.4206 14.096 72.1226 18.02C71.8706 20.054 66.1826 22.358 64.7066 17.246C63.5366 17.192 62.2226 17.264 61.0346 17.228C60.7106 18.02 60.4046 18.956 60.1526 19.91C55.5626 21.584 53.4746 18.668 54.2486 14.438ZM61.7546 12.242C62.5646 12.242 63.3026 12.242 64.0586 12.242C63.6806 10.73 63.3206 9.236 62.9786 7.76C62.9066 7.778 62.8526 7.778 62.7986 7.778C62.4746 9.236 62.1146 10.712 61.7546 12.242ZM86.1227 10.316C89.2187 12.53 87.7787 18.218 84.3767 19.586C82.0187 20.54 76.4387 20.972 73.1807 18.344C71.4527 16.166 73.4687 12.53 76.4027 13.952C78.9407 15.212 80.5427 15.032 80.8307 13.934C81.1547 12.71 80.1827 12.368 77.6987 12.44C76.2767 11.684 75.9347 8.354 78.6527 8.3C80.3627 8.282 80.8487 8.21 80.8307 7.562C80.8127 5.996 77.4107 6.986 75.9887 7.904C74.3147 7.112 73.2887 3.368 75.7727 2.378C78.2207 1.406 80.9567 1.604 82.3967 2.054C86.6447 3.368 87.0587 6.734 86.8787 8.246C86.7707 9.038 86.5367 9.74 86.1227 10.316ZM88.9742 14.438C89.7122 10.676 91.7642 4.574 92.9702 2.252C95.5082 1.388 101.07 0.218 103.212 5.402C104.202 7.868 106.146 14.096 106.848 18.02C106.596 20.054 100.908 22.358 99.4322 17.246C98.2622 17.192 96.9482 17.264 95.7602 17.228C95.4362 18.02 95.1302 18.956 94.8782 19.91C90.2882 21.584 88.2002 18.668 88.9742 14.438ZM96.4802 12.242C97.2902 12.242 98.0282 12.242 98.7842 12.242C98.4062 10.73 98.0462 9.236 97.7042 7.76C97.6322 7.778 97.5782 7.778 97.5242 7.778C97.2002 9.236 96.8402 10.712 96.4802 12.242ZM119.901 2C120.873 3.26 121.341 7.76 117.219 8.012C116.571 8.048 116.121 8.084 116.049 8.084C116.175 11.414 116.031 17.012 115.689 19.478C114.123 21.152 110.109 20.54 109.317 16.418C109.137 15.41 108.975 11.468 109.011 8.084C107.805 8.156 106.455 8.174 105.267 7.958C104.097 6.464 104.349 2.27 107.823 2.054C110.145 1.928 117.831 2.018 119.901 2ZM128.317 7.31C128.587 7.148 131.827 6.32 134.545 8.372C138.145 11.072 137.443 16.976 134.581 18.902C130.981 21.332 123.385 20.216 121.819 18.704C121.243 16.526 121.423 4.304 121.729 2.702C124.249 0.722 127.993 2 128.137 4.106C128.263 5.978 128.191 6.932 128.191 7.256C128.191 7.274 128.209 7.292 128.209 7.292C128.245 7.31 128.263 7.31 128.281 7.328C128.299 7.328 128.317 7.328 128.317 7.31ZM128.605 14.33C129.793 15.05 130.963 14.222 130.963 13.466C130.963 12.764 130.711 12.386 130.171 12.278C129.739 12.206 129.271 12.224 128.821 12.224C128.749 12.224 128.623 12.368 128.623 12.44C128.605 13.07 128.605 13.574 128.605 14.33Z" fill="#9D182B"/>
</svg>
