<svg width="872" height="29" viewBox="0 0 872 29" fill="none" xmlns="http://www.w3.org/2000/svg">
<path d="M8.65933 9.484C10.0233 9.484 11.3047 9.484 12.6273 9.484C12.6893 7.16933 12.648 4.29667 12.834 3.18067C15.376 1.15533 20.4187 2.43667 20.4187 6.384C20.4187 8.45067 20.4187 15.0433 20.398 20.2927C20.398 21.016 20.3773 22.008 20.336 22.4833C19.406 23.5167 13.2473 24.2607 12.772 20.4993C12.6273 19.4247 12.586 17.048 12.586 16.1593C11.2633 16.1593 10.0853 16.1593 8.72133 16.1593C8.72133 18.1847 8.72133 20.3547 8.72133 22.504C7.58467 23.5373 1.40533 24.674 1.054 19.59C0.888667 17.3167 0.640667 7.252 0.888667 3.49067C3.63733 1.21733 8.28733 2.354 8.59733 5.49533C8.78333 7.314 8.65933 9.27733 8.65933 9.484ZM22.179 18.226C22.0137 15.3947 22.0964 5.99133 22.5097 2.49867C25.961 2.14733 33.7524 2.23 37.431 2.51933C38.1957 3.61467 38.733 8.74 33.7524 8.74C32.6364 8.74 32.161 8.74 29.495 8.74C29.495 9.07067 29.495 9.40133 29.495 9.81467C30.6937 9.81467 34.1037 9.58733 35.8604 10.1453C37.1004 12.894 36.1497 15.2913 33.1117 15.436C32.0577 15.4773 31.4377 15.436 29.5157 15.436C29.5157 15.8907 29.5157 16.2627 29.5157 16.6967C29.6604 16.6967 29.8257 16.6967 29.991 16.6967C32.2024 16.6967 34.4137 16.6967 36.625 16.6967C38.1957 18.908 37.6584 22.4833 33.7317 23C32.0164 23.2273 26.6224 23.2687 25.1344 22.9173C23.1917 22.4213 22.3444 21.0367 22.179 18.226ZM64.6507 15.7873C61.5093 18.1433 57.81 17.1927 57.5 17.0067C57.4793 16.986 57.4793 16.986 57.4587 17.0067C57.438 17.0067 57.3967 17.0273 57.376 17.0273C57.3553 17.0273 57.3553 17.048 57.3553 17.0687C57.3553 17.4407 57.376 20.086 57.1487 22.2973C55.4127 24.178 50.7007 23.7233 49.812 19.0527C49.4607 17.2133 49.378 6.42533 50.0393 3.92467C51.8373 2.18867 60.538 0.907334 64.692 3.69733C67.978 5.90867 68.784 12.708 64.6507 15.7873ZM60.538 9.93867C60.538 9.07067 59.1947 8.14067 57.8307 8.94667C57.8307 9.81467 57.8307 10.414 57.8513 11.1167C57.8513 11.22 57.996 11.3647 58.0787 11.3647C58.5953 11.3647 59.112 11.3853 59.6287 11.3027C60.2487 11.1787 60.538 10.7447 60.538 9.93867ZM76.3184 11.1787C76.3391 11.1993 76.3598 11.1993 76.4011 11.22C76.4838 11.0547 76.5871 10.91 76.6698 10.7653C78.1784 8.03733 80.0178 4.66867 80.9891 3.01533C83.3244 1.65133 88.4498 1.81667 88.7184 6.09467C88.9251 9.44267 88.6564 18.536 88.4498 22.2353C84.8951 24.55 81.2991 22.876 81.1338 19.7347C81.0718 18.474 81.1544 17.7507 81.2371 15.188C81.1751 15.188 81.1338 15.1673 81.0718 15.1673C80.9891 15.2913 80.9064 15.3947 80.8238 15.5393C80.3484 16.2833 77.4758 21.264 76.7524 22.4213C73.3631 24.612 69.3744 22.7933 68.8784 18.66C68.4858 15.3327 68.6511 5.61933 68.7544 3.36667C70.9244 1.03133 75.9878 2.25067 76.2771 5.18533C76.5044 7.52067 76.3184 8.28533 76.3184 11.1787ZM103.346 8.802C102.127 8.47133 101.114 8.57467 100.101 9.09133C98.6547 9.81467 98.2413 11.5713 98.4687 13.142C98.7993 15.622 100.928 16.49 103.015 16.18C104.421 15.994 106.198 14.8367 106.715 14.5473C109.587 15.064 111.489 20.0447 106.198 22.5247C104.028 23.5373 100.411 23.434 98.076 22.814C94.48 21.884 92.248 19.59 91.2147 16.118C90.5327 13.6793 90.4707 11.1993 91.2973 8.802C92.2273 6.05333 94.48 3.98667 96.65 3.01533C99.3987 1.77533 104.297 1.32067 108.699 3.86267C109.753 7.81 106.074 9.89733 103.346 8.802ZM119.762 8.63667C120.134 7.91333 122.408 3.222 123.214 2.168C126.479 1.362 130.612 3.78 128.732 7.45867C127.471 9.918 120.961 20.8507 119.328 22.7933C114.823 25.0667 111.434 21.326 113.666 17.6887C114.864 15.7047 114.699 16.18 115.174 15.2707C115.319 14.9813 115.112 14.5887 114.947 14.2993C113.108 11.0753 111.351 8.57467 109.739 4.958C111.248 1.61 115.712 1.3 116.91 3.32533C117.882 4.99933 118.44 6.322 119.308 8.03733C119.39 8.22333 119.494 8.43 119.576 8.63667C119.638 8.63667 119.7 8.63667 119.762 8.63667ZM161.561 8.058C162.553 10.6827 162.78 13.39 161.954 16.0973C160.838 19.6933 158.42 21.9873 154.741 22.8553C151.765 23.558 148.83 23.3513 146.082 21.9253C143.54 20.6027 142.052 18.474 141.37 15.7667C140.584 15.7873 139.737 15.7873 138.931 15.7873C138.848 18.2673 138.724 20.644 138.518 22.07C136.782 23.9507 131.574 23.2687 130.664 18.6187C130.313 16.7793 130.086 5.392 130.747 2.89133C132.648 1.176 137.98 1.176 138.745 6.136C138.848 6.77667 138.91 8.616 138.952 9.89733C139.613 9.87667 140.357 9.87667 141.122 9.87667C141.266 9.13267 141.494 8.40933 141.824 7.686C143.126 4.772 145.916 2.14733 151.579 2.044C158.254 1.94067 160.962 6.40467 161.561 8.058ZM154.328 12.7287C154.452 10.3727 153.15 9.05 151.662 9.05C150.153 9.05 148.789 10.3313 148.934 12.8113C149.099 15.188 150.69 16.0353 151.765 15.9733C152.84 15.8907 154.183 15.064 154.328 12.7287ZM167.485 23.2687C167.072 23.2067 166.638 23.1653 166.224 23.0827C164.612 22.7107 163.62 21.6567 163.476 20.0447C163.393 19.3627 163.414 18.6393 163.538 17.9573C163.744 16.676 164.571 15.8493 165.811 15.4567C166.7 15.1467 167.63 15.0847 168.56 15.2913C170.461 15.7253 171.639 17.3373 171.474 19.3213C171.432 19.8793 171.329 20.4787 171.122 20.9953C170.544 22.4627 169.242 23.248 167.485 23.2687ZM167.94 11.7573C167.526 11.6953 167.092 11.654 166.679 11.5507C165.067 11.1993 164.096 10.1453 163.93 8.51267C163.848 7.83067 163.868 7.10733 163.992 6.446C164.199 5.144 165.026 4.31733 166.266 3.92467C167.154 3.63533 168.084 3.57333 169.014 3.78C170.916 4.19333 172.094 5.80533 171.928 7.78933C171.887 8.368 171.784 8.94667 171.577 9.46333C170.998 10.9307 169.696 11.716 167.94 11.7573ZM183.484 19.094C183.133 16.2007 183.339 5.99133 183.753 2.49867C187.183 2.168 194.995 2.25067 198.674 2.51933C199.439 3.63533 199.976 8.74 194.995 8.74C193.879 8.74 193.404 8.74 190.738 8.74C190.883 10.6413 191.069 19.0733 190.676 22.4627C188.899 23.744 184.021 23.4547 183.484 19.094ZM210.007 8.63667C210.379 7.91333 212.653 3.222 213.459 2.168C216.724 1.362 220.857 3.78 218.977 7.45867C217.716 9.918 211.206 20.8507 209.573 22.7933C205.068 25.0667 201.679 21.326 203.911 17.6887C205.109 15.7047 204.944 16.18 205.419 15.2707C205.564 14.9813 205.357 14.5887 205.192 14.2993C203.353 11.0753 201.596 8.57467 199.984 4.958C201.493 1.61 205.957 1.3 207.155 3.32533C208.127 4.99933 208.685 6.322 209.553 8.03733C209.635 8.22333 209.739 8.43 209.821 8.63667C209.883 8.63667 209.945 8.63667 210.007 8.63667ZM235.665 15.7873C232.524 18.1433 228.825 17.1927 228.515 17.0067C228.494 16.986 228.494 16.986 228.473 17.0067C228.453 17.0067 228.411 17.0273 228.391 17.0273C228.37 17.0273 228.37 17.048 228.37 17.0687C228.37 17.4407 228.391 20.086 228.163 22.2973C226.427 24.178 221.715 23.7233 220.827 19.0527C220.475 17.2133 220.393 6.42533 221.054 3.92467C222.852 2.18867 231.553 0.907334 235.707 3.69733C238.993 5.90867 239.799 12.708 235.665 15.7873ZM231.553 9.93867C231.553 9.07067 230.209 8.14067 228.845 8.94667C228.845 9.81467 228.845 10.414 228.866 11.1167C228.866 11.22 229.011 11.3647 229.093 11.3647C229.61 11.3647 230.127 11.3853 230.643 11.3027C231.263 11.1787 231.553 10.7447 231.553 9.93867ZM249.893 1.92C256.94 1.87867 259.275 6.694 259.895 8.32667C260.867 10.972 261.094 13.6587 260.267 16.3867C259.151 19.9827 256.733 22.256 253.055 23.124C250.079 23.8473 247.165 23.62 244.416 22.194C241.791 20.8507 240.283 18.6393 239.642 15.808C239.022 13.142 239.187 10.0833 240.159 7.95467C241.461 5.04067 244.209 1.94067 249.893 1.92ZM249.996 9.31867C248.467 9.31867 247.103 10.6207 247.268 13.08C247.413 15.4773 249.004 16.3247 250.079 16.242C251.174 16.18 252.517 15.3327 252.641 12.9973C252.786 10.662 251.463 9.31867 249.996 9.31867ZM264.621 23.1653C261.872 22.3387 261.459 19.3833 262.265 17.606C262.844 16.3247 263.898 15.3947 265.903 15.3327C268.527 15.2913 269.809 17.3167 269.85 19.4247C269.891 22.132 268.093 25.046 266.791 26.6373C265.076 28.7867 262.575 27.9393 262.575 26.6167C263.236 25.3147 264.042 24.2813 264.621 23.1653ZM305.56 13.1833C306.242 14.6713 307.999 17.854 308.805 19.9207C308.64 22.8553 303.68 25.5007 301.22 20.83C300.724 19.9207 299.918 17.978 299.195 16.2627C299.112 18.5773 298.947 20.768 298.761 22.1113C296.984 24.0127 292.396 23.2893 291.528 18.5567C291.424 18.0607 291.342 16.924 291.3 15.4773C290.184 18.0813 288.51 21.9667 288.118 22.876C282.414 24.2813 281.608 20.148 282.104 18.3913C282.724 16.2627 283.943 14.6713 284.646 13.204C284.728 13.0387 284.687 12.7493 284.604 12.584C283.447 10.166 282.269 7.748 281.112 5.33C281.566 2.416 286.878 1.03133 288.345 3.80067C289.399 5.78467 290.474 8.306 291.238 10.228C291.259 7.314 291.404 4.524 291.714 3.38733C293.677 1.672 298.368 1.69267 299.112 6.756C299.195 7.376 299.257 8.38867 299.278 9.62867C300.249 7.438 301.592 4.60667 302.998 2.354C305.56 1.424 309.549 3.408 308.206 7.29333C307.606 9.05 306.635 10.4347 305.602 12.5633C305.519 12.7493 305.478 13.018 305.56 13.1833ZM310.14 18.226C309.975 15.3947 310.057 5.99133 310.471 2.49867C313.922 2.14733 321.713 2.23 325.392 2.51933C326.157 3.61467 326.694 8.74 321.713 8.74C320.597 8.74 320.122 8.74 317.456 8.74C317.456 9.07067 317.456 9.40133 317.456 9.81467C318.655 9.81467 322.065 9.58733 323.821 10.1453C325.061 12.894 324.111 15.2913 321.073 15.436C320.019 15.4773 319.399 15.436 317.477 15.436C317.477 15.8907 317.477 16.2627 317.477 16.6967C317.621 16.6967 317.787 16.6967 317.952 16.6967C320.163 16.6967 322.375 16.6967 324.586 16.6967C326.157 18.908 325.619 22.4833 321.693 23C319.977 23.2273 314.583 23.2687 313.095 22.9173C311.153 22.4213 310.305 21.0367 310.14 18.226ZM340.296 8.802C339.077 8.47133 338.064 8.57467 337.052 9.09133C335.605 9.81467 335.192 11.5713 335.419 13.142C335.75 15.622 337.878 16.49 339.966 16.18C341.371 15.994 343.148 14.8367 343.665 14.5473C346.538 15.064 348.439 20.0447 343.148 22.5247C340.978 23.5373 337.362 23.434 335.026 22.814C331.43 21.884 329.198 19.59 328.165 16.118C327.483 13.6793 327.421 11.1993 328.248 8.802C329.178 6.05333 331.43 3.98667 333.6 3.01533C336.349 1.77533 341.247 1.32067 345.649 3.86267C346.703 7.81 343.024 9.89733 340.296 8.802ZM363.627 2.62267C364.722 4.028 365.239 9.112 360.589 9.38067C359.865 9.422 359.349 9.46333 359.266 9.46333C359.411 13.2247 359.245 19.5487 358.853 22.318C357.117 24.1987 352.591 23.5167 351.681 18.8667C351.475 17.73 351.309 13.2867 351.351 9.46333C349.987 9.546 348.457 9.56667 347.114 9.31867C345.791 7.64467 346.081 2.912 350.007 2.68467C352.611 2.51933 361.271 2.64333 363.627 2.62267ZM373.02 9.856C373.723 8.78133 374.322 7.81 374.942 6.85933C375.728 5.68133 377.443 3.24267 378.208 2.06467C381.142 1.44467 384.222 3.80067 382.506 7.35533C381.432 9.62867 381.184 9.77333 379.882 11.9227C379.716 12.1707 379.716 12.3567 379.861 12.6253C381.37 15.4773 383.312 18.5153 384.098 20.6027C383.312 23.31 378.373 25.5007 376.182 21.1607C375.728 20.2927 375.211 19.2593 374.24 17.3373C373.764 18.102 373.165 19.0527 373.103 19.5073C373.02 19.9413 373.041 21.1607 373.144 22.3387C371.367 23.868 366.304 23.7853 365.808 20.086C365.332 16.614 365.146 7.39667 365.539 3.47C367.192 1.362 372.896 1.32067 373.041 5.392C373.124 7.872 373.082 7.58267 373.02 9.38067C373.02 9.50467 373.02 9.608 373.02 9.856ZM392.706 11.1787C392.727 11.1993 392.747 11.1993 392.789 11.22C392.871 11.0547 392.975 10.91 393.057 10.7653C394.566 8.03733 396.405 4.66867 397.377 3.01533C399.712 1.65133 404.837 1.81667 405.106 6.09467C405.313 9.44267 405.044 18.536 404.837 22.2353C401.283 24.55 397.687 22.876 397.521 19.7347C397.459 18.474 397.542 17.7507 397.625 15.188C397.563 15.188 397.521 15.1673 397.459 15.1673C397.377 15.2913 397.294 15.3947 397.211 15.5393C396.736 16.2833 393.863 21.264 393.14 22.4213C389.751 24.612 385.762 22.7933 385.266 18.66C384.873 15.3327 385.039 5.61933 385.142 3.36667C387.312 1.03133 392.375 2.25067 392.665 5.18533C392.892 7.52067 392.706 8.28533 392.706 11.1787ZM406.652 18.226C406.486 15.3947 406.569 5.99133 406.982 2.49867C410.434 2.14733 418.225 2.23 421.904 2.51933C422.668 3.61467 423.206 8.74 418.225 8.74C417.109 8.74 416.634 8.74 413.968 8.74C413.968 9.07067 413.968 9.40133 413.968 9.81467C415.166 9.81467 418.576 9.58733 420.333 10.1453C421.573 12.894 420.622 15.2913 417.584 15.436C416.53 15.4773 415.91 15.436 413.988 15.436C413.988 15.8907 413.988 16.2627 413.988 16.6967C414.133 16.6967 414.298 16.6967 414.464 16.6967C416.675 16.6967 418.886 16.6967 421.098 16.6967C422.668 18.908 422.131 22.4833 418.204 23C416.489 23.2273 411.095 23.2687 409.607 22.9173C407.664 22.4213 406.817 21.0367 406.652 18.226ZM458.175 4.29667C462.04 6.818 462.701 13.1833 458.568 16.2213C455.427 18.5153 451.707 17.606 451.417 17.3993C451.397 17.3993 451.376 17.3993 451.376 17.3993C451.355 17.3993 451.314 17.42 451.293 17.42C451.273 17.4407 451.273 17.4613 451.273 17.4613C451.273 17.8333 451.293 20.4167 451.066 22.6073C449.33 24.4467 444.618 23.992 443.729 19.4247C443.647 19.0733 443.605 18.3293 443.564 17.358C443.543 17.3373 443.523 17.3373 443.502 17.3167C443.481 17.3167 443.461 17.3167 443.461 17.3373C443.151 17.5233 439.803 18.5153 436.682 16.2213C432.549 13.1833 432.983 7.89267 436.227 4.896C440.175 1.21733 453.939 1.50667 458.175 4.29667ZM443.254 11.8813C443.337 11.8813 443.461 11.7367 443.481 11.654C443.481 11.22 443.481 10.7653 443.502 10.3313C443.502 10.0833 443.502 9.81467 443.502 9.50467C442.138 8.69867 440.774 9.62867 440.774 10.476C440.774 11.2613 441.084 11.6953 441.704 11.8193C442.2 11.902 442.737 11.8813 443.254 11.8813ZM453.546 11.8193C454.166 11.6953 454.455 11.2613 454.455 10.476C454.455 9.62867 453.091 8.69867 451.748 9.50467C451.748 10.352 451.748 10.9307 451.748 11.6333C451.769 11.716 451.913 11.8813 451.996 11.8813C452.513 11.8813 453.029 11.902 453.546 11.8193ZM462.869 18.226C462.704 15.3947 462.787 5.99133 463.2 2.49867C466.651 2.14733 474.443 2.23 478.121 2.51933C478.886 3.61467 479.423 8.74 474.443 8.74C473.327 8.74 472.851 8.74 470.185 8.74C470.185 9.07067 470.185 9.40133 470.185 9.81467C471.384 9.81467 474.794 9.58733 476.551 10.1453C477.791 12.894 476.84 15.2913 473.802 15.436C472.748 15.4773 472.128 15.436 470.206 15.436C470.206 15.8907 470.206 16.2627 470.206 16.6967C470.351 16.6967 470.516 16.6967 470.681 16.6967C472.893 16.6967 475.104 16.6967 477.315 16.6967C478.886 18.908 478.349 22.4833 474.422 23C472.707 23.2273 467.313 23.2687 465.825 22.9173C463.882 22.4213 463.035 21.0367 462.869 18.226ZM496.89 2.62267C497.986 4.028 498.502 9.112 493.852 9.38067C493.129 9.422 492.612 9.46333 492.53 9.46333C492.674 13.2247 492.509 19.5487 492.116 22.318C490.38 24.1987 485.854 23.5167 484.945 18.8667C484.738 17.73 484.573 13.2867 484.614 9.46333C483.25 9.546 481.721 9.56667 480.378 9.31867C479.055 7.64467 479.344 2.912 483.271 2.68467C485.875 2.51933 494.534 2.64333 496.89 2.62267ZM506.201 11.1787C506.222 11.1993 506.243 11.1993 506.284 11.22C506.367 11.0547 506.47 10.91 506.553 10.7653C508.061 8.03733 509.901 4.66867 510.872 3.01533C513.207 1.65133 518.333 1.81667 518.601 6.09467C518.808 9.44267 518.539 18.536 518.333 22.2353C514.778 24.55 511.182 22.876 511.017 19.7347C510.955 18.474 511.037 17.7507 511.12 15.188C511.058 15.188 511.017 15.1673 510.955 15.1673C510.872 15.2913 510.789 15.3947 510.707 15.5393C510.231 16.2833 507.359 21.264 506.635 22.4213C503.246 24.612 499.257 22.7933 498.761 18.66C498.369 15.3327 498.534 5.61933 498.637 3.36667C500.807 1.03133 505.871 2.25067 506.16 5.18533C506.387 7.52067 506.201 8.28533 506.201 11.1787ZM551.746 6.46667C551.973 8.51267 551.932 13.8653 551.911 17.3993C551.911 19.528 551.498 22.7933 546.641 23.0827C540.648 23.4547 526.905 23.186 526.429 23.1653C522.399 22.938 520.829 21.822 520.457 18.6807C520.002 14.8987 519.981 7.60333 520.539 3.32533C521.469 2.292 527.607 1.548 528.103 5.30933C528.248 6.384 528.289 15.5807 528.289 16.49C529.116 16.49 530.521 16.4693 532.154 16.4693C532.154 14.444 532.154 5.454 532.154 3.30467C533.291 2.27133 539.47 1.13467 539.821 6.21867C539.925 7.748 540.069 12.522 540.09 16.614C540.462 16.6347 542.26 16.614 544.327 16.5933C544.265 12.956 544.265 6.36333 544.43 3.24267C546.352 1.56867 551.229 1.52733 551.746 6.46667ZM560.784 11.1787C560.805 11.1993 560.826 11.1993 560.867 11.22C560.95 11.0547 561.053 10.91 561.136 10.7653C562.644 8.03733 564.484 4.66867 565.455 3.01533C567.79 1.65133 572.916 1.81667 573.184 6.09467C573.391 9.44267 573.122 18.536 572.916 22.2353C569.361 24.55 565.765 22.876 565.6 19.7347C565.538 18.474 565.62 17.7507 565.703 15.188C565.641 15.188 565.6 15.1673 565.538 15.1673C565.455 15.2913 565.372 15.3947 565.29 15.5393C564.814 16.2833 561.942 21.264 561.218 22.4213C557.829 24.612 553.84 22.7933 553.344 18.66C552.952 15.3327 553.117 5.61933 553.22 3.36667C555.39 1.03133 560.454 2.25067 560.743 5.18533C560.97 7.52067 560.784 8.28533 560.784 11.1787ZM576.982 23.1653C574.234 22.3387 573.82 19.3833 574.626 17.606C575.205 16.3247 576.259 15.3947 578.264 15.3327C580.888 15.2913 582.17 17.3167 582.211 19.4247C582.252 22.132 580.454 25.046 579.152 26.6373C577.437 28.7867 574.936 27.9393 574.936 26.6167C575.598 25.3147 576.404 24.2813 576.982 23.1653ZM606.824 8.802C605.604 8.47133 604.592 8.57467 603.579 9.09133C602.132 9.81467 601.719 11.5713 601.946 13.142C602.277 15.622 604.406 16.49 606.493 16.18C607.898 15.994 609.676 14.8367 610.192 14.5473C613.065 15.064 614.966 20.0447 609.676 22.5247C607.506 23.5373 603.889 23.434 601.554 22.814C597.958 21.884 595.726 19.59 594.692 16.118C594.01 13.6793 593.948 11.1993 594.775 8.802C595.705 6.05333 597.958 3.98667 600.128 3.01533C602.876 1.77533 607.774 1.32067 612.176 3.86267C613.23 7.81 609.552 9.89733 606.824 8.802ZM622.08 9.856C622.782 8.78133 623.382 7.81 624.002 6.85933C624.787 5.68133 626.502 3.24267 627.267 2.06467C630.202 1.44467 633.281 3.80067 631.566 7.35533C630.491 9.62867 630.243 9.77333 628.941 11.9227C628.776 12.1707 628.776 12.3567 628.92 12.6253C630.429 15.4773 632.372 18.5153 633.157 20.6027C632.372 23.31 627.432 25.5007 625.242 21.1607C624.787 20.2927 624.27 19.2593 623.299 17.3373C622.824 18.102 622.224 19.0527 622.162 19.5073C622.08 19.9413 622.1 21.1607 622.204 22.3387C620.426 23.868 615.363 23.7853 614.867 20.086C614.392 16.614 614.206 7.39667 614.598 3.47C616.252 1.362 621.956 1.32067 622.1 5.392C622.183 7.872 622.142 7.58267 622.08 9.38067C622.08 9.50467 622.08 9.608 622.08 9.856ZM634.429 18.226C634.264 15.3947 634.346 5.99133 634.76 2.49867C638.211 2.14733 646.002 2.23 649.681 2.51933C650.446 3.61467 650.983 8.74 646.002 8.74C644.886 8.74 644.411 8.74 641.745 8.74C641.745 9.07067 641.745 9.40133 641.745 9.81467C642.944 9.81467 646.354 9.58733 648.11 10.1453C649.35 12.894 648.4 15.2913 645.362 15.436C644.308 15.4773 643.688 15.436 641.766 15.436C641.766 15.8907 641.766 16.2627 641.766 16.6967C641.91 16.6967 642.076 16.6967 642.241 16.6967C644.452 16.6967 646.664 16.6967 648.875 16.6967C650.446 18.908 649.908 22.4833 645.982 23C644.266 23.2273 638.872 23.2687 637.384 22.9173C635.442 22.4213 634.594 21.0367 634.429 18.226ZM668.45 2.62267C669.545 4.028 670.062 9.112 665.412 9.38067C664.689 9.422 664.172 9.46333 664.089 9.46333C664.234 13.2247 664.069 19.5487 663.676 22.318C661.94 24.1987 657.414 23.5167 656.505 18.8667C656.298 17.73 656.133 13.2867 656.174 9.46333C654.81 9.546 653.281 9.56667 651.937 9.31867C650.615 7.64467 650.904 2.912 654.831 2.68467C657.435 2.51933 666.094 2.64333 668.45 2.62267ZM689.768 6.756C690.161 9.298 690.037 18.7013 689.541 22.256C687.805 24.178 683.279 23.496 682.39 18.722C682.369 18.7013 682.369 18.6807 682.369 18.66C679.145 18.66 676.707 18.536 676.397 18.536C672.367 18.288 670.817 17.1307 670.445 13.886C669.969 9.98 669.949 7.66533 670.527 3.222C671.437 2.168 677.595 1.40333 678.091 5.30933C678.215 6.40467 678.257 10.6827 678.257 11.6127C679.063 11.6127 680.447 11.592 682.039 11.592C682.018 8.244 682.121 4.73067 682.473 3.42867C684.374 1.672 689.003 1.672 689.768 6.756ZM698.831 11.1787C698.852 11.1993 698.872 11.1993 698.914 11.22C698.996 11.0547 699.1 10.91 699.182 10.7653C700.691 8.03733 702.53 4.66867 703.502 3.01533C705.837 1.65133 710.962 1.81667 711.231 6.09467C711.438 9.44267 711.169 18.536 710.962 22.2353C707.408 24.55 703.812 22.876 703.646 19.7347C703.584 18.474 703.667 17.7507 703.75 15.188C703.688 15.188 703.646 15.1673 703.584 15.1673C703.502 15.2913 703.419 15.3947 703.336 15.5393C702.861 16.2833 699.988 21.264 699.265 22.4213C695.876 24.612 691.887 22.7933 691.391 18.66C690.998 15.3327 691.164 5.61933 691.267 3.36667C693.437 1.03133 698.5 2.25067 698.79 5.18533C699.017 7.52067 698.831 8.28533 698.831 11.1787ZM726.375 12.1087C728.215 12.7493 729.289 14.444 729.248 16.6967C729.186 20.83 726.003 23.4547 720.589 23.4547C715.732 23.4547 713.087 21.202 712.611 16.924C712.239 13.6793 712.425 7.54133 712.797 3.42867C716.104 1.46533 723.42 1.56867 725.9 3.222C729.186 5.41267 729.103 9.67 726.789 11.7367C726.685 11.84 726.561 11.9433 726.375 12.1087ZM719.762 17.1927C720.258 17.4613 720.94 17.482 721.477 17.234C722.077 16.986 722.304 16.4487 722.242 15.7873C722.201 15.2293 721.808 14.8573 721.291 14.7333C720.878 14.6507 720.155 14.6093 719.783 14.9813C719.741 15.7047 719.762 16.4487 719.762 17.1927ZM719.617 9.89733C720.258 10.2693 721.415 10.1453 721.395 8.82267C721.353 7.686 719.927 7.686 719.617 8.09933C719.452 8.492 719.411 9.25667 719.617 9.89733ZM757.28 6.42533C756.516 1.46533 751.886 1.46533 749.985 3.16C749.303 5.68133 749.551 16.9033 749.902 18.7427C750.791 23.4133 755.338 24.0747 757.053 22.194C757.549 18.722 757.673 8.90533 757.28 6.42533ZM738.288 8.59533C738.577 8.38867 742.297 7.45867 745.438 9.794C749.572 12.894 748.766 19.6933 745.48 21.884C741.326 24.674 732.625 23.4133 730.827 21.6567C730.145 19.156 730.372 5.12333 730.724 3.284C733.617 1.01067 737.895 2.478 738.06 4.896C738.205 7.04533 738.143 8.16133 738.143 8.51267C738.143 8.53333 738.143 8.554 738.164 8.554C738.184 8.57467 738.205 8.57467 738.246 8.59533C738.246 8.59533 738.267 8.59533 738.288 8.59533ZM738.618 16.6347C739.962 17.4613 741.326 16.5107 741.326 15.6633C741.326 14.8573 741.036 14.4027 740.396 14.2993C739.9 14.196 739.383 14.2167 738.866 14.2167C738.784 14.2167 738.618 14.382 738.618 14.4647C738.598 15.188 738.618 15.7667 738.618 16.6347ZM759.095 18.226C758.93 15.3947 759.012 5.99133 759.426 2.49867C762.877 2.14733 770.668 2.23 774.347 2.51933C775.112 3.61467 775.649 8.74 770.668 8.74C769.552 8.74 769.077 8.74 766.411 8.74C766.411 9.07067 766.411 9.40133 766.411 9.81467C767.61 9.81467 771.02 9.58733 772.776 10.1453C774.016 12.894 773.066 15.2913 770.028 15.436C768.974 15.4773 768.354 15.436 766.432 15.436C766.432 15.8907 766.432 16.2627 766.432 16.6967C766.576 16.6967 766.742 16.6967 766.907 16.6967C769.118 16.6967 771.33 16.6967 773.541 16.6967C775.112 18.908 774.574 22.4833 770.648 23C768.932 23.2273 763.538 23.2687 762.05 22.9173C760.108 22.4213 759.26 21.0367 759.095 18.226ZM786.211 16.3867C787.017 12.2327 789.291 5.454 790.613 2.87067C793.445 1.94067 799.603 0.638667 801.959 6.384C803.075 9.112 805.225 16.0147 806.01 20.3547C805.721 22.6073 799.417 25.17 797.785 19.5073C796.483 19.4453 795.036 19.528 793.713 19.4867C793.362 20.3547 793.031 21.388 792.742 22.4627C787.658 24.3227 785.323 21.078 786.211 16.3867ZM794.519 13.948C795.408 13.948 796.214 13.948 797.061 13.948C796.669 12.274 796.255 10.6413 795.863 8.988C795.801 9.00867 795.739 9.00867 795.677 9.00867C795.305 10.6413 794.912 12.2533 794.519 13.948ZM821.335 15.7873C818.194 18.1433 814.495 17.1927 814.185 17.0067C814.164 16.986 814.164 16.986 814.143 17.0067C814.123 17.0067 814.081 17.0273 814.061 17.0273C814.04 17.0273 814.04 17.048 814.04 17.0687C814.04 17.4407 814.061 20.086 813.833 22.2973C812.097 24.178 807.385 23.7233 806.497 19.0527C806.145 17.2133 806.063 6.42533 806.724 3.92467C808.522 2.18867 817.223 0.907334 821.377 3.69733C824.663 5.90867 825.469 12.708 821.335 15.7873ZM817.223 9.93867C817.223 9.07067 815.879 8.14067 814.515 8.94667C814.515 9.81467 814.515 10.414 814.536 11.1167C814.536 11.22 814.681 11.3647 814.763 11.3647C815.28 11.3647 815.797 11.3853 816.313 11.3027C816.933 11.1787 817.223 10.7447 817.223 9.93867ZM842.613 2.62267C843.708 4.028 844.225 9.112 839.575 9.38067C838.852 9.422 838.335 9.46333 838.252 9.46333C838.397 13.2247 838.232 19.5487 837.839 22.318C836.103 24.1987 831.577 23.5167 830.668 18.8667C830.461 17.73 830.296 13.2867 830.337 9.46333C828.973 9.546 827.444 9.56667 826.1 9.31867C824.778 7.64467 825.067 2.912 828.994 2.68467C831.598 2.51933 840.257 2.64333 842.613 2.62267ZM871.351 6.42533C870.586 1.46533 865.957 1.46533 864.055 3.16C863.373 5.68133 863.621 16.9033 863.973 18.7427C864.861 23.4133 869.408 24.0747 871.123 22.194C871.619 18.722 871.743 8.90533 871.351 6.42533ZM852.358 8.59533C852.647 8.38867 856.367 7.45867 859.509 9.794C863.642 12.894 862.836 19.6933 859.55 21.884C855.396 24.674 846.695 23.4133 844.897 21.6567C844.215 19.156 844.443 5.12333 844.794 3.284C847.687 1.01067 851.965 2.478 852.131 4.896C852.275 7.04533 852.213 8.16133 852.213 8.51267C852.213 8.53333 852.213 8.554 852.234 8.554C852.255 8.57467 852.275 8.57467 852.317 8.59533C852.317 8.59533 852.337 8.59533 852.358 8.59533ZM852.689 16.6347C854.032 17.4613 855.396 16.5107 855.396 15.6633C855.396 14.8573 855.107 14.4027 854.466 14.2993C853.97 14.196 853.453 14.2167 852.937 14.2167C852.854 14.2167 852.689 14.382 852.689 14.4647C852.668 15.188 852.689 15.7667 852.689 16.6347Z" fill="#9D182B"/>
</svg>
