<svg width="81" height="53" viewBox="0 0 81 53" fill="none" xmlns="http://www.w3.org/2000/svg">
<path d="M19.1673 9.236C19.5273 11.414 19.2933 13.556 18.3213 15.572C17.2053 17.84 15.3333 19.19 12.9393 20C9.75326 21.08 5.19926 20.828 1.95926 17.138C1.50926 13.61 4.58726 12.422 6.65726 13.952C8.79926 15.554 10.7613 14.996 11.5173 13.61C10.0593 13.574 8.83526 13.484 8.22326 13.322C6.92726 11.882 7.23326 8.894 9.89726 8.714C10.1853 8.678 10.7973 8.696 11.4993 8.696C10.4373 7.094 7.73726 6.608 5.45126 8.75C2.98526 7.958 1.92326 3.35 6.72926 2.018C12.3993 0.452001 18.1593 3.098 19.1673 9.236ZM34.2907 2C35.2627 3.26 35.7307 7.76 31.6087 8.012C30.9607 8.048 30.5107 8.084 30.4387 8.084C30.5647 11.414 30.4207 17.012 30.0787 19.478C28.5127 21.152 24.4987 20.54 23.7067 16.418C23.5267 15.41 23.3647 11.468 23.4007 8.084C22.1947 8.156 20.8447 8.174 19.6567 7.958C18.4867 6.464 18.7387 2.27 22.2127 2.054C24.5347 1.928 32.2207 2.018 34.2907 2ZM43.8886 1.64C50.0266 1.604 52.0606 5.798 52.6006 7.22C53.4466 9.524 53.6446 11.864 52.9246 14.24C51.9526 17.372 49.8466 19.352 46.6426 20.108C44.0506 20.738 41.5126 20.54 39.1186 19.298C36.8326 18.128 35.5186 16.202 34.9606 13.736C34.4206 11.414 34.5646 8.75 35.4106 6.896C36.5446 4.358 38.9386 1.658 43.8886 1.64ZM43.9786 8.084C42.6466 8.084 41.4586 9.218 41.6026 11.36C41.7286 13.448 43.1146 14.186 44.0506 14.114C45.0046 14.06 46.1746 13.322 46.2826 11.288C46.4086 9.254 45.2566 8.084 43.9786 8.084ZM78.783 3.422C79.377 5.6 79.251 16.436 79.251 19.082C76.965 20.828 72.843 20.63 72.465 16.76C72.393 15.932 72.393 15.518 72.393 15.266C71.853 17.03 70.827 19.082 69.459 20.324C66.669 21.116 63.231 18.47 65.481 15.446C65.895 14.87 66.201 14.42 66.435 14.006C66.309 13.934 66.183 13.844 66.057 13.754C62.475 11.054 63.159 5.132 66.021 3.224C69.639 0.794 77.217 1.892 78.783 3.422ZM71.997 7.796C70.827 7.076 69.639 7.904 69.639 8.642C69.639 9.344 69.891 9.74 70.449 9.83C70.881 9.92 71.349 9.902 71.799 9.902C71.853 9.902 71.997 9.758 71.997 9.686C72.015 9.056 71.997 8.552 71.997 7.796ZM14.1199 41.558C14.7139 42.89 16.2439 45.752 16.9279 47.588C16.7659 50.216 12.3019 52.502 10.1599 48.308C9.83588 47.696 9.34987 46.508 8.88187 45.338C7.98188 47.336 6.99187 49.514 6.72188 50.144C1.62787 51.314 0.961875 47.588 1.44787 46.04C2.00587 44.168 3.08588 42.764 3.75188 41.468C3.82388 41.306 3.82388 41.054 3.73387 40.928C2.74387 38.75 1.71788 36.59 0.691875 34.43C1.17787 31.838 5.92987 30.668 7.17188 33.134C7.85588 34.43 8.48587 35.942 9.02588 37.328C9.87187 35.6 10.9159 33.548 11.9959 31.874C14.2999 31.082 17.8279 32.918 16.5859 36.338C16.0099 37.886 15.1459 39.128 14.1919 41.018C14.1019 41.162 14.0839 41.396 14.1199 41.558ZM18.1043 45.842C17.9603 43.376 18.0323 35.186 18.3923 32.144C21.3983 31.838 28.1843 31.91 31.3883 32.162C32.0543 33.116 32.5223 37.58 28.1843 37.58C27.2123 37.58 26.7983 37.58 24.4763 37.58C24.4763 37.868 24.4763 38.156 24.4763 38.516C25.5203 38.516 28.4903 38.318 30.0203 38.804C31.1003 41.198 30.2723 43.286 27.6263 43.412C26.7083 43.448 26.1683 43.412 24.4943 43.412C24.4943 43.808 24.4943 44.132 24.4943 44.51C24.6203 44.51 24.7643 44.51 24.9083 44.51C26.8343 44.51 28.7603 44.51 30.6863 44.51C32.0543 46.436 31.5863 49.55 28.1663 50C26.6723 50.198 21.9743 50.234 20.6783 49.928C18.9863 49.496 18.2483 48.29 18.1043 45.842ZM36.5214 38.714C38.7354 38.372 44.3874 38.48 47.5014 38.912C49.1754 40.46 48.5814 44.51 44.4054 45.32C42.7674 45.644 35.8374 45.842 33.6054 45.248C32.0934 43.538 32.0754 39.398 36.5214 38.714ZM62.4246 41.558C63.0186 42.89 64.5486 45.752 65.2326 47.588C65.0706 50.216 60.6066 52.502 58.4646 48.308C58.1406 47.696 57.6546 46.508 57.1866 45.338C56.2866 47.336 55.2966 49.514 55.0266 50.144C49.9326 51.314 49.2666 47.588 49.7526 46.04C50.3106 44.168 51.3906 42.764 52.0566 41.468C52.1286 41.306 52.1286 41.054 52.0386 40.928C51.0486 38.75 50.0226 36.59 48.9966 34.43C49.4826 31.838 54.2346 30.668 55.4766 33.134C56.1606 34.43 56.7906 35.942 57.3306 37.328C58.1766 35.6 59.2206 33.548 60.3006 31.874C62.6046 31.082 66.1326 32.918 64.8906 36.338C64.3146 37.886 63.4506 39.128 62.4966 41.018C62.4066 41.162 62.3886 41.396 62.4246 41.558ZM66.409 45.842C66.265 43.376 66.337 35.186 66.697 32.144C69.703 31.838 76.489 31.91 79.693 32.162C80.359 33.116 80.827 37.58 76.489 37.58C75.517 37.58 75.103 37.58 72.781 37.58C72.781 37.868 72.781 38.156 72.781 38.516C73.825 38.516 76.795 38.318 78.325 38.804C79.405 41.198 78.577 43.286 75.931 43.412C75.013 43.448 74.473 43.412 72.799 43.412C72.799 43.808 72.799 44.132 72.799 44.51C72.925 44.51 73.069 44.51 73.213 44.51C75.139 44.51 77.065 44.51 78.991 44.51C80.359 46.436 79.891 49.55 76.471 50C74.977 50.198 70.279 50.234 68.983 49.928C67.291 49.496 66.553 48.29 66.409 45.842Z" fill="#9D182B"/>
</svg>
