<svg width="249" height="23" viewBox="0 0 249 23" fill="none" xmlns="http://www.w3.org/2000/svg">
<path d="M8.40091 12.152C8.38291 12.152 8.36491 12.152 8.34691 12.152C8.36491 12.152 8.38291 12.152 8.40091 12.152ZM15.0429 5.384C16.0509 7.832 17.4369 14.006 18.1569 17.876C17.4729 20.252 12.1629 21.62 11.2629 17.48C10.4709 13.736 9.82291 9.848 9.55291 7.724C9.49891 7.724 9.44491 7.724 9.37291 7.724C9.03091 9.182 8.68891 10.64 8.34691 12.152C7.73491 14.762 6.99691 18.794 6.72691 19.766C2.15491 21.44 0.0309141 18.542 0.840914 14.33C1.56091 10.604 3.61291 4.556 4.80091 2.234C7.37491 1.406 12.9189 0.236 15.0429 5.384ZM29.2823 7.688C28.1843 7.4 27.3203 7.508 26.4023 7.958C25.1423 8.606 24.7823 10.118 24.9803 11.522C25.2683 13.664 27.1403 14.456 28.9583 14.168C30.2003 14.024 31.7483 12.998 32.1983 12.746C34.7363 13.196 36.3923 17.552 31.7663 19.73C29.8403 20.63 26.7083 20.522 24.6203 20C21.4703 19.172 19.5083 17.174 18.6263 14.114C18.0323 11.972 17.9423 9.812 18.6803 7.688C19.4903 5.294 21.4703 3.494 23.3963 2.612C25.7723 1.532 30.0743 1.154 33.9623 3.386C34.8443 6.824 31.6403 8.642 29.2823 7.688ZM39.0283 20.234C38.6683 20.18 38.2903 20.144 37.9303 20.072C36.5263 19.748 35.6623 18.83 35.5363 17.426C35.4643 16.832 35.4823 16.202 35.5903 15.608C35.7703 14.492 36.4903 13.772 37.5703 13.43C38.3443 13.16 39.1543 13.106 39.9643 13.286C41.6203 13.664 42.6463 15.068 42.5023 16.796C42.4663 17.282 42.3763 17.804 42.1963 18.254C41.6923 19.532 40.5583 20.216 39.0283 20.234ZM39.4243 10.208C39.0643 10.154 38.6863 10.118 38.3263 10.028C36.9223 9.722 36.0763 8.804 35.9323 7.382C35.8603 6.788 35.8783 6.158 35.9863 5.582C36.1663 4.448 36.8863 3.728 37.9663 3.386C38.7403 3.134 39.5503 3.08 40.3603 3.26C42.0163 3.62 43.0423 5.024 42.8983 6.752C42.8623 7.256 42.7723 7.76 42.5923 8.21C42.0883 9.488 40.9543 10.172 39.4243 10.208ZM72.043 6.986C72.925 9.326 73.015 11.972 72.259 14.384C71.989 15.266 70.711 18.272 68.119 18.236C65.977 18.218 64.807 16.994 64.249 15.374C63.403 15.554 62.341 15.482 61.603 15.284C60.163 14.924 59.245 13.988 58.849 12.584C58.579 11.612 58.579 10.622 58.867 9.65C59.515 7.544 61.765 6.716 64.123 6.77C65.473 6.806 66.427 7.184 66.481 9.002C66.517 10.19 66.427 11.504 66.481 12.35C66.589 13.898 66.805 14.636 67.813 14.6C68.839 14.582 69.577 12.08 69.451 10.46C69.127 6.068 66.031 4.34 63.133 4.34C60.109 4.34 56.815 6.5 57.121 11.378C57.409 16.094 61.657 17.48 63.799 17.354C65.671 18.272 65.329 20.396 63.763 20.486C57.625 20.81 54.403 16.4 53.827 13.88C53.269 11.504 53.269 9.146 54.277 6.86C55.447 4.25 57.679 1.712 62.593 1.55C66.265 1.424 67.543 1.874 69.379 3.314C70.603 4.286 71.503 5.51 72.043 6.986ZM63.601 12.62C63.655 12.62 63.709 12.602 63.763 12.602C63.709 11.486 63.709 10.622 63.673 9.416C62.503 9.362 61.801 9.884 61.801 11.468C61.945 12.44 62.755 12.746 63.601 12.62ZM85.7299 7.688C84.6319 7.418 83.8579 7.454 82.8859 8.066C81.6079 8.858 81.3379 10.226 81.5359 11.63C81.8239 13.754 83.5879 14.438 85.4239 14.168C86.6479 14.006 88.1959 12.98 88.6279 12.71C91.1659 13.196 92.8219 17.552 88.2319 19.712C86.3059 20.612 83.1559 20.486 81.0679 19.964C77.9359 19.154 75.9739 17.138 75.0919 14.078C74.4979 11.954 74.4259 9.812 75.1459 7.688C75.9559 5.294 77.6119 3.728 79.8619 2.612C82.8679 1.154 86.5399 1.154 90.4099 3.386C91.3099 6.824 88.0879 8.642 85.7299 7.688ZM100.361 1.64C106.499 1.604 108.533 5.798 109.073 7.22C109.919 9.524 110.117 11.864 109.397 14.24C108.425 17.372 106.319 19.352 103.115 20.108C100.523 20.738 97.9852 20.54 95.5912 19.298C93.3052 18.128 91.9912 16.202 91.4332 13.736C90.8932 11.414 91.0372 8.75 91.8832 6.896C93.0172 4.358 95.4112 1.658 100.361 1.64ZM100.451 8.084C99.1192 8.084 97.9312 9.218 98.0752 11.36C98.2012 13.448 99.5872 14.186 100.523 14.114C101.477 14.06 102.647 13.322 102.755 11.288C102.881 9.254 101.729 8.084 100.451 8.084ZM124.783 2.036C125.737 3.296 126.169 7.832 122.137 8.084C121.507 8.12 121.057 8.156 120.967 8.156C121.093 11.504 120.967 16.94 120.625 19.406C119.113 21.08 115.171 20.486 114.379 16.31C114.199 15.302 114.037 11.576 114.091 8.138C112.885 8.228 111.571 8.246 110.401 8.012C109.249 6.518 109.501 2.306 112.921 2.09C115.189 1.946 122.731 2.054 124.783 2.036ZM140.998 2.036C141.952 3.296 142.384 7.832 138.352 8.084C137.722 8.12 137.272 8.156 137.182 8.156C137.308 11.504 137.182 16.94 136.84 19.406C135.328 21.08 131.386 20.486 130.594 16.31C130.414 15.302 130.252 11.576 130.306 8.138C129.1 8.228 127.786 8.246 126.616 8.012C125.464 6.518 125.716 2.306 129.136 2.09C131.404 1.946 138.946 2.054 140.998 2.036ZM153.961 9.866C158.533 12.692 156.733 18.326 153.349 19.712C150.973 20.666 145.393 21.116 142.153 18.452C140.407 16.256 142.423 12.566 145.357 14.024C147.895 15.284 149.713 15.464 150.001 14.366C150.199 13.646 150.181 13.43 148.831 13.34C145.915 13.124 142.765 11.468 142.207 8.084C141.973 6.572 142.585 3.026 146.905 1.874C149.281 1.226 152.575 1.532 154.123 2.558C157.273 4.646 155.617 7.706 153.547 8.192C152.233 6.572 148.147 6.374 148.111 7.958C148.111 8.354 148.381 8.588 149.299 8.714C151.927 9.056 153.313 9.47 153.961 9.866ZM175.31 13.88C174.77 18.47 170.612 20.486 166.868 20.486C163.106 20.486 158.876 19.766 158.084 13.952C157.616 10.676 157.94 6.32 158.444 2.594C159.236 1.712 164.6 1.064 165.032 4.34C165.14 5.276 164.96 11.396 165.392 13.988C165.662 15.572 167.84 15.896 168.218 13.916C168.65 11.756 168.848 5.762 168.326 3.044C169.73 1.604 175.04 1.1 175.436 5.51C175.67 7.976 175.886 8.858 175.31 13.88ZM187.898 7.832C186.818 7.562 186.044 7.616 185.09 8.228C183.83 9.002 183.56 10.37 183.758 11.738C183.938 13.376 185.108 14.276 186.386 14.258C188.348 14.258 188.384 12.422 188.42 11.036C189.266 9.884 194.108 10.064 194.288 13.196C194.432 15.518 192.938 20.252 186.17 20.252C180.302 20.252 178.232 16.94 177.386 14.474C176.666 12.422 176.72 9.938 177.422 7.832C178.214 5.474 179.87 3.908 182.102 2.828C185.09 1.37 188.708 1.37 192.542 3.584C193.424 7.004 190.238 8.786 187.898 7.832ZM206.636 9.884C206.636 7.454 206.636 5.636 206.636 3.152C208.832 0.488 213.152 1.964 213.152 5.006C213.152 7.202 213.314 15.482 213.044 19.118C211.496 20.666 207.608 21.008 205.394 18.002C204.386 16.616 203.144 14.204 202.73 13.556C202.676 13.448 202.586 13.358 202.514 13.25C202.478 13.25 202.424 13.268 202.388 13.268C202.442 15.428 202.604 16.634 202.55 19.208C199.598 21.62 196.088 19.64 196.016 17.48C195.872 13.034 195.818 5.15 196.034 3.026C197.744 1.568 201.47 1.082 203.18 3.98C204.422 6.086 205.034 7.238 206.33 9.524C206.402 9.668 206.492 9.794 206.564 9.92C206.582 9.902 206.618 9.902 206.636 9.884ZM222.718 8.912C223.024 8.264 224.914 3.548 225.778 1.892C228.352 1.19 231.394 3.152 230.026 6.374C228.838 9.146 227.65 10.802 226.066 14.222C225.886 14.546 225.796 14.852 225.796 15.212C225.814 16.796 225.742 19.262 225.742 19.532C224.968 20.576 219.37 21.17 219.208 17.246C219.19 16.814 219.226 15.302 219.226 15.068C219.208 14.762 219.154 14.618 219.028 14.366C217.57 11.576 215.266 7.058 213.988 3.944C215.194 1.046 218.92 0.92 219.856 2.684C220.63 4.124 221.692 6.896 222.358 8.372C222.43 8.552 222.502 8.714 222.574 8.894C222.628 8.894 222.682 8.894 222.718 8.912ZM231.218 14.618C231.92 11 233.846 4.718 234.998 2.468C237.464 1.658 242.828 0.524 244.88 5.528C245.852 7.904 247.778 14.294 248.462 18.074C248.21 20.036 242.72 22.268 241.298 17.336C240.164 17.282 238.904 17.354 237.752 17.318C237.446 18.074 237.158 18.974 236.906 19.91C232.478 21.53 230.444 18.704 231.218 14.618ZM238.4 12.116C239.174 12.116 239.876 12.116 240.614 12.116C240.272 10.658 239.912 9.236 239.57 7.796C239.516 7.814 239.462 7.814 239.408 7.814C239.084 9.236 238.742 10.64 238.4 12.116Z" fill="#9D182B"/>
</svg>
