<svg width="123" height="22" viewBox="0 0 123 22" fill="none" xmlns="http://www.w3.org/2000/svg">
<path d="M9.43841 7.49C9.76241 6.86 11.7424 2.774 12.4444 1.856C15.2884 1.154 18.8884 3.26 17.2504 6.464C16.1524 8.606 10.4824 18.128 9.06041 19.82C5.13641 21.8 2.18441 18.542 4.12841 15.374C5.17241 13.646 5.02841 14.06 5.44241 13.268C5.56841 13.016 5.38841 12.674 5.24441 12.422C3.64241 9.614 2.11241 7.436 0.70841 4.286C2.02241 1.37 5.91041 1.1 6.95441 2.864C7.80041 4.322 8.28641 5.474 9.04241 6.968C9.11441 7.13 9.20441 7.31 9.27641 7.49C9.33041 7.49 9.38441 7.49 9.43841 7.49ZM28.9439 7.688C27.8459 7.4 26.9819 7.508 26.0639 7.958C24.8039 8.606 24.4439 10.118 24.6419 11.522C24.9299 13.664 26.8019 14.456 28.6199 14.168C29.8619 14.024 31.4099 12.998 31.8599 12.746C34.3979 13.196 36.0539 17.552 31.4279 19.73C29.5019 20.63 26.3699 20.522 24.2819 20C21.1319 19.172 19.1699 17.174 18.2879 14.114C17.6939 11.972 17.6039 9.812 18.3419 7.688C19.1519 5.294 21.1319 3.494 23.0579 2.612C25.4339 1.532 29.7359 1.154 33.6239 3.386C34.5059 6.824 31.3019 8.642 28.9439 7.688ZM42.92 12.152C42.902 12.152 42.884 12.152 42.866 12.152C42.884 12.152 42.902 12.152 42.92 12.152ZM49.562 5.384C50.57 7.832 51.956 14.006 52.676 17.876C51.992 20.252 46.682 21.62 45.782 17.48C44.99 13.736 44.342 9.848 44.072 7.724C44.018 7.724 43.964 7.724 43.892 7.724C43.55 9.182 43.208 10.64 42.866 12.152C42.254 14.762 41.516 18.794 41.246 19.766C36.674 21.44 34.55 18.542 35.36 14.33C36.08 10.604 38.132 4.556 39.32 2.234C41.894 1.406 47.438 0.236 49.562 5.384ZM61.7904 1.64C67.9284 1.604 69.9624 5.798 70.5024 7.22C71.3484 9.524 71.5464 11.864 70.8264 14.24C69.8544 17.372 67.7484 19.352 64.5444 20.108C61.9524 20.738 59.4144 20.54 57.0204 19.298C54.7344 18.128 53.4204 16.202 52.8624 13.736C52.3224 11.414 52.4664 8.75 53.3124 6.896C54.4464 4.358 56.8404 1.658 61.7904 1.64ZM61.8804 8.084C60.5484 8.084 59.3604 9.218 59.5044 11.36C59.6304 13.448 61.0164 14.186 61.9524 14.114C62.9064 14.06 64.0764 13.322 64.1844 11.288C64.3104 9.254 63.1584 8.084 61.8804 8.084ZM84.5006 10.514C86.1026 11.072 87.0386 12.548 87.0026 14.51C86.9486 18.11 84.1766 20.396 79.4606 20.396C75.2306 20.396 72.9266 18.434 72.5126 14.708C72.1886 11.882 72.3506 6.536 72.6746 2.954C75.5546 1.244 81.9266 1.334 84.0866 2.774C86.9486 4.682 86.8766 8.39 84.8606 10.19C84.7706 10.28 84.6626 10.37 84.5006 10.514ZM78.7406 14.942C79.1726 15.176 79.7666 15.194 80.2346 14.978C80.7566 14.762 80.9546 14.294 80.9006 13.718C80.8646 13.232 80.5226 12.908 80.0726 12.8C79.7126 12.728 79.0826 12.692 78.7586 13.016C78.7226 13.646 78.7406 14.294 78.7406 14.942ZM78.6146 8.588C79.1726 8.912 80.1806 8.804 80.1626 7.652C80.1266 6.662 78.8846 6.662 78.6146 7.022C78.4706 7.364 78.4346 8.03 78.6146 8.588ZM94.4978 9.704C94.5158 9.722 94.5338 9.722 94.5698 9.74C94.6418 9.596 94.7318 9.47 94.8038 9.344C96.1178 6.968 97.7198 4.034 98.5658 2.594C100.6 1.406 105.064 1.55 105.298 5.276C105.478 8.192 105.244 16.112 105.064 19.334C101.968 21.35 98.8358 19.892 98.6918 17.156C98.6378 16.058 98.7098 15.428 98.7818 13.196C98.7278 13.196 98.6918 13.178 98.6378 13.178C98.5658 13.286 98.4938 13.376 98.4218 13.502C98.0078 14.15 95.5058 18.488 94.8758 19.496C91.9238 21.404 88.4498 19.82 88.0178 16.22C87.6758 13.322 87.8198 4.862 87.9098 2.9C89.7998 0.866 94.2098 1.928 94.4618 4.484C94.6598 6.518 94.4978 7.184 94.4978 9.704ZM121.602 3.422C122.196 5.6 122.07 16.436 122.07 19.082C119.784 20.828 115.662 20.63 115.284 16.76C115.212 15.932 115.212 15.518 115.212 15.266C114.672 17.03 113.646 19.082 112.278 20.324C109.488 21.116 106.05 18.47 108.3 15.446C108.714 14.87 109.02 14.42 109.254 14.006C109.128 13.934 109.002 13.844 108.876 13.754C105.294 11.054 105.978 5.132 108.84 3.224C112.458 0.794 120.036 1.892 121.602 3.422ZM114.816 7.796C113.646 7.076 112.458 7.904 112.458 8.642C112.458 9.344 112.71 9.74 113.268 9.83C113.7 9.92 114.168 9.902 114.618 9.902C114.672 9.902 114.816 9.758 114.816 9.686C114.834 9.056 114.816 8.552 114.816 7.796Z" fill="#9D182B"/>
</svg>
