<svg width="54" height="51" viewBox="0 0 54 51" fill="none" xmlns="http://www.w3.org/2000/svg">
<path d="M23.4371 2.98144C24.9217 0.0724344 29.0783 0.0724349 30.5629 2.98144L35.6677 12.9844C36.2489 14.1232 37.3395 14.9156 38.6023 15.1165L49.6931 16.8804C52.9185 17.3933 54.2029 21.3465 51.895 23.6573L43.9592 31.6034C43.0557 32.5081 42.6391 33.7902 42.8383 35.0532L44.588 46.1462C45.0968 49.3723 41.734 51.8155 38.8231 50.3346L28.8137 45.2426C27.6741 44.6629 26.3259 44.6629 25.1863 45.2426L15.1769 50.3346C12.266 51.8155 8.90321 49.3723 9.41204 46.1462L11.1617 35.0532C11.3609 33.7902 10.9443 32.5081 10.0408 31.6034L2.10495 23.6573C-0.202923 21.3465 1.08154 17.3933 4.30692 16.8804L15.3977 15.1165C16.6605 14.9156 17.7511 14.1232 18.3323 12.9844L23.4371 2.98144Z" fill="#F494A5"/>
</svg>
