<svg width="535" height="56" viewBox="0 0 535 56" fill="none" xmlns="http://www.w3.org/2000/svg">
<path d="M40.768 36.808C41.7807 38.768 41.7153 47.686 41.1273 51.312C38.9387 54.0233 30.7393 54.7747 30.478 46.9347C30.1513 46.9347 29.8573 46.902 29.5633 46.8693C24.9247 47.0653 17.542 47.196 11.8907 47.1307C11.956 48.666 12.0867 50.3973 11.9887 52.6187C6.92533 55.918 1.14333 53.9253 0.849333 46.4773C0.751333 43.864 0.686 37.9513 7.18667 36.2527C8.526 29.7193 11.8907 19.6907 13.8833 15.8033C18.326 14.3333 27.8973 12.308 31.5887 21.2587C32.7973 24.1987 34.3 30.242 35.5413 35.926C37.6647 36.1547 39.494 36.4487 40.768 36.808ZM19.4693 35.436C20.8413 35.4033 22.2787 35.4033 23.716 35.4033C22.9647 31.3853 22.4093 27.694 22.0827 25.342C21.9847 25.342 21.8867 25.342 21.7887 25.342C21.2007 27.8573 20.6127 30.4053 19.992 33.0187C19.8287 33.77 19.6653 34.5867 19.4693 35.436ZM43.9097 39.454C43.6484 34.9787 43.7791 20.1153 44.4324 14.5947C49.8877 14.0393 62.2031 14.17 68.0177 14.6273C69.2264 16.3587 70.0757 24.46 62.2031 24.46C60.4391 24.46 59.6877 24.46 55.4737 24.46C55.4737 24.9827 55.4737 25.5053 55.4737 26.1587C57.3684 26.1587 62.7584 25.7993 65.5351 26.6813C67.4951 31.026 65.9924 34.8153 61.1904 35.044C59.5244 35.1093 58.5444 35.044 55.5064 35.044C55.5064 35.7627 55.5064 36.3507 55.5064 37.0367C55.7351 37.0367 55.9964 37.0367 56.2577 37.0367C59.7531 37.0367 63.2484 37.0367 66.7437 37.0367C69.2264 40.532 68.3771 46.1833 62.1704 47C59.4591 47.3593 50.9331 47.4247 48.5811 46.8693C45.5104 46.0853 44.1711 43.8967 43.9097 39.454ZM97.8807 14.3333C99.6447 16.62 100.494 24.7867 93.0134 25.244C91.8374 25.3093 91.0207 25.3747 90.89 25.3747C91.1187 31.418 90.8574 41.5773 90.2367 46.0527C87.3947 49.0907 80.11 47.98 78.6727 40.4993C78.346 38.67 78.052 31.516 78.1174 25.3747C75.9287 25.5053 73.4787 25.538 71.3227 25.146C69.1994 22.4347 69.6567 14.8233 75.9614 14.4313C80.1754 14.2027 94.124 14.366 97.8807 14.3333ZM96.8791 36.906C98.2185 30.0787 101.942 19.0047 104.131 14.7907C108.737 13.2227 118.831 11.0993 122.718 20.5073C124.515 24.9827 128.043 36.2853 129.317 43.4067C128.86 47.098 118.537 51.2793 115.858 42.002C113.735 41.904 111.35 42.0347 109.194 41.9693C108.606 43.4067 108.051 45.1053 107.594 46.8367C99.2638 49.8747 95.4745 44.5827 96.8791 36.906ZM110.501 32.9207C111.971 32.9207 113.31 32.9207 114.682 32.9207C113.996 30.1767 113.343 27.4653 112.722 24.7867C112.592 24.8193 112.494 24.8193 112.396 24.8193C111.808 27.4653 111.154 30.144 110.501 32.9207ZM144.36 32.7573C144.328 32.7573 144.295 32.7573 144.262 32.7573C144.295 32.7573 144.328 32.7573 144.36 32.7573ZM156.414 20.4747C158.244 24.9173 160.759 36.122 162.066 43.1453C160.824 47.4573 151.188 49.94 149.554 42.4267C148.117 35.632 146.941 28.576 146.451 24.7213C146.353 24.7213 146.255 24.7213 146.124 24.7213C145.504 27.3673 144.883 30.0133 144.262 32.7573C143.152 37.494 141.812 44.8113 141.322 46.5753C133.025 49.6133 129.17 44.354 130.64 36.71C131.947 29.948 135.671 18.972 137.827 14.758C142.498 13.2553 152.56 11.132 156.414 20.4747ZM175.327 28.3147C175.359 28.3473 175.392 28.3473 175.457 28.38C175.588 28.1187 175.751 27.89 175.882 27.6613C178.267 23.3493 181.174 18.0247 182.709 15.4113C186.401 13.2553 194.502 13.5167 194.927 20.2787C195.253 25.5707 194.829 39.944 194.502 45.7913C188.883 49.45 183.199 46.804 182.938 41.8387C182.84 39.846 182.971 38.7027 183.101 34.652C183.003 34.652 182.938 34.6193 182.84 34.6193C182.709 34.8153 182.579 34.9787 182.448 35.2073C181.697 36.3833 177.156 44.256 176.013 46.0853C170.655 49.548 164.351 46.6733 163.567 40.14C162.946 34.8807 163.207 19.5273 163.371 15.9667C166.801 12.2753 174.804 14.2027 175.261 18.8413C175.621 22.5327 175.327 23.7413 175.327 28.3147ZM221.478 29.4253C227.096 33.4433 224.483 43.766 218.309 46.2487C214.03 47.98 203.903 48.764 197.99 43.9947C194.854 40.042 198.513 33.4433 203.838 36.024C208.444 38.3107 211.351 37.984 211.874 35.9913C212.462 33.77 210.698 33.1493 206.19 33.28C203.609 31.908 202.988 25.8647 207.921 25.7667C211.024 25.734 211.906 25.6033 211.874 24.4273C211.841 21.5853 205.667 23.382 203.086 25.048C200.048 23.6107 198.186 16.816 202.694 15.0193C207.137 13.2553 212.102 13.6147 214.716 14.4313C222.425 16.816 223.176 22.9247 222.85 25.6687C222.654 27.106 222.229 28.38 221.478 29.4253ZM238.347 28.3147C238.38 28.3473 238.413 28.3473 238.478 28.38C238.609 28.1187 238.772 27.89 238.903 27.6613C241.287 23.3493 244.195 18.0247 245.73 15.4113C249.421 13.2553 257.523 13.5167 257.947 20.2787C258.274 25.5707 257.849 39.944 257.523 45.7913C251.904 49.45 246.22 46.804 245.959 41.8387C245.861 39.846 245.991 38.7027 246.122 34.652C246.024 34.652 245.959 34.6193 245.861 34.6193C245.73 34.8153 245.599 34.9787 245.469 35.2073C244.717 36.3833 240.177 44.256 239.033 46.0853C233.676 49.548 227.371 46.6733 226.587 40.14C225.967 34.8807 226.228 19.5273 226.391 15.9667C229.821 12.2753 237.825 14.2027 238.282 18.8413C238.641 22.5327 238.347 23.7413 238.347 28.3147ZM284.839 35.5993C279.874 39.3233 274.027 37.8207 273.537 37.5267C273.504 37.494 273.504 37.494 273.471 37.5267C273.439 37.5267 273.373 37.5593 273.341 37.5593C273.308 37.5593 273.308 37.592 273.308 37.6247C273.308 38.2127 273.341 42.394 272.981 45.8893C270.237 48.862 262.789 48.1433 261.385 40.7607C260.829 37.8533 260.699 20.8013 261.744 16.8487C264.586 14.1047 278.339 12.0793 284.905 16.4893C290.099 19.9847 291.373 30.732 284.839 35.5993ZM278.339 26.3547C278.339 24.9827 276.215 23.5127 274.059 24.7867C274.059 26.1587 274.059 27.106 274.092 28.2167C274.092 28.38 274.321 28.6087 274.451 28.6087C275.268 28.6087 276.085 28.6413 276.901 28.5107C277.881 28.3147 278.339 27.6287 278.339 26.3547ZM307.327 13.68C318.467 13.6147 322.158 21.226 323.138 23.8067C324.673 27.988 325.033 32.2347 323.726 36.5467C321.962 42.2307 318.14 45.824 312.325 47.196C307.621 48.3393 303.015 47.98 298.671 45.726C294.522 43.6027 292.137 40.1073 291.125 35.632C290.145 31.418 290.406 26.5833 291.941 23.2187C293.999 18.6127 298.344 13.7127 307.327 13.68ZM307.491 25.3747C305.073 25.3747 302.917 27.4327 303.179 31.32C303.407 35.1093 305.923 36.4487 307.621 36.318C309.353 36.22 311.476 34.8807 311.672 31.1893C311.901 27.498 309.81 25.3747 307.491 25.3747ZM348.542 29.7847C351.449 30.7973 353.148 33.476 353.083 37.0367C352.985 43.57 347.954 47.7187 339.395 47.7187C331.719 47.7187 327.537 44.158 326.786 37.396C326.198 32.2673 326.492 22.5653 327.08 16.0647C332.307 12.9613 343.871 13.1247 347.791 15.738C352.985 19.2007 352.854 25.93 349.195 29.1967C349.032 29.36 348.836 29.5233 348.542 29.7847ZM338.089 37.8207C338.873 38.2453 339.951 38.278 340.8 37.886C341.747 37.494 342.107 36.6447 342.009 35.5993C341.943 34.7173 341.323 34.1293 340.506 33.9333C339.853 33.8027 338.709 33.7373 338.121 34.3253C338.056 35.4687 338.089 36.6447 338.089 37.8207ZM337.86 26.2893C338.873 26.8773 340.702 26.6813 340.669 24.5907C340.604 22.794 338.35 22.794 337.86 23.4473C337.599 24.068 337.533 25.2767 337.86 26.2893ZM354.99 36.906C356.33 30.0787 360.054 19.0047 362.242 14.7907C366.848 13.2227 376.942 11.0993 380.83 20.5073C382.626 24.9827 386.154 36.2853 387.428 43.4067C386.971 47.098 376.648 51.2793 373.97 42.002C371.846 41.904 369.462 42.0347 367.306 41.9693C366.718 43.4067 366.162 45.1053 365.705 46.8367C357.375 49.8747 353.586 44.5827 354.99 36.906ZM368.612 32.9207C370.082 32.9207 371.422 32.9207 372.794 32.9207C372.108 30.1767 371.454 27.4653 370.834 24.7867C370.703 24.8193 370.605 24.8193 370.507 24.8193C369.919 27.4653 369.266 30.144 368.612 32.9207ZM401.524 25.636C403.68 25.636 405.706 25.636 407.796 25.636C407.894 21.9773 407.829 17.4367 408.123 15.6727C412.141 12.4713 420.112 14.4967 420.112 20.736C420.112 24.0027 420.112 34.4233 420.079 42.7207C420.079 43.864 420.046 45.432 419.981 46.1833C418.511 47.8167 408.776 48.9927 408.025 43.0473C407.796 41.3487 407.731 37.592 407.731 36.1873C405.64 36.1873 403.778 36.1873 401.622 36.1873C401.622 39.3887 401.622 42.8187 401.622 46.216C399.826 47.8493 390.058 49.646 389.503 41.61C389.242 38.0167 388.85 22.108 389.242 16.1627C393.586 12.5693 400.936 14.366 401.426 19.3313C401.72 22.206 401.524 25.3093 401.524 25.636ZM435.307 25.636C437.463 25.636 439.489 25.636 441.579 25.636C441.677 21.9773 441.612 17.4367 441.906 15.6727C445.924 12.4713 453.895 14.4967 453.895 20.736C453.895 24.0027 453.895 34.4233 453.862 42.7207C453.862 43.864 453.829 45.432 453.764 46.1833C452.294 47.8167 442.559 48.9927 441.808 43.0473C441.579 41.3487 441.514 37.592 441.514 36.1873C439.423 36.1873 437.561 36.1873 435.405 36.1873C435.405 39.3887 435.405 42.8187 435.405 46.216C433.609 47.8493 423.841 49.646 423.286 41.61C423.025 38.0167 422.633 22.108 423.025 16.1627C427.369 12.5693 434.719 14.366 435.209 19.3313C435.503 22.206 435.307 25.3093 435.307 25.636ZM498.981 20.8013C497.772 12.9613 490.455 12.9613 487.449 15.64C486.371 19.6253 486.763 37.3633 487.319 40.2707C488.723 47.6533 495.91 48.6987 498.621 45.726C499.405 40.238 499.601 24.7213 498.981 20.8013ZM468.96 24.2313C469.417 23.9047 475.297 22.4347 480.263 26.126C486.796 31.026 485.522 41.7733 480.328 45.236C473.762 49.646 460.009 47.6533 457.167 44.8767C456.089 40.924 456.449 18.7433 457.004 15.836C461.577 12.2427 468.339 14.562 468.601 18.384C468.829 21.7813 468.731 23.5453 468.731 24.1007C468.731 24.1333 468.731 24.166 468.764 24.166C468.797 24.1987 468.829 24.1987 468.895 24.2313C468.895 24.2313 468.927 24.2313 468.96 24.2313ZM469.483 36.9387C471.606 38.2453 473.762 36.7427 473.762 35.4033C473.762 34.1293 473.305 33.4107 472.292 33.2473C471.508 33.084 470.691 33.1167 469.875 33.1167C469.744 33.1167 469.483 33.378 469.483 33.5087C469.45 34.652 469.483 35.5667 469.483 36.9387ZM512.396 4.14134C516.382 4.14134 521.445 5.02333 526.247 0.94C529.318 1.26667 531.506 6.134 528.24 9.20467C524.614 12.6673 516.48 13.582 508.901 11.9487C506.745 9.49867 507.235 4.076 512.396 4.14134ZM514.977 28.3147C515.01 28.3473 515.075 28.3473 515.108 28.38C515.271 28.1187 515.402 27.89 515.532 27.6613C517.917 23.3493 520.824 18.0247 522.36 15.4113C526.051 13.2553 534.152 13.5167 534.61 20.2787C534.936 25.5707 534.479 39.944 534.185 45.7913C528.534 49.45 522.85 46.804 522.621 41.8387C522.523 39.846 522.654 38.7027 522.752 34.652C522.654 34.652 522.588 34.6193 522.523 34.6193C522.36 34.8153 522.229 34.9787 522.098 35.2073C521.347 36.3833 516.839 44.256 515.663 46.0853C510.306 49.548 504.001 46.6733 503.217 40.14C502.629 34.8807 502.858 19.5273 503.021 15.9667C506.451 12.2753 514.454 14.2027 514.912 18.8413C515.271 22.5327 514.977 23.7413 514.977 28.3147Z" fill="#9D182B"/>
</svg>
