<svg width="177" height="32" viewBox="0 0 177 32" fill="none" xmlns="http://www.w3.org/2000/svg">
<path d="M12.8323 2.714C18.4223 2.714 25.1823 3.65 25.1823 8.668C25.1823 11.294 25.1823 18.756 25.1823 25.438C25.1823 26.374 25.1563 27.648 25.0783 28.246C23.9343 29.546 16.1863 30.508 15.5623 25.698C15.3803 24.346 15.3543 12.62 15.3543 11.476C13.6903 11.476 12.1823 11.476 10.4663 11.476C10.4663 14.05 10.4663 25.516 10.4663 28.246C9.06226 29.572 1.26226 31.028 0.846258 24.554C0.638258 21.668 0.300258 9.786 0.612258 5.002C3.52426 3.208 9.29626 2.714 12.8323 2.714ZM40.5928 2.48C49.4588 2.428 52.3968 8.486 53.1768 10.54C54.3988 13.868 54.6848 17.248 53.6448 20.68C52.2408 25.204 49.1988 28.064 44.5708 29.156C40.8268 30.066 37.1608 29.78 33.7028 27.986C30.4008 26.296 28.5028 23.514 27.6968 19.952C26.9168 16.598 27.1248 12.75 28.3468 10.072C29.9848 6.406 33.4428 2.506 40.5928 2.48ZM40.7228 11.788C38.7988 11.788 37.0828 13.426 37.2908 16.52C37.4728 19.536 39.4748 20.602 40.8268 20.498C42.2048 20.42 43.8948 19.354 44.0508 16.416C44.2328 13.478 42.5688 11.788 40.7228 11.788ZM81.844 2.714C87.434 2.714 94.194 3.65 94.194 8.668C94.194 11.294 94.194 18.756 94.194 25.438C94.194 26.374 94.168 27.648 94.09 28.246C92.946 29.546 85.198 30.508 84.574 25.698C84.392 24.346 84.366 12.62 84.366 11.476C82.702 11.476 81.194 11.476 79.478 11.476C79.478 14.05 79.478 25.516 79.478 28.246C78.074 29.572 70.274 31.028 69.858 24.554C69.65 21.668 69.312 9.786 69.624 5.002C72.536 3.208 78.308 2.714 81.844 2.714ZM109.605 2.48C118.471 2.428 121.409 8.486 122.189 10.54C123.411 13.868 123.697 17.248 122.657 20.68C121.253 25.204 118.211 28.064 113.583 29.156C109.839 30.066 106.173 29.78 102.715 27.986C99.4126 26.296 97.5146 23.514 96.7086 19.952C95.9286 16.598 96.1366 12.75 97.3586 10.072C98.9966 6.406 102.455 2.506 109.605 2.48ZM109.735 11.788C107.811 11.788 106.095 13.426 106.303 16.52C106.485 19.536 108.487 20.602 109.839 20.498C111.217 20.42 112.907 19.354 113.063 16.416C113.245 13.478 111.581 11.788 109.735 11.788ZM146.906 4.56C147.764 7.706 147.582 23.852 147.582 27.674C144.28 30.196 138.326 29.91 137.78 24.32C137.676 23.124 137.676 22.526 137.676 22.162C136.896 24.71 135.414 27.674 133.438 29.468C129.408 30.612 124.442 26.79 127.692 22.422C128.29 21.59 128.732 20.94 129.07 20.342C128.888 20.238 128.706 20.108 128.524 19.978C123.35 16.078 124.338 7.03 128.472 4.274C133.698 0.764001 144.644 2.35 146.906 4.56ZM137.104 10.878C135.414 9.838 133.698 11.034 133.698 12.1C133.698 13.114 134.062 13.686 134.868 13.816C135.492 13.946 136.168 13.92 136.818 13.92C136.896 13.92 137.104 13.712 137.104 13.608C137.13 12.698 137.104 11.97 137.104 10.878ZM165.79 11.138C164.256 10.722 162.982 10.852 161.708 11.502C159.888 12.412 159.368 14.622 159.654 16.598C160.07 19.718 162.748 20.81 165.374 20.42C167.142 20.186 169.378 18.73 170.028 18.366C173.642 19.016 176.034 25.282 169.378 28.402C166.648 29.676 162.098 29.546 159.16 28.766C154.636 27.596 151.828 24.71 150.528 20.342C149.67 17.274 149.592 14.154 150.632 11.138C151.802 7.68 154.636 5.08 157.366 3.858C160.824 2.298 166.986 1.726 172.524 4.924C173.85 9.89 169.222 12.516 165.79 11.138Z" fill="#9D182B"/>
</svg>
