<svg width="667" height="55" viewBox="0 0 667 55" fill="none" xmlns="http://www.w3.org/2000/svg">
<path d="M166.545 1.802C170.415 1.802 175.095 2.45 175.095 5.924C175.095 7.742 175.095 12.908 175.095 17.534C175.095 18.182 175.077 19.064 175.023 19.478C174.231 20.378 168.867 21.044 168.435 17.714C168.309 16.778 168.291 8.66 168.291 7.868C167.139 7.868 166.095 7.868 164.907 7.868C164.907 9.65 164.907 17.588 164.907 19.478C163.935 20.396 158.535 21.404 158.247 16.922C158.103 14.924 157.869 6.698 158.085 3.386C160.101 2.144 164.097 1.802 166.545 1.802ZM189.562 13.718C186.826 15.77 183.604 14.942 183.334 14.78C183.316 14.762 183.316 14.762 183.298 14.78C183.28 14.78 183.244 14.798 183.226 14.798C183.208 14.798 183.208 14.816 183.208 14.834C183.208 15.158 183.226 17.462 183.028 19.388C181.516 21.026 177.412 20.63 176.638 16.562C176.332 14.96 176.26 5.564 176.836 3.386C178.402 1.874 185.98 0.758001 189.598 3.188C192.46 5.114 193.162 11.036 189.562 13.718ZM185.98 8.624C185.98 7.868 184.81 7.058 183.622 7.76C183.622 8.516 183.622 9.038 183.64 9.65C183.64 9.74 183.766 9.866 183.838 9.866C184.288 9.866 184.738 9.884 185.188 9.812C185.728 9.704 185.98 9.326 185.98 8.624ZM199.724 9.704C199.742 9.722 199.76 9.722 199.796 9.74C199.868 9.596 199.958 9.47 200.03 9.344C201.344 6.968 202.946 4.034 203.792 2.594C205.826 1.406 210.29 1.55 210.524 5.276C210.704 8.192 210.47 16.112 210.29 19.334C207.194 21.35 204.062 19.892 203.918 17.156C203.864 16.058 203.936 15.428 204.008 13.196C203.954 13.196 203.918 13.178 203.864 13.178C203.792 13.286 203.72 13.376 203.648 13.502C203.234 14.15 200.732 18.488 200.102 19.496C197.15 21.404 193.676 19.82 193.244 16.22C192.902 13.322 193.046 4.862 193.136 2.9C195.026 0.866 199.436 1.928 199.688 4.484C199.886 6.518 199.724 7.184 199.724 9.704ZM223.714 10.514C225.316 11.072 226.252 12.548 226.216 14.51C226.162 18.11 223.39 20.396 218.674 20.396C214.444 20.396 212.14 18.434 211.726 14.708C211.402 11.882 211.564 6.536 211.888 2.954C214.768 1.244 221.14 1.334 223.3 2.774C226.162 4.682 226.09 8.39 224.074 10.19C223.984 10.28 223.876 10.37 223.714 10.514ZM217.954 14.942C218.386 15.176 218.98 15.194 219.448 14.978C219.97 14.762 220.168 14.294 220.114 13.718C220.078 13.232 219.736 12.908 219.286 12.8C218.926 12.728 218.296 12.692 217.972 13.016C217.936 13.646 217.954 14.294 217.954 14.942ZM217.828 8.588C218.386 8.912 219.394 8.804 219.376 7.652C219.34 6.662 218.098 6.662 217.828 7.022C217.684 7.364 217.648 8.03 217.828 8.588ZM227.322 15.842C227.178 13.376 227.25 5.186 227.61 2.144C230.616 1.838 237.402 1.91 240.606 2.162C241.272 3.116 241.74 7.58 237.402 7.58C236.43 7.58 236.016 7.58 233.694 7.58C233.694 7.868 233.694 8.156 233.694 8.516C234.738 8.516 237.708 8.318 239.238 8.804C240.318 11.198 239.49 13.286 236.844 13.412C235.926 13.448 235.386 13.412 233.712 13.412C233.712 13.808 233.712 14.132 233.712 14.51C233.838 14.51 233.982 14.51 234.126 14.51C236.052 14.51 237.978 14.51 239.904 14.51C241.272 16.436 240.804 19.55 237.384 20C235.89 20.198 231.192 20.234 229.896 19.928C228.204 19.496 227.466 18.29 227.322 15.842ZM257.061 2C258.033 3.26 258.501 7.76 254.379 8.012C253.731 8.048 253.281 8.084 253.209 8.084C253.335 11.414 253.191 17.012 252.849 19.478C251.283 21.152 247.269 20.54 246.477 16.418C246.297 15.41 246.135 11.468 246.171 8.084C244.965 8.156 243.615 8.174 242.427 7.958C241.257 6.464 241.509 2.27 244.983 2.054C247.305 1.928 254.991 2.018 257.061 2ZM265.062 9.704C265.08 9.722 265.098 9.722 265.134 9.74C265.206 9.596 265.296 9.47 265.368 9.344C266.682 6.968 268.284 4.034 269.13 2.594C271.164 1.406 275.628 1.55 275.862 5.276C276.042 8.192 275.808 16.112 275.628 19.334C272.532 21.35 269.4 19.892 269.256 17.156C269.202 16.058 269.274 15.428 269.346 13.196C269.292 13.196 269.256 13.178 269.202 13.178C269.13 13.286 269.058 13.376 268.986 13.502C268.572 14.15 266.07 18.488 265.44 19.496C262.488 21.404 259.014 19.82 258.582 16.22C258.24 13.322 258.384 4.862 258.474 2.9C260.364 0.866 264.774 1.928 265.026 4.484C265.224 6.518 265.062 7.184 265.062 9.704ZM283.67 8.552C284.282 7.616 284.804 6.77 285.344 5.942C286.028 4.916 287.522 2.792 288.188 1.766C290.744 1.226 293.426 3.278 291.932 6.374C290.996 8.354 290.78 8.48 289.646 10.352C289.502 10.568 289.502 10.73 289.628 10.964C290.942 13.448 292.634 16.094 293.318 17.912C292.634 20.27 288.332 22.178 286.424 18.398C286.028 17.642 285.578 16.742 284.732 15.068C284.318 15.734 283.796 16.562 283.742 16.958C283.67 17.336 283.688 18.398 283.778 19.424C282.23 20.756 277.82 20.684 277.388 17.462C276.974 14.438 276.812 6.41 277.154 2.99C278.594 1.154 283.562 1.118 283.688 4.664C283.76 6.824 283.724 6.572 283.67 8.138C283.67 8.246 283.67 8.336 283.67 8.552ZM296.388 20.144C293.994 19.424 293.634 16.85 294.336 15.302C294.84 14.186 295.758 13.376 297.504 13.322C299.79 13.286 300.906 15.05 300.942 16.886C300.978 19.244 299.412 21.782 298.278 23.168C296.784 25.04 294.606 24.302 294.606 23.15C295.182 22.016 295.884 21.116 296.388 20.144ZM321.641 11.216C321.677 11.108 321.713 11 321.749 10.874C322.307 8.498 322.847 6.104 323.405 3.728C323.495 3.368 323.639 3.026 323.765 2.684C326.645 0.794 330.407 2.162 330.857 5.726C331.037 7.076 331.451 10.622 331.703 12.728C331.955 14.78 332.153 16.526 332.387 18.578C330.443 21.098 326.591 20.36 326.285 17.498C326.033 15.356 326.159 14.582 326.051 11.828C326.015 11.828 325.979 11.828 325.943 11.81C325.853 12.188 325.799 12.566 325.709 12.926C325.205 15.032 324.719 17.138 324.197 19.226C323.027 19.964 319.229 20.504 318.491 17.534C318.077 15.806 317.267 12.242 317.051 11.648C316.871 14.402 316.709 16.544 316.529 19.352C313.613 20.936 310.067 20.144 310.805 15.014C311.111 12.89 311.633 10.64 311.975 8.516C312.317 6.536 312.677 4.556 313.019 2.558C314.387 1.262 318.959 0.955999 319.967 4.682C320.309 5.924 320.777 8.012 321.191 9.668C321.209 9.776 321.497 11.108 321.533 11.216C321.569 11.216 321.605 11.216 321.641 11.216ZM342.781 1.64C348.919 1.604 350.953 5.798 351.493 7.22C352.339 9.524 352.537 11.864 351.817 14.24C350.845 17.372 348.739 19.352 345.535 20.108C342.943 20.738 340.405 20.54 338.011 19.298C335.725 18.128 334.411 16.202 333.853 13.736C333.313 11.414 333.457 8.75 334.303 6.896C335.437 4.358 337.831 1.658 342.781 1.64ZM342.871 8.084C341.539 8.084 340.351 9.218 340.495 11.36C340.621 13.448 342.007 14.186 342.943 14.114C343.897 14.06 345.067 13.322 345.175 11.288C345.301 9.254 344.149 8.084 342.871 8.084ZM368.605 3.422C369.199 5.6 369.073 16.436 369.073 19.082C366.787 20.828 362.665 20.63 362.287 16.76C362.215 15.932 362.215 15.518 362.215 15.266C361.675 17.03 360.649 19.082 359.281 20.324C356.491 21.116 353.053 18.47 355.303 15.446C355.717 14.87 356.023 14.42 356.257 14.006C356.131 13.934 356.005 13.844 355.879 13.754C352.297 11.054 352.981 5.132 355.843 3.224C359.461 0.794 367.039 1.892 368.605 3.422ZM361.819 7.796C360.649 7.076 359.461 7.904 359.461 8.642C359.461 9.344 359.713 9.74 360.271 9.83C360.703 9.92 361.171 9.902 361.621 9.902C361.675 9.902 361.819 9.758 361.819 9.686C361.837 9.056 361.819 8.552 361.819 7.796ZM390.407 7.688C389.309 7.4 388.445 7.508 387.527 7.958C386.267 8.606 385.907 10.118 386.105 11.522C386.393 13.664 388.265 14.456 390.083 14.168C391.325 14.024 392.873 12.998 393.323 12.746C395.861 13.196 397.517 17.552 392.891 19.73C390.965 20.63 387.833 20.522 385.745 20C382.595 19.172 380.633 17.174 379.751 14.114C379.157 11.972 379.067 9.812 379.805 7.688C380.615 5.294 382.595 3.494 384.521 2.612C386.897 1.532 391.199 1.154 395.087 3.386C395.969 6.824 392.765 8.642 390.407 7.688ZM404.383 12.152C404.365 12.152 404.347 12.152 404.329 12.152C404.347 12.152 404.365 12.152 404.383 12.152ZM411.025 5.384C412.033 7.832 413.419 14.006 414.139 17.876C413.455 20.252 408.145 21.62 407.245 17.48C406.453 13.736 405.805 9.848 405.535 7.724C405.481 7.724 405.427 7.724 405.355 7.724C405.013 9.182 404.671 10.64 404.329 12.152C403.717 14.762 402.979 18.794 402.709 19.766C398.137 21.44 396.013 18.542 396.823 14.33C397.543 10.604 399.595 4.556 400.783 2.234C403.357 1.406 408.901 0.236 411.025 5.384ZM415.002 14.438C415.74 10.676 417.792 4.574 418.998 2.252C421.536 1.388 427.098 0.218 429.24 5.402C430.23 7.868 432.174 14.096 432.876 18.02C432.624 20.054 426.936 22.358 425.46 17.246C424.29 17.192 422.976 17.264 421.788 17.228C421.464 18.02 421.158 18.956 420.906 19.91C416.316 21.584 414.228 18.668 415.002 14.438ZM422.508 12.242C423.318 12.242 424.056 12.242 424.812 12.242C424.434 10.73 424.074 9.236 423.732 7.76C423.66 7.778 423.606 7.778 423.552 7.778C423.228 9.236 422.868 10.712 422.508 12.242ZM455.354 14.384C455.912 15.464 455.876 20.378 455.552 22.376C454.346 23.87 449.828 24.284 449.684 19.964C449.504 19.964 449.342 19.946 449.18 19.928C446.624 20.036 442.556 20.108 439.442 20.072C439.478 20.918 439.55 21.872 439.496 23.096C436.706 24.914 433.52 23.816 433.358 19.712C433.304 18.272 433.268 15.014 436.85 14.078C437.588 10.478 439.442 4.952 440.54 2.81C442.988 2 448.262 0.884 450.296 5.816C450.962 7.436 451.79 10.766 452.474 13.898C453.644 14.024 454.652 14.186 455.354 14.384ZM443.618 13.628C444.374 13.61 445.166 13.61 445.958 13.61C445.544 11.396 445.238 9.362 445.058 8.066C445.004 8.066 444.95 8.066 444.896 8.066C444.572 9.452 444.248 10.856 443.906 12.296C443.816 12.71 443.726 13.16 443.618 13.628ZM462.659 7.49C462.983 6.86 464.963 2.774 465.665 1.856C468.509 1.154 472.109 3.26 470.471 6.464C469.373 8.606 463.703 18.128 462.281 19.82C458.357 21.8 455.405 18.542 457.349 15.374C458.393 13.646 458.249 14.06 458.663 13.268C458.789 13.016 458.609 12.674 458.465 12.422C456.863 9.614 455.333 7.436 453.929 4.286C455.243 1.37 459.131 1.1 460.175 2.864C461.021 4.322 461.507 5.474 462.263 6.968C462.335 7.13 462.425 7.31 462.497 7.49C462.551 7.49 462.605 7.49 462.659 7.49ZM481.532 7.688C480.434 7.4 479.57 7.508 478.652 7.958C477.392 8.606 477.032 10.118 477.23 11.522C477.518 13.664 479.39 14.456 481.208 14.168C482.45 14.024 483.998 12.998 484.448 12.746C486.986 13.196 488.642 17.552 484.016 19.73C482.09 20.63 478.958 20.522 476.87 20C473.72 19.172 471.758 17.174 470.876 14.114C470.282 11.972 470.192 9.812 470.93 7.688C471.74 5.294 473.72 3.494 475.646 2.612C478.022 1.532 482.324 1.154 486.212 3.386C487.094 6.824 483.89 8.642 481.532 7.688ZM502.049 3.422C502.643 5.6 502.517 16.436 502.517 19.082C500.231 20.828 496.109 20.63 495.731 16.76C495.659 15.932 495.659 15.518 495.659 15.266C495.119 17.03 494.093 19.082 492.725 20.324C489.935 21.116 486.497 18.47 488.747 15.446C489.161 14.87 489.467 14.42 489.701 14.006C489.575 13.934 489.449 13.844 489.323 13.754C485.741 11.054 486.425 5.132 489.287 3.224C492.905 0.794 500.483 1.892 502.049 3.422ZM495.263 7.796C494.093 7.076 492.905 7.904 492.905 8.642C492.905 9.344 493.157 9.74 493.715 9.83C494.147 9.92 494.615 9.902 495.065 9.902C495.119 9.902 495.263 9.758 495.263 9.686C495.281 9.056 495.263 8.552 495.263 7.796ZM506.951 20.522C506.591 20.468 506.213 20.432 505.853 20.36C504.449 20.036 503.603 19.118 503.459 17.696C503.405 17.102 503.405 16.49 503.513 15.896C503.693 14.78 504.413 14.042 505.493 13.7C506.267 13.448 507.077 13.394 507.887 13.574C509.543 13.934 510.569 15.338 510.425 17.066C510.389 17.57 510.299 18.074 510.119 18.524C509.615 19.82 508.481 20.504 506.951 20.522ZM15.4167 40.316C18.5127 42.53 17.0727 48.218 13.6707 49.586C11.3127 50.54 5.73266 50.972 2.47466 48.344C0.746664 46.166 2.76266 42.53 5.69666 43.952C8.23466 45.212 10.6107 45.248 10.8987 44.15C11.2227 42.926 9.47666 42.368 6.99266 42.44C5.57066 41.684 5.22866 38.354 7.94666 38.3C9.65666 38.282 10.8447 38.084 10.8267 37.436C10.8087 35.87 6.79466 36.446 5.37266 37.364C3.69866 36.572 2.58266 33.368 5.06666 32.378C7.51466 31.406 10.2507 31.604 11.6907 32.054C15.9387 33.368 16.3527 36.734 16.1727 38.246C16.0647 39.038 15.8307 39.74 15.4167 40.316ZM38.3966 44.384C38.9546 45.464 38.9186 50.378 38.5946 52.376C37.3886 53.87 32.8706 54.284 32.7266 49.964C32.5466 49.964 32.3846 49.946 32.2226 49.928C29.6666 50.036 25.5986 50.108 22.4846 50.072C22.5206 50.918 22.5926 51.872 22.5386 53.096C19.7486 54.914 16.5626 53.816 16.4006 49.712C16.3466 48.272 16.3106 45.014 19.8926 44.078C20.6306 40.478 22.4846 34.952 23.5826 32.81C26.0306 32 31.3046 30.884 33.3386 35.816C34.0046 37.436 34.8326 40.766 35.5166 43.898C36.6866 44.024 37.6946 44.186 38.3966 44.384ZM26.6606 43.628C27.4166 43.61 28.2086 43.61 29.0006 43.61C28.5866 41.396 28.2806 39.362 28.1006 38.066C28.0466 38.066 27.9926 38.066 27.9386 38.066C27.6146 39.452 27.2906 40.856 26.9486 42.296C26.8586 42.71 26.7686 43.16 26.6606 43.628ZM40.1278 45.842C39.9838 43.376 40.0558 35.186 40.4158 32.144C43.4218 31.838 50.2078 31.91 53.4118 32.162C54.0778 33.116 54.5458 37.58 50.2078 37.58C49.2358 37.58 48.8218 37.58 46.4998 37.58C46.4998 37.868 46.4998 38.156 46.4998 38.516C47.5438 38.516 50.5138 38.318 52.0438 38.804C53.1238 41.198 52.2958 43.286 49.6498 43.412C48.7318 43.448 48.1918 43.412 46.5178 43.412C46.5178 43.808 46.5178 44.132 46.5178 44.51C46.6438 44.51 46.7878 44.51 46.9318 44.51C48.8578 44.51 50.7838 44.51 52.7098 44.51C54.0778 46.436 53.6098 49.55 50.1898 50C48.6958 50.198 43.9978 50.234 42.7018 49.928C41.0098 49.496 40.2718 48.29 40.1278 45.842ZM65.4181 37.688C64.3201 37.4 63.4561 37.508 62.5381 37.958C61.2781 38.606 60.9181 40.118 61.1161 41.522C61.4041 43.664 63.2761 44.456 65.0941 44.168C66.3361 44.024 67.8841 42.998 68.3341 42.746C70.8721 43.196 72.5281 47.552 67.9021 49.73C65.9761 50.63 62.8441 50.522 60.7561 50C57.6061 49.172 55.6441 47.174 54.7621 44.114C54.1681 41.972 54.0781 39.812 54.8161 37.688C55.6261 35.294 57.6061 33.494 59.5321 32.612C61.9081 31.532 66.2101 31.154 70.0981 33.386C70.9801 36.824 67.7761 38.642 65.4181 37.688ZM78.8361 37.31C79.1061 37.148 82.3461 36.32 85.0641 38.372C88.6641 41.072 87.9621 46.976 85.1001 48.902C81.5001 51.332 73.9041 50.216 72.3381 48.704C71.7621 46.526 71.9421 34.304 72.2481 32.702C74.7681 30.722 78.5121 32 78.6561 34.106C78.7821 35.978 78.7101 36.932 78.7101 37.256C78.7101 37.274 78.7281 37.292 78.7281 37.292C78.7641 37.31 78.7821 37.31 78.8001 37.328C78.8181 37.328 78.8361 37.328 78.8361 37.31ZM79.1241 44.33C80.3121 45.05 81.4821 44.222 81.4821 43.466C81.4821 42.764 81.2301 42.386 80.6901 42.278C80.2581 42.206 79.7901 42.224 79.3401 42.224C79.2681 42.224 79.1421 42.368 79.1421 42.44C79.1241 43.07 79.1241 43.574 79.1241 44.33ZM112.714 32C113.686 33.26 114.154 37.76 110.032 38.012C109.384 38.048 108.934 38.084 108.862 38.084C108.988 41.414 108.844 47.012 108.502 49.478C106.936 51.152 102.922 50.54 102.13 46.418C101.95 45.41 101.788 41.468 101.824 38.084C100.618 38.156 99.2676 38.174 98.0796 37.958C96.9096 36.464 97.1616 32.27 100.636 32.054C102.958 31.928 110.644 32.018 112.714 32ZM137.635 35.564C136.969 31.244 132.937 31.244 131.281 32.72C130.687 34.916 130.903 44.69 131.209 46.292C131.983 50.36 135.943 50.936 137.437 49.298C137.869 46.274 137.977 37.724 137.635 35.564ZM121.093 37.454C121.345 37.274 124.585 36.464 127.321 38.498C130.921 41.198 130.219 47.12 127.357 49.028C123.739 51.458 116.161 50.36 114.595 48.83C114.001 46.652 114.199 34.43 114.505 32.828C117.025 30.848 120.751 32.126 120.895 34.232C121.021 36.104 120.967 37.076 120.967 37.382C120.967 37.4 120.967 37.418 120.985 37.418C121.003 37.436 121.021 37.436 121.057 37.454C121.057 37.454 121.075 37.454 121.093 37.454ZM121.381 44.456C122.551 45.176 123.739 44.348 123.739 43.61C123.739 42.908 123.487 42.512 122.929 42.422C122.497 42.332 122.047 42.35 121.597 42.35C121.525 42.35 121.381 42.494 121.381 42.566C121.363 43.196 121.381 43.7 121.381 44.456ZM159.338 37.688C158.24 37.4 157.376 37.508 156.458 37.958C155.198 38.606 154.838 40.118 155.036 41.522C155.324 43.664 157.196 44.456 159.014 44.168C160.256 44.024 161.804 42.998 162.254 42.746C164.792 43.196 166.448 47.552 161.822 49.73C159.896 50.63 156.764 50.522 154.676 50C151.526 49.172 149.564 47.174 148.682 44.114C148.088 41.972 147.998 39.812 148.736 37.688C149.546 35.294 151.526 33.494 153.452 32.612C155.828 31.532 160.13 31.154 164.018 33.386C164.9 36.824 161.696 38.642 159.338 37.688ZM176.608 41.216C176.644 41.108 176.68 41 176.716 40.874C177.274 38.498 177.814 36.104 178.372 33.728C178.462 33.368 178.606 33.026 178.732 32.684C181.612 30.794 185.374 32.162 185.824 35.726C186.004 37.076 186.418 40.622 186.67 42.728C186.922 44.78 187.12 46.526 187.354 48.578C185.41 51.098 181.558 50.36 181.252 47.498C181 45.356 181.126 44.582 181.018 41.828C180.982 41.828 180.946 41.828 180.91 41.81C180.82 42.188 180.766 42.566 180.676 42.926C180.172 45.032 179.686 47.138 179.164 49.226C177.994 49.964 174.196 50.504 173.458 47.534C173.044 45.806 172.234 42.242 172.018 41.648C171.838 44.402 171.676 46.544 171.496 49.352C168.58 50.936 165.034 50.144 165.772 45.014C166.078 42.89 166.6 40.64 166.942 38.516C167.284 36.536 167.644 34.556 167.986 32.558C169.354 31.262 173.926 30.956 174.934 34.682C175.276 35.924 175.744 38.012 176.158 39.668C176.176 39.776 176.464 41.108 176.5 41.216C176.536 41.216 176.572 41.216 176.608 41.216ZM197.748 31.64C203.886 31.604 205.92 35.798 206.46 37.22C207.306 39.524 207.504 41.864 206.784 44.24C205.812 47.372 203.706 49.352 200.502 50.108C197.91 50.738 195.372 50.54 192.978 49.298C190.692 48.128 189.378 46.202 188.82 43.736C188.28 41.414 188.424 38.75 189.27 36.896C190.404 34.358 192.798 31.658 197.748 31.64ZM197.838 38.084C196.506 38.084 195.318 39.218 195.462 41.36C195.588 43.448 196.974 44.186 197.91 44.114C198.864 44.06 200.034 43.322 200.142 41.288C200.268 39.254 199.116 38.084 197.838 38.084ZM228.013 41.45C228.607 42.746 230.137 45.518 230.839 47.318C230.695 49.874 226.375 52.178 224.233 48.11C223.801 47.318 223.099 45.626 222.469 44.132C222.397 46.148 222.253 48.056 222.091 49.226C220.543 50.882 216.547 50.252 215.791 46.13C215.701 45.698 215.629 44.708 215.593 43.448C214.621 45.716 213.163 49.1 212.821 49.892C207.853 51.116 207.151 47.516 207.583 45.986C208.123 44.132 209.185 42.746 209.797 41.468C209.869 41.324 209.833 41.072 209.761 40.928C208.753 38.822 207.727 36.716 206.719 34.61C207.115 32.072 211.741 30.866 213.019 33.278C213.937 35.006 214.873 37.202 215.539 38.876C215.557 36.338 215.683 33.908 215.953 32.918C217.663 31.424 221.749 31.442 222.397 35.852C222.469 36.392 222.523 37.274 222.541 38.354C223.387 36.446 224.557 33.98 225.781 32.018C228.013 31.208 231.487 32.936 230.317 36.32C229.795 37.85 228.949 39.056 228.049 40.91C227.977 41.072 227.941 41.306 228.013 41.45ZM232.002 45.842C231.858 43.376 231.93 35.186 232.29 32.144C235.296 31.838 242.082 31.91 245.286 32.162C245.952 33.116 246.42 37.58 242.082 37.58C241.11 37.58 240.696 37.58 238.374 37.58C238.374 37.868 238.374 38.156 238.374 38.516C239.418 38.516 242.388 38.318 243.918 38.804C244.998 41.198 244.17 43.286 241.524 43.412C240.606 43.448 240.066 43.412 238.392 43.412C238.392 43.808 238.392 44.132 238.392 44.51C238.518 44.51 238.662 44.51 238.806 44.51C240.732 44.51 242.658 44.51 244.584 44.51C245.952 46.436 245.484 49.55 242.064 50C240.57 50.198 235.872 50.234 234.576 49.928C232.884 49.496 232.146 48.29 232.002 45.842ZM274.395 35.6C274.593 37.382 274.557 42.044 274.539 45.122C274.539 46.976 274.179 49.82 269.949 50.072C264.729 50.396 252.759 50.162 252.345 50.144C248.835 49.946 247.467 48.974 247.143 46.238C246.747 42.944 246.729 36.59 247.215 32.864C248.025 31.964 253.371 31.316 253.803 34.592C253.929 35.528 253.965 43.538 253.965 44.33C254.685 44.33 255.909 44.312 257.331 44.312C257.331 42.548 257.331 34.718 257.331 32.846C258.321 31.946 263.703 30.956 264.009 35.384C264.099 36.716 264.225 40.874 264.243 44.438C264.567 44.456 266.133 44.438 267.933 44.42C267.879 41.252 267.879 35.51 268.023 32.792C269.697 31.334 273.945 31.298 274.395 35.6ZM282.681 37.31C282.951 37.148 286.191 36.32 288.909 38.372C292.509 41.072 291.807 46.976 288.945 48.902C285.345 51.332 277.749 50.216 276.183 48.704C275.607 46.526 275.787 34.304 276.093 32.702C278.613 30.722 282.357 32 282.501 34.106C282.627 35.978 282.555 36.932 282.555 37.256C282.555 37.274 282.573 37.292 282.573 37.292C282.609 37.31 282.627 37.31 282.645 37.328C282.663 37.328 282.681 37.328 282.681 37.31ZM282.969 44.33C284.157 45.05 285.327 44.222 285.327 43.466C285.327 42.764 285.075 42.386 284.535 42.278C284.103 42.206 283.635 42.224 283.185 42.224C283.113 42.224 282.987 42.368 282.987 42.44C282.969 43.07 282.969 43.574 282.969 44.33ZM310.942 31.64C317.08 31.604 319.114 35.798 319.654 37.22C320.5 39.524 320.698 41.864 319.978 44.24C319.006 47.372 316.9 49.352 313.696 50.108C311.104 50.738 308.566 50.54 306.172 49.298C303.886 48.128 302.572 46.202 302.014 43.736C301.474 41.414 301.618 38.75 302.464 36.896C303.598 34.358 305.992 31.658 310.942 31.64ZM311.032 38.084C309.7 38.084 308.512 39.218 308.656 41.36C308.782 43.448 310.168 44.186 311.104 44.114C312.058 44.06 313.228 43.322 313.336 41.288C313.462 39.254 312.31 38.084 311.032 38.084ZM334.038 40.316C337.134 42.53 335.694 48.218 332.292 49.586C329.934 50.54 324.354 50.972 321.096 48.344C319.368 46.166 321.384 42.53 324.318 43.952C326.856 45.212 328.458 45.032 328.746 43.934C329.07 42.71 328.098 42.368 325.614 42.44C324.192 41.684 323.85 38.354 326.568 38.3C328.278 38.282 328.764 38.21 328.746 37.562C328.728 35.996 325.326 36.986 323.904 37.904C322.23 37.112 321.204 33.368 323.688 32.378C326.136 31.406 328.872 31.604 330.312 32.054C334.56 33.368 334.974 36.734 334.794 38.246C334.686 39.038 334.452 39.74 334.038 40.316ZM343.783 38.228C344.971 38.228 346.087 38.228 347.239 38.228C347.293 36.212 347.257 33.71 347.419 32.738C349.633 30.974 354.025 32.09 354.025 35.528C354.025 37.328 354.025 43.07 354.007 47.642C354.007 48.272 353.989 49.136 353.953 49.55C353.143 50.45 347.779 51.098 347.365 47.822C347.239 46.886 347.203 44.816 347.203 44.042C346.051 44.042 345.025 44.042 343.837 44.042C343.837 45.806 343.837 47.696 343.837 49.568C342.847 50.468 337.465 51.458 337.159 47.03C337.015 45.05 336.799 36.284 337.015 33.008C339.409 31.028 343.459 32.018 343.729 34.754C343.891 36.338 343.783 38.048 343.783 38.228ZM355.504 44.438C356.242 40.676 358.294 34.574 359.5 32.252C362.038 31.388 367.6 30.218 369.742 35.402C370.732 37.868 372.676 44.096 373.378 48.02C373.126 50.054 367.438 52.358 365.962 47.246C364.792 47.192 363.478 47.264 362.29 47.228C361.966 48.02 361.66 48.956 361.408 49.91C356.818 51.584 354.73 48.668 355.504 44.438ZM363.01 42.242C363.82 42.242 364.558 42.242 365.314 42.242C364.936 40.73 364.576 39.236 364.234 37.76C364.162 37.778 364.108 37.778 364.054 37.778C363.73 39.236 363.37 40.712 363.01 42.242ZM380.768 38.552C381.38 37.616 381.902 36.77 382.442 35.942C383.126 34.916 384.62 32.792 385.286 31.766C387.842 31.226 390.524 33.278 389.03 36.374C388.094 38.354 387.878 38.48 386.744 40.352C386.6 40.568 386.6 40.73 386.726 40.964C388.04 43.448 389.732 46.094 390.416 47.912C389.732 50.27 385.43 52.178 383.522 48.398C383.126 47.642 382.676 46.742 381.83 45.068C381.416 45.734 380.894 46.562 380.84 46.958C380.768 47.336 380.786 48.398 380.876 49.424C379.328 50.756 374.918 50.684 374.486 47.462C374.072 44.438 373.91 36.41 374.252 32.99C375.692 31.154 380.66 31.118 380.786 34.664C380.858 36.824 380.822 36.572 380.768 38.138C380.768 38.246 380.768 38.336 380.768 38.552ZM398.877 31.64C405.015 31.604 407.049 35.798 407.589 37.22C408.435 39.524 408.633 41.864 407.913 44.24C406.941 47.372 404.835 49.352 401.631 50.108C399.039 50.738 396.501 50.54 394.107 49.298C391.821 48.128 390.507 46.202 389.949 43.736C389.409 41.414 389.553 38.75 390.399 36.896C391.533 34.358 393.927 31.658 398.877 31.64ZM398.967 38.084C397.635 38.084 396.447 39.218 396.591 41.36C396.717 43.448 398.103 44.186 399.039 44.114C399.993 44.06 401.163 43.322 401.271 41.288C401.397 39.254 400.245 38.084 398.967 38.084ZM420.399 41.216C420.435 41.108 420.471 41 420.507 40.874C421.065 38.498 421.605 36.104 422.163 33.728C422.253 33.368 422.397 33.026 422.523 32.684C425.403 30.794 429.165 32.162 429.615 35.726C429.795 37.076 430.209 40.622 430.461 42.728C430.713 44.78 430.911 46.526 431.145 48.578C429.201 51.098 425.349 50.36 425.043 47.498C424.791 45.356 424.917 44.582 424.809 41.828C424.773 41.828 424.737 41.828 424.701 41.81C424.611 42.188 424.557 42.566 424.467 42.926C423.963 45.032 423.477 47.138 422.955 49.226C421.785 49.964 417.987 50.504 417.249 47.534C416.835 45.806 416.025 42.242 415.809 41.648C415.629 44.402 415.467 46.544 415.287 49.352C412.371 50.936 408.825 50.144 409.563 45.014C409.869 42.89 410.391 40.64 410.733 38.516C411.075 36.536 411.435 34.556 411.777 32.558C413.145 31.262 417.717 30.956 418.725 34.682C419.067 35.924 419.535 38.012 419.949 39.668C419.967 39.776 420.255 41.108 420.291 41.216C420.327 41.216 420.363 41.216 420.399 41.216ZM438.677 39.704C438.695 39.722 438.713 39.722 438.749 39.74C438.821 39.596 438.911 39.47 438.983 39.344C440.297 36.968 441.899 34.034 442.745 32.594C444.779 31.406 449.243 31.55 449.477 35.276C449.657 38.192 449.423 46.112 449.243 49.334C446.147 51.35 443.015 49.892 442.871 47.156C442.817 46.058 442.889 45.428 442.961 43.196C442.907 43.196 442.871 43.178 442.817 43.178C442.745 43.286 442.673 43.376 442.601 43.502C442.187 44.15 439.685 48.488 439.055 49.496C436.103 51.404 432.629 49.82 432.197 46.22C431.855 43.322 431.999 34.862 432.089 32.9C433.979 30.866 438.389 31.928 438.641 34.484C438.839 36.518 438.677 37.184 438.677 39.704ZM465.691 32C466.663 33.26 467.131 37.76 463.009 38.012C462.361 38.048 461.911 38.084 461.839 38.084C461.965 41.414 461.821 47.012 461.479 49.478C459.913 51.152 455.899 50.54 455.107 46.418C454.927 45.41 454.765 41.468 454.801 38.084C453.595 38.156 452.245 38.174 451.057 37.958C449.887 36.464 450.139 32.27 453.613 32.054C455.935 31.928 463.621 32.018 465.691 32ZM474.107 37.31C474.377 37.148 477.617 36.32 480.335 38.372C483.935 41.072 483.233 46.976 480.371 48.902C476.771 51.332 469.175 50.216 467.609 48.704C467.033 46.526 467.213 34.304 467.519 32.702C470.039 30.722 473.783 32 473.927 34.106C474.053 35.978 473.981 36.932 473.981 37.256C473.981 37.274 473.999 37.292 473.999 37.292C474.035 37.31 474.053 37.31 474.071 37.328C474.089 37.328 474.107 37.328 474.107 37.31ZM474.395 44.33C475.583 45.05 476.753 44.222 476.753 43.466C476.753 42.764 476.501 42.386 475.961 42.278C475.529 42.206 475.061 42.224 474.611 42.224C474.539 42.224 474.413 42.368 474.413 42.44C474.395 43.07 474.395 43.574 474.395 44.33ZM494.676 37.688C493.578 37.4 492.714 37.508 491.796 37.958C490.536 38.606 490.176 40.118 490.374 41.522C490.662 43.664 492.534 44.456 494.352 44.168C495.594 44.024 497.142 42.998 497.592 42.746C500.13 43.196 501.786 47.552 497.16 49.73C495.234 50.63 492.102 50.522 490.014 50C486.864 49.172 484.902 47.174 484.02 44.114C483.426 41.972 483.336 39.812 484.074 37.688C484.884 35.294 486.864 33.494 488.79 32.612C491.166 31.532 495.468 31.154 499.356 33.386C500.238 36.824 497.034 38.642 494.676 37.688ZM515.193 33.422C515.787 35.6 515.661 46.436 515.661 49.082C513.375 50.828 509.253 50.63 508.875 46.76C508.803 45.932 508.803 45.518 508.803 45.266C508.263 47.03 507.237 49.082 505.869 50.324C503.079 51.116 499.641 48.47 501.891 45.446C502.305 44.87 502.611 44.42 502.845 44.006C502.719 43.934 502.593 43.844 502.467 43.754C498.885 41.054 499.569 35.132 502.431 33.224C506.049 30.794 513.627 31.892 515.193 33.422ZM508.407 37.796C507.237 37.076 506.049 37.904 506.049 38.642C506.049 39.344 506.301 39.74 506.859 39.83C507.291 39.92 507.759 39.902 508.209 39.902C508.263 39.902 508.407 39.758 508.407 39.686C508.425 39.056 508.407 38.552 508.407 37.796ZM536.995 37.688C535.897 37.4 535.033 37.508 534.115 37.958C532.855 38.606 532.495 40.118 532.693 41.522C532.981 43.664 534.853 44.456 536.671 44.168C537.913 44.024 539.461 42.998 539.911 42.746C542.449 43.196 544.105 47.552 539.479 49.73C537.553 50.63 534.421 50.522 532.333 50C529.183 49.172 527.221 47.174 526.339 44.114C525.745 41.972 525.655 39.812 526.393 37.688C527.203 35.294 529.183 33.494 531.109 32.612C533.485 31.532 537.787 31.154 541.675 33.386C542.557 36.824 539.353 38.642 536.995 37.688ZM572.066 44.546C573.272 46.004 573.398 49.784 569.078 50.018C563.858 50.324 558.422 50.072 557.99 50.054C554.48 49.856 553.13 48.884 552.788 46.166C552.392 42.89 552.374 36.554 552.86 32.846C553.67 31.946 559.034 31.298 559.466 34.574C559.574 35.51 559.61 43.484 559.61 44.258C560.33 44.258 561.554 44.258 562.976 44.258C562.976 42.476 562.976 34.7 562.976 32.828C563.966 31.946 569.348 30.956 569.654 35.348C569.744 36.68 569.888 40.838 569.888 44.384C570.734 44.42 571.49 44.474 572.066 44.546ZM573.958 45.842C573.814 43.376 573.886 35.186 574.246 32.144C577.252 31.838 584.038 31.91 587.242 32.162C587.908 33.116 588.376 37.58 584.038 37.58C583.066 37.58 582.652 37.58 580.33 37.58C580.33 37.868 580.33 38.156 580.33 38.516C581.374 38.516 584.344 38.318 585.874 38.804C586.954 41.198 586.126 43.286 583.48 43.412C582.562 43.448 582.022 43.412 580.348 43.412C580.348 43.808 580.348 44.132 580.348 44.51C580.474 44.51 580.618 44.51 580.762 44.51C582.688 44.51 584.614 44.51 586.54 44.51C587.908 46.436 587.44 49.55 584.02 50C582.526 50.198 577.828 50.234 576.532 49.928C574.84 49.496 574.102 48.29 573.958 45.842ZM595.669 38.228C596.857 38.228 597.973 38.228 599.125 38.228C599.179 36.212 599.143 33.71 599.305 32.738C601.519 30.974 605.911 32.09 605.911 35.528C605.911 37.328 605.911 43.07 605.893 47.642C605.893 48.272 605.875 49.136 605.839 49.55C605.029 50.45 599.665 51.098 599.251 47.822C599.125 46.886 599.089 44.816 599.089 44.042C597.937 44.042 596.911 44.042 595.723 44.042C595.723 45.806 595.723 47.696 595.723 49.568C594.733 50.468 589.351 51.458 589.045 47.03C588.901 45.05 588.685 36.284 588.901 33.008C591.295 31.028 595.345 32.018 595.615 34.754C595.777 36.338 595.669 38.048 595.669 38.228ZM607.39 44.438C608.128 40.676 610.18 34.574 611.386 32.252C613.924 31.388 619.486 30.218 621.628 35.402C622.618 37.868 624.562 44.096 625.264 48.02C625.012 50.054 619.324 52.358 617.848 47.246C616.678 47.192 615.364 47.264 614.176 47.228C613.852 48.02 613.546 48.956 613.294 49.91C608.704 51.584 606.616 48.668 607.39 44.438ZM614.896 42.242C615.706 42.242 616.444 42.242 617.2 42.242C616.822 40.73 616.462 39.236 616.12 37.76C616.048 37.778 615.994 37.778 615.94 37.778C615.616 39.236 615.256 40.712 614.896 42.242ZM636.847 41.216C636.883 41.108 636.919 41 636.955 40.874C637.513 38.498 638.053 36.104 638.611 33.728C638.701 33.368 638.845 33.026 638.971 32.684C641.851 30.794 645.613 32.162 646.063 35.726C646.243 37.076 646.657 40.622 646.909 42.728C647.161 44.78 647.359 46.526 647.593 48.578C645.649 51.098 641.797 50.36 641.491 47.498C641.239 45.356 641.365 44.582 641.257 41.828C641.221 41.828 641.185 41.828 641.149 41.81C641.059 42.188 641.005 42.566 640.915 42.926C640.411 45.032 639.925 47.138 639.403 49.226C638.233 49.964 634.435 50.504 633.697 47.534C633.283 45.806 632.473 42.242 632.257 41.648C632.077 44.402 631.915 46.544 631.735 49.352C628.819 50.936 625.273 50.144 626.011 45.014C626.317 42.89 626.839 40.64 627.181 38.516C627.523 36.536 627.883 34.556 628.225 32.558C629.593 31.262 634.165 30.956 635.173 34.682C635.515 35.924 635.983 38.012 636.397 39.668C636.415 39.776 636.703 41.108 636.739 41.216C636.775 41.216 636.811 41.216 636.847 41.216ZM655.125 39.704C655.143 39.722 655.161 39.722 655.197 39.74C655.269 39.596 655.359 39.47 655.431 39.344C656.745 36.968 658.347 34.034 659.193 32.594C661.227 31.406 665.691 31.55 665.925 35.276C666.105 38.192 665.871 46.112 665.691 49.334C662.595 51.35 659.463 49.892 659.319 47.156C659.265 46.058 659.337 45.428 659.409 43.196C659.355 43.196 659.319 43.178 659.265 43.178C659.193 43.286 659.121 43.376 659.049 43.502C658.635 44.15 656.133 48.488 655.503 49.496C652.551 51.404 649.077 49.82 648.645 46.22C648.303 43.322 648.447 34.862 648.537 32.9C650.427 30.866 654.837 31.928 655.089 34.484C655.287 36.518 655.125 37.184 655.125 39.704Z" fill="#9D182B"/>
</svg>
