<svg width="209" height="22" viewBox="0 0 209 22" fill="none" xmlns="http://www.w3.org/2000/svg">
<path d="M16.57 0.999999C17.542 2.26 18.01 6.76 13.888 7.012C13.24 7.048 12.79 7.084 12.718 7.084C12.844 10.414 12.7 16.012 12.358 18.478C10.792 20.152 6.778 19.54 5.986 15.418C5.806 14.41 5.644 10.468 5.68 7.084C4.474 7.156 3.124 7.174 1.936 6.958C0.766 5.464 1.018 1.27 4.492 1.054C6.814 0.928 14.5 1.018 16.57 0.999999ZM18.1095 15.598C17.8035 13.078 17.9835 4.186 18.3435 1.144C21.3315 0.856 28.1355 0.928 31.3395 1.162C32.0055 2.134 32.4735 6.58 28.1355 6.58C27.1635 6.58 26.7495 6.58 24.4275 6.58C24.5535 8.236 24.7155 15.58 24.3735 18.532C22.8255 19.648 18.5775 19.396 18.1095 15.598ZM39.3564 7.552C39.9684 6.616 40.4904 5.77 41.0304 4.942C41.7144 3.916 43.2084 1.792 43.8744 0.766C46.4304 0.226001 49.1124 2.278 47.6184 5.374C46.6824 7.354 46.4664 7.48 45.3324 9.352C45.1884 9.568 45.1884 9.73 45.3144 9.964C46.6284 12.448 48.3204 15.094 49.0044 16.912C48.3204 19.27 44.0184 21.178 42.1104 17.398C41.7144 16.642 41.2644 15.742 40.4184 14.068C40.0044 14.734 39.4824 15.562 39.4284 15.958C39.3564 16.336 39.3744 17.398 39.4644 18.424C37.9164 19.756 33.5064 19.684 33.0744 16.462C32.6604 13.438 32.4984 5.41 32.8404 1.99C34.2804 0.154 39.2484 0.118001 39.3744 3.664C39.4464 5.824 39.4104 5.572 39.3564 7.138C39.3564 7.246 39.3564 7.336 39.3564 7.552ZM53.2442 19.234C52.8842 19.18 52.5062 19.144 52.1462 19.072C50.7422 18.748 49.8782 17.83 49.7522 16.426C49.6802 15.832 49.6982 15.202 49.8062 14.608C49.9862 13.492 50.7062 12.772 51.7862 12.43C52.5602 12.16 53.3702 12.106 54.1802 12.286C55.8362 12.664 56.8622 14.068 56.7182 15.796C56.6822 16.282 56.5922 16.804 56.4122 17.254C55.9082 18.532 54.7742 19.216 53.2442 19.234ZM53.6402 9.208C53.2802 9.154 52.9022 9.118 52.5422 9.028C51.1382 8.722 50.2922 7.804 50.1482 6.382C50.0762 5.788 50.0942 5.158 50.2022 4.582C50.3822 3.448 51.1022 2.728 52.1822 2.386C52.9562 2.134 53.7662 2.08 54.5762 2.26C56.2322 2.62 57.2582 4.024 57.1142 5.752C57.0782 6.256 56.9882 6.76 56.8082 7.21C56.3042 8.488 55.1702 9.172 53.6402 9.208ZM86.2588 5.986C87.1408 8.326 87.2308 10.972 86.4748 13.384C86.2048 14.266 84.9268 17.272 82.3348 17.236C80.1928 17.218 79.0228 15.994 78.4648 14.374C77.6188 14.554 76.5568 14.482 75.8188 14.284C74.3788 13.924 73.4608 12.988 73.0648 11.584C72.7948 10.612 72.7948 9.622 73.0828 8.65C73.7308 6.544 75.9808 5.716 78.3388 5.77C79.6888 5.806 80.6428 6.184 80.6968 8.002C80.7328 9.19 80.6428 10.504 80.6968 11.35C80.8048 12.898 81.0208 13.636 82.0288 13.6C83.0548 13.582 83.7928 11.08 83.6668 9.46C83.3428 5.068 80.2468 3.34 77.3488 3.34C74.3248 3.34 71.0308 5.5 71.3368 10.378C71.6248 15.094 75.8728 16.48 78.0148 16.354C79.8868 17.272 79.5448 19.396 77.9788 19.486C71.8408 19.81 68.6188 15.4 68.0428 12.88C67.4848 10.504 67.4848 8.146 68.4928 5.86C69.6628 3.25 71.8948 0.711999 76.8088 0.55C80.4808 0.424001 81.7588 0.874001 83.5948 2.314C84.8188 3.286 85.7188 4.51 86.2588 5.986ZM77.8168 11.62C77.8708 11.62 77.9248 11.602 77.9788 11.602C77.9248 10.486 77.9248 9.622 77.8888 8.416C76.7188 8.362 76.0168 8.884 76.0168 10.468C76.1608 11.44 76.9708 11.746 77.8168 11.62ZM99.9457 6.688C98.8477 6.418 98.0737 6.454 97.1017 7.066C95.8237 7.858 95.5537 9.226 95.7517 10.63C96.0397 12.754 97.8037 13.438 99.6397 13.168C100.864 13.006 102.412 11.98 102.844 11.71C105.382 12.196 107.038 16.552 102.448 18.712C100.522 19.612 97.3717 19.486 95.2837 18.964C92.1517 18.154 90.1897 16.138 89.3077 13.078C88.7137 10.954 88.6417 8.812 89.3617 6.688C90.1717 4.294 91.8277 2.728 94.0777 1.612C97.0837 0.154 100.756 0.154 104.626 2.386C105.526 5.824 102.304 7.642 99.9457 6.688ZM114.577 0.64C120.715 0.604001 122.749 4.798 123.289 6.22C124.135 8.524 124.333 10.864 123.613 13.24C122.641 16.372 120.535 18.352 117.331 19.108C114.739 19.738 112.201 19.54 109.807 18.298C107.521 17.128 106.207 15.202 105.649 12.736C105.109 10.414 105.253 7.75 106.099 5.896C107.233 3.358 109.627 0.658 114.577 0.64ZM114.667 7.084C113.335 7.084 112.147 8.218 112.291 10.36C112.417 12.448 113.803 13.186 114.739 13.114C115.693 13.06 116.863 12.322 116.971 10.288C117.097 8.254 115.945 7.084 114.667 7.084ZM138.998 1.036C139.952 2.296 140.384 6.832 136.352 7.084C135.722 7.12 135.272 7.156 135.182 7.156C135.308 10.504 135.182 15.94 134.84 18.406C133.328 20.08 129.386 19.486 128.594 15.31C128.414 14.302 128.252 10.576 128.306 7.138C127.1 7.228 125.786 7.246 124.616 7.012C123.464 5.518 123.716 1.306 127.136 1.09C129.404 0.946 136.946 1.054 138.998 1.036ZM155.214 1.036C156.168 2.296 156.6 6.832 152.568 7.084C151.938 7.12 151.488 7.156 151.398 7.156C151.524 10.504 151.398 15.94 151.056 18.406C149.544 20.08 145.602 19.486 144.81 15.31C144.63 14.302 144.468 10.576 144.522 7.138C143.316 7.228 142.002 7.246 140.832 7.012C139.68 5.518 139.932 1.306 143.352 1.09C145.62 0.946 153.162 1.054 155.214 1.036ZM168.177 8.866C172.749 11.692 170.949 17.326 167.565 18.712C165.189 19.666 159.609 20.116 156.369 17.452C154.623 15.256 156.639 11.566 159.573 13.024C162.111 14.284 163.929 14.464 164.217 13.366C164.415 12.646 164.397 12.43 163.047 12.34C160.131 12.124 156.981 10.468 156.423 7.084C156.189 5.572 156.801 2.026 161.121 0.874001C163.497 0.226001 166.791 0.532 168.339 1.558C171.489 3.646 169.833 6.706 167.763 7.192C166.449 5.572 162.363 5.374 162.327 6.958C162.327 7.354 162.597 7.588 163.515 7.714C166.143 8.056 167.529 8.47 168.177 8.866ZM189.525 12.88C188.985 17.47 184.827 19.486 181.083 19.486C177.321 19.486 173.091 18.766 172.299 12.952C171.831 9.676 172.155 5.32 172.659 1.594C173.451 0.711999 178.815 0.0639997 179.247 3.34C179.355 4.276 179.175 10.396 179.607 12.988C179.877 14.572 182.055 14.896 182.433 12.916C182.865 10.756 183.063 4.762 182.541 2.044C183.945 0.604001 189.255 0.1 189.651 4.51C189.885 6.976 190.101 7.858 189.525 12.88ZM202.114 6.832C201.034 6.562 200.26 6.616 199.306 7.228C198.046 8.002 197.776 9.37 197.974 10.738C198.154 12.376 199.324 13.276 200.602 13.258C202.564 13.258 202.6 11.422 202.636 10.036C203.482 8.884 208.324 9.064 208.504 12.196C208.648 14.518 207.154 19.252 200.386 19.252C194.518 19.252 192.448 15.94 191.602 13.474C190.882 11.422 190.936 8.938 191.638 6.832C192.43 4.474 194.086 2.908 196.318 1.828C199.306 0.37 202.924 0.37 206.758 2.584C207.64 6.004 204.454 7.786 202.114 6.832Z" fill="#9D182B"/>
</svg>
