<svg width="193" height="21" viewBox="0 0 193 21" fill="none" xmlns="http://www.w3.org/2000/svg">
<path d="M15.905 0.999999C16.877 2.26 17.345 6.76 13.223 7.012C12.575 7.048 12.125 7.084 12.053 7.084C12.179 10.414 12.035 16.012 11.693 18.478C10.127 20.152 6.11296 19.54 5.32096 15.418C5.14096 14.41 4.97896 10.468 5.01496 7.084C3.80896 7.156 2.45896 7.174 1.27096 6.958C0.100961 5.464 0.352961 1.27 3.82696 1.054C6.14896 0.928 13.835 1.018 15.905 0.999999ZM32.3845 0.999999C33.3565 2.26 33.8245 6.76 29.7025 7.012C29.0545 7.048 28.6045 7.084 28.5325 7.084C28.6585 10.414 28.5145 16.012 28.1725 18.478C26.6065 20.152 22.5925 19.54 21.8005 15.418C21.6205 14.41 21.4585 10.468 21.4945 7.084C20.2885 7.156 18.9385 7.174 17.7505 6.958C16.5805 5.464 16.8325 1.27 20.3065 1.054C22.6285 0.928 30.3145 1.018 32.3845 0.999999ZM37.1279 19.234C36.7679 19.18 36.3899 19.144 36.0299 19.072C34.6259 18.748 33.7619 17.83 33.6359 16.426C33.5639 15.832 33.5819 15.202 33.6899 14.608C33.8699 13.492 34.5899 12.772 35.6699 12.43C36.4439 12.16 37.2539 12.106 38.0639 12.286C39.7199 12.664 40.7459 14.068 40.6019 15.796C40.5659 16.282 40.4759 16.804 40.2959 17.254C39.7919 18.532 38.6579 19.216 37.1279 19.234ZM37.5239 9.208C37.1639 9.154 36.7859 9.118 36.4259 9.028C35.0219 8.722 34.1759 7.804 34.0319 6.382C33.9599 5.788 33.9779 5.158 34.0859 4.582C34.2659 3.448 34.9859 2.728 36.0659 2.386C36.8399 2.134 37.6499 2.08 38.4599 2.26C40.1159 2.62 41.1419 4.024 40.9979 5.752C40.9619 6.256 40.8719 6.76 40.6919 7.21C40.1879 8.488 39.0539 9.172 37.5239 9.208ZM70.1426 5.986C71.0246 8.326 71.1146 10.972 70.3586 13.384C70.0886 14.266 68.8106 17.272 66.2186 17.236C64.0766 17.218 62.9066 15.994 62.3486 14.374C61.5026 14.554 60.4406 14.482 59.7026 14.284C58.2626 13.924 57.3446 12.988 56.9486 11.584C56.6786 10.612 56.6786 9.622 56.9666 8.65C57.6146 6.544 59.8646 5.716 62.2226 5.77C63.5726 5.806 64.5266 6.184 64.5806 8.002C64.6166 9.19 64.5266 10.504 64.5806 11.35C64.6886 12.898 64.9046 13.636 65.9126 13.6C66.9386 13.582 67.6766 11.08 67.5506 9.46C67.2266 5.068 64.1306 3.34 61.2326 3.34C58.2086 3.34 54.9146 5.5 55.2206 10.378C55.5086 15.094 59.7566 16.48 61.8986 16.354C63.7706 17.272 63.4286 19.396 61.8626 19.486C55.7246 19.81 52.5026 15.4 51.9266 12.88C51.3686 10.504 51.3686 8.146 52.3766 5.86C53.5466 3.25 55.7786 0.711999 60.6926 0.55C64.3646 0.424001 65.6426 0.874001 67.4786 2.314C68.7026 3.286 69.6026 4.51 70.1426 5.986ZM61.7006 11.62C61.7546 11.62 61.8086 11.602 61.8626 11.602C61.8086 10.486 61.8086 9.622 61.7726 8.416C60.6026 8.362 59.9006 8.884 59.9006 10.468C60.0446 11.44 60.8546 11.746 61.7006 11.62ZM83.8295 6.688C82.7315 6.418 81.9575 6.454 80.9855 7.066C79.7075 7.858 79.4375 9.226 79.6355 10.63C79.9235 12.754 81.6875 13.438 83.5235 13.168C84.7475 13.006 86.2955 11.98 86.7275 11.71C89.2655 12.196 90.9215 16.552 86.3315 18.712C84.4055 19.612 81.2555 19.486 79.1675 18.964C76.0355 18.154 74.0735 16.138 73.1915 13.078C72.5975 10.954 72.5255 8.812 73.2455 6.688C74.0555 4.294 75.7115 2.728 77.9615 1.612C80.9675 0.154 84.6395 0.154 88.5095 2.386C89.4095 5.824 86.1875 7.642 83.8295 6.688ZM98.4608 0.64C104.599 0.604001 106.633 4.798 107.173 6.22C108.019 8.524 108.217 10.864 107.497 13.24C106.525 16.372 104.419 18.352 101.215 19.108C98.6228 19.738 96.0848 19.54 93.6908 18.298C91.4048 17.128 90.0908 15.202 89.5328 12.736C88.9928 10.414 89.1368 7.75 89.9828 5.896C91.1168 3.358 93.5108 0.658 98.4608 0.64ZM98.5508 7.084C97.2188 7.084 96.0308 8.218 96.1748 10.36C96.3008 12.448 97.6868 13.186 98.6228 13.114C99.5768 13.06 100.747 12.322 100.855 10.288C100.981 8.254 99.8288 7.084 98.5508 7.084ZM122.882 1.036C123.836 2.296 124.268 6.832 120.236 7.084C119.606 7.12 119.156 7.156 119.066 7.156C119.192 10.504 119.066 15.94 118.724 18.406C117.212 20.08 113.27 19.486 112.478 15.31C112.298 14.302 112.136 10.576 112.19 7.138C110.984 7.228 109.67 7.246 108.5 7.012C107.348 5.518 107.6 1.306 111.02 1.09C113.288 0.946 120.83 1.054 122.882 1.036ZM139.098 1.036C140.052 2.296 140.484 6.832 136.452 7.084C135.822 7.12 135.372 7.156 135.282 7.156C135.408 10.504 135.282 15.94 134.94 18.406C133.428 20.08 129.486 19.486 128.694 15.31C128.514 14.302 128.352 10.576 128.406 7.138C127.2 7.228 125.886 7.246 124.716 7.012C123.564 5.518 123.816 1.306 127.236 1.09C129.504 0.946 137.046 1.054 139.098 1.036ZM152.061 8.866C156.633 11.692 154.833 17.326 151.449 18.712C149.073 19.666 143.493 20.116 140.253 17.452C138.507 15.256 140.523 11.566 143.457 13.024C145.995 14.284 147.813 14.464 148.101 13.366C148.299 12.646 148.281 12.43 146.931 12.34C144.015 12.124 140.865 10.468 140.307 7.084C140.073 5.572 140.685 2.026 145.005 0.874001C147.381 0.226001 150.675 0.532 152.223 1.558C155.373 3.646 153.717 6.706 151.647 7.192C150.333 5.572 146.247 5.374 146.211 6.958C146.211 7.354 146.481 7.588 147.399 7.714C150.027 8.056 151.413 8.47 152.061 8.866ZM173.409 12.88C172.869 17.47 168.711 19.486 164.967 19.486C161.205 19.486 156.975 18.766 156.183 12.952C155.715 9.676 156.039 5.32 156.543 1.594C157.335 0.711999 162.699 0.0639997 163.131 3.34C163.239 4.276 163.059 10.396 163.491 12.988C163.761 14.572 165.939 14.896 166.317 12.916C166.749 10.756 166.947 4.762 166.425 2.044C167.829 0.604001 173.139 0.1 173.535 4.51C173.769 6.976 173.985 7.858 173.409 12.88ZM185.997 6.832C184.917 6.562 184.143 6.616 183.189 7.228C181.929 8.002 181.659 9.37 181.857 10.738C182.037 12.376 183.207 13.276 184.485 13.258C186.447 13.258 186.483 11.422 186.519 10.036C187.365 8.884 192.207 9.064 192.387 12.196C192.531 14.518 191.037 19.252 184.269 19.252C178.401 19.252 176.331 15.94 175.485 13.474C174.765 11.422 174.819 8.938 175.521 6.832C176.313 4.474 177.969 2.908 180.201 1.828C183.189 0.37 186.807 0.37 190.641 2.584C191.523 6.004 188.337 7.786 185.997 6.832Z" fill="#9D182B"/>
</svg>
