<svg width="452" height="36" viewBox="0 0 452 36" fill="none" xmlns="http://www.w3.org/2000/svg">
<path d="M32.3833 4.47C37.2453 7.642 38.0773 15.65 32.8773 19.472C28.9253 22.358 24.2453 21.214 23.8813 20.954C23.8553 20.954 23.8293 20.954 23.8293 20.954C23.8033 20.954 23.7513 20.98 23.7253 20.98C23.6993 21.006 23.6993 21.032 23.6993 21.032C23.6993 21.5 23.7253 24.75 23.4393 27.506C21.2553 29.82 15.3273 29.248 14.2093 23.502C14.1053 23.06 14.0533 22.124 14.0013 20.902C13.9753 20.876 13.9493 20.876 13.9233 20.85C13.8973 20.85 13.8713 20.85 13.8713 20.876C13.4813 21.11 9.26935 22.358 5.34335 19.472C0.143348 15.65 0.689348 8.994 4.77135 5.224C9.73735 0.596001 27.0533 0.96 32.3833 4.47ZM13.6113 14.012C13.7153 14.012 13.8713 13.83 13.8973 13.726C13.8973 13.18 13.8973 12.608 13.9233 12.062C13.9233 11.75 13.9233 11.412 13.9233 11.022C12.2073 10.008 10.4913 11.178 10.4913 12.244C10.4913 13.232 10.8813 13.778 11.6613 13.934C12.2853 14.038 12.9613 14.012 13.6113 14.012ZM26.5593 13.934C27.3393 13.778 27.7033 13.232 27.7033 12.244C27.7033 11.178 25.9873 10.008 24.2973 11.022C24.2973 12.088 24.2973 12.816 24.2973 13.7C24.3233 13.804 24.5053 14.012 24.6093 14.012C25.2593 14.012 25.9093 14.038 26.5593 13.934ZM51.6529 1.48C60.5189 1.428 63.4569 7.486 64.2369 9.54C65.4589 12.868 65.7449 16.248 64.7049 19.68C63.3009 24.204 60.2589 27.064 55.6309 28.156C51.8869 29.066 48.2209 28.78 44.7629 26.986C41.4609 25.296 39.5629 22.514 38.7569 18.952C37.9769 15.598 38.1849 11.75 39.4069 9.072C41.0449 5.406 44.5029 1.506 51.6529 1.48ZM51.7829 10.788C49.8589 10.788 48.1429 12.426 48.3509 15.52C48.5329 18.536 50.5349 19.602 51.8869 19.498C53.2649 19.42 54.9549 18.354 55.1109 15.416C55.2929 12.478 53.6289 10.788 51.7829 10.788ZM76.9238 10.996C78.6398 10.996 80.2518 10.996 81.9158 10.996C81.9938 8.084 81.9418 4.47 82.1758 3.066C85.3738 0.518 91.7178 2.13 91.7178 7.096C91.7178 9.696 91.7178 17.99 91.6918 24.594C91.6918 25.504 91.6658 26.752 91.6138 27.35C90.4438 28.65 82.6958 29.586 82.0978 24.854C81.9158 23.502 81.8638 20.512 81.8638 19.394C80.1998 19.394 78.7178 19.394 77.0018 19.394C77.0018 21.942 77.0018 24.672 77.0018 27.376C75.5718 28.676 67.7978 30.106 67.3558 23.71C67.1478 20.85 66.8358 8.188 67.1478 3.456C70.6058 0.596001 76.4558 2.026 76.8458 5.978C77.0798 8.266 76.9238 10.736 76.9238 10.996ZM120.398 1.48C129.264 1.428 132.202 7.486 132.982 9.54C134.204 12.868 134.49 16.248 133.45 19.68C132.046 24.204 129.004 27.064 124.376 28.156C120.632 29.066 116.966 28.78 113.508 26.986C110.206 25.296 108.308 22.514 107.502 18.952C106.722 15.598 106.93 11.75 108.152 9.072C109.79 5.406 113.248 1.506 120.398 1.48ZM120.528 10.788C118.604 10.788 116.888 12.426 117.096 15.52C117.278 18.536 119.28 19.602 120.632 19.498C122.01 19.42 123.7 18.354 123.856 15.416C124.038 12.478 122.374 10.788 120.528 10.788ZM156.195 2.364C157.573 4.132 158.223 10.528 152.373 10.866C151.463 10.918 150.813 10.97 150.709 10.97C150.891 15.702 150.683 23.658 150.189 27.142C148.005 29.508 142.311 28.65 141.167 22.8C140.907 21.37 140.699 15.78 140.751 10.97C139.035 11.074 137.111 11.1 135.421 10.788C133.757 8.682 134.121 2.728 139.061 2.442C142.337 2.234 153.231 2.39 156.195 2.364ZM178.41 11.386C177.188 11.75 176.668 12.192 174.926 12.686C171.442 12.166 169.284 6.55 174.068 4.418C176.694 3.274 180.256 1.974 181.374 1.662C183.714 0.934 187.38 1.766 187.38 5.224C187.38 12.504 187.094 19.81 187.172 27.064C183.116 30.132 178.306 28.078 178.124 24.282C177.916 20.434 178.384 14.324 178.436 11.542C178.436 11.516 178.436 11.464 178.41 11.386ZM210.2 16.352C210.2 17.782 209.992 20.044 209.264 22.202C207.964 25.972 205.39 28.156 201.386 28.598C199.566 28.806 197.72 28.728 195.952 28.234C192.884 27.428 190.986 25.426 190.076 22.488C189.088 19.42 188.984 16.274 189.192 13.128C189.322 10.996 189.712 8.916 190.622 6.94C192.026 3.898 194.418 2.182 197.746 1.74C199.826 1.454 201.88 1.61 203.856 2.364C206.482 3.43 208.12 5.458 209.108 8.058C209.94 10.45 210.2 12.946 210.2 16.352ZM201.178 15.572C201.048 14.246 200.97 12.92 200.814 11.698C200.658 10.58 200.19 10.06 199.436 10.034C198.708 10.034 198.188 10.476 197.954 11.542C197.486 13.544 197.564 15.546 197.694 17.548C197.746 18.328 197.928 19.16 198.214 19.888C198.578 20.824 199.696 20.902 200.32 20.122C200.58 19.836 200.736 19.498 200.788 19.134C200.944 17.938 201.048 16.69 201.178 15.572ZM233.013 16.352C233.013 17.782 232.805 20.044 232.077 22.202C230.777 25.972 228.203 28.156 224.199 28.598C222.379 28.806 220.533 28.728 218.765 28.234C215.697 27.428 213.799 25.426 212.889 22.488C211.901 19.42 211.797 16.274 212.005 13.128C212.135 10.996 212.525 8.916 213.435 6.94C214.839 3.898 217.231 2.182 220.559 1.74C222.639 1.454 224.693 1.61 226.669 2.364C229.295 3.43 230.933 5.458 231.921 8.058C232.753 10.45 233.013 12.946 233.013 16.352ZM223.991 15.572C223.861 14.246 223.783 12.92 223.627 11.698C223.471 10.58 223.003 10.06 222.249 10.034C221.521 10.034 221.001 10.476 220.767 11.542C220.299 13.544 220.377 15.546 220.507 17.548C220.559 18.328 220.741 19.16 221.027 19.888C221.391 20.824 222.509 20.902 223.133 20.122C223.393 19.836 223.549 19.498 223.601 19.134C223.757 17.938 223.861 16.69 223.991 15.572ZM255.827 16.352C255.827 17.782 255.619 20.044 254.891 22.202C253.591 25.972 251.017 28.156 247.013 28.598C245.193 28.806 243.347 28.728 241.579 28.234C238.511 27.428 236.613 25.426 235.703 22.488C234.715 19.42 234.611 16.274 234.819 13.128C234.949 10.996 235.339 8.916 236.249 6.94C237.653 3.898 240.045 2.182 243.373 1.74C245.453 1.454 247.507 1.61 249.483 2.364C252.109 3.43 253.747 5.458 254.735 8.058C255.567 10.45 255.827 12.946 255.827 16.352ZM246.805 15.572C246.675 14.246 246.597 12.92 246.441 11.698C246.285 10.58 245.817 10.06 245.063 10.034C244.335 10.034 243.815 10.476 243.581 11.542C243.113 13.544 243.191 15.546 243.321 17.548C243.373 18.328 243.555 19.16 243.841 19.888C244.205 20.824 245.323 20.902 245.947 20.122C246.207 19.836 246.363 19.498 246.415 19.134C246.571 17.938 246.675 16.69 246.805 15.572ZM302.428 19.888C303.234 21.448 303.182 28.546 302.714 31.432C300.972 33.59 294.446 34.188 294.238 27.948C293.978 27.948 293.744 27.922 293.51 27.896C289.818 28.052 283.942 28.156 279.444 28.104C279.496 29.326 279.6 30.704 279.522 32.472C275.492 35.098 270.89 33.512 270.656 27.584C270.578 25.504 270.526 20.798 275.7 19.446C276.766 14.246 279.444 6.264 281.03 3.17C284.566 2 292.184 0.388 295.122 7.512C296.084 9.852 297.28 14.662 298.268 19.186C299.958 19.368 301.414 19.602 302.428 19.888ZM285.476 18.796C286.568 18.77 287.712 18.77 288.856 18.77C288.258 15.572 287.816 12.634 287.556 10.762C287.478 10.762 287.4 10.762 287.322 10.762C286.854 12.764 286.386 14.792 285.892 16.872C285.762 17.47 285.632 18.12 285.476 18.796ZM316.16 1.48C325.026 1.428 327.964 7.486 328.744 9.54C329.966 12.868 330.252 16.248 329.212 19.68C327.808 24.204 324.766 27.064 320.138 28.156C316.394 29.066 312.728 28.78 309.27 26.986C305.968 25.296 304.07 22.514 303.264 18.952C302.484 15.598 302.692 11.75 303.914 9.072C305.552 5.406 309.01 1.506 316.16 1.48ZM316.29 10.788C314.366 10.788 312.65 12.426 312.858 15.52C313.04 18.536 315.042 19.602 316.394 19.498C317.772 19.42 319.462 18.354 319.618 15.416C319.8 12.478 318.136 10.788 316.29 10.788ZM351.587 11.386C350.365 11.75 349.845 12.192 348.103 12.686C344.619 12.166 342.461 6.55 347.245 4.418C349.871 3.274 353.433 1.974 354.551 1.662C356.891 0.934 360.557 1.766 360.557 5.224C360.557 12.504 360.271 19.81 360.349 27.064C356.293 30.132 351.483 28.078 351.301 24.282C351.093 20.434 351.561 14.324 351.613 11.542C351.613 11.516 351.613 11.464 351.587 11.386ZM383.377 16.352C383.377 17.782 383.169 20.044 382.441 22.202C381.141 25.972 378.567 28.156 374.563 28.598C372.743 28.806 370.897 28.728 369.129 28.234C366.061 27.428 364.163 25.426 363.253 22.488C362.265 19.42 362.161 16.274 362.369 13.128C362.499 10.996 362.889 8.916 363.799 6.94C365.203 3.898 367.595 2.182 370.923 1.74C373.003 1.454 375.057 1.61 377.033 2.364C379.659 3.43 381.297 5.458 382.285 8.058C383.117 10.45 383.377 12.946 383.377 16.352ZM374.355 15.572C374.225 14.246 374.147 12.92 373.991 11.698C373.835 10.58 373.367 10.06 372.613 10.034C371.885 10.034 371.365 10.476 371.131 11.542C370.663 13.544 370.741 15.546 370.871 17.548C370.923 18.328 371.105 19.16 371.391 19.888C371.755 20.824 372.873 20.902 373.497 20.122C373.757 19.836 373.913 19.498 373.965 19.134C374.121 17.938 374.225 16.69 374.355 15.572ZM406.19 16.352C406.19 17.782 405.982 20.044 405.254 22.202C403.954 25.972 401.38 28.156 397.376 28.598C395.556 28.806 393.71 28.728 391.942 28.234C388.874 27.428 386.976 25.426 386.066 22.488C385.078 19.42 384.974 16.274 385.182 13.128C385.312 10.996 385.702 8.916 386.612 6.94C388.016 3.898 390.408 2.182 393.736 1.74C395.816 1.454 397.87 1.61 399.846 2.364C402.472 3.43 404.11 5.458 405.098 8.058C405.93 10.45 406.19 12.946 406.19 16.352ZM397.168 15.572C397.038 14.246 396.96 12.92 396.804 11.698C396.648 10.58 396.18 10.06 395.426 10.034C394.698 10.034 394.178 10.476 393.944 11.542C393.476 13.544 393.554 15.546 393.684 17.548C393.736 18.328 393.918 19.16 394.204 19.888C394.568 20.824 395.686 20.902 396.31 20.122C396.57 19.836 396.726 19.498 396.778 19.134C396.934 17.938 397.038 16.69 397.168 15.572ZM429.004 16.352C429.004 17.782 428.796 20.044 428.068 22.202C426.768 25.972 424.194 28.156 420.19 28.598C418.37 28.806 416.524 28.728 414.756 28.234C411.688 27.428 409.79 25.426 408.88 22.488C407.892 19.42 407.788 16.274 407.996 13.128C408.126 10.996 408.516 8.916 409.426 6.94C410.83 3.898 413.222 2.182 416.55 1.74C418.63 1.454 420.684 1.61 422.66 2.364C425.286 3.43 426.924 5.458 427.912 8.058C428.744 10.45 429.004 12.946 429.004 16.352ZM419.982 15.572C419.852 14.246 419.774 12.92 419.618 11.698C419.462 10.58 418.994 10.06 418.24 10.034C417.512 10.034 416.992 10.476 416.758 11.542C416.29 13.544 416.368 15.546 416.498 17.548C416.55 18.328 416.732 19.16 417.018 19.888C417.382 20.824 418.5 20.902 419.124 20.122C419.384 19.836 419.54 19.498 419.592 19.134C419.748 17.938 419.852 16.69 419.982 15.572ZM451.817 16.352C451.817 17.782 451.609 20.044 450.881 22.202C449.581 25.972 447.007 28.156 443.003 28.598C441.183 28.806 439.337 28.728 437.569 28.234C434.501 27.428 432.603 25.426 431.693 22.488C430.705 19.42 430.601 16.274 430.809 13.128C430.939 10.996 431.329 8.916 432.239 6.94C433.643 3.898 436.035 2.182 439.363 1.74C441.443 1.454 443.497 1.61 445.473 2.364C448.099 3.43 449.737 5.458 450.725 8.058C451.557 10.45 451.817 12.946 451.817 16.352ZM442.795 15.572C442.665 14.246 442.587 12.92 442.431 11.698C442.275 10.58 441.807 10.06 441.053 10.034C440.325 10.034 439.805 10.476 439.571 11.542C439.103 13.544 439.181 15.546 439.311 17.548C439.363 18.328 439.545 19.16 439.831 19.888C440.195 20.824 441.313 20.902 441.937 20.122C442.197 19.836 442.353 19.498 442.405 19.134C442.561 17.938 442.665 16.69 442.795 15.572Z" fill="#F2E0D2"/>
</svg>
