<svg width="137" height="23" viewBox="0 0 137 23" fill="none" xmlns="http://www.w3.org/2000/svg">
<path d="M18.5516 6.328C18.9062 8.624 18.7942 17.1173 18.3462 20.328C16.7782 22.064 12.6902 21.448 11.8876 17.136C11.8689 17.1173 11.8689 17.0987 11.8689 17.08C8.9569 17.08 6.75423 16.968 6.47423 16.968C2.83423 16.744 1.43423 15.6987 1.09823 12.768C0.668896 9.24 0.650229 7.14933 1.1729 3.136C1.99423 2.184 7.5569 1.49333 8.0049 5.02133C8.1169 6.01067 8.15423 9.87467 8.15423 10.7147C8.88223 10.7147 10.1329 10.696 11.5702 10.696C11.5516 7.672 11.6449 4.49867 11.9622 3.32267C13.6796 1.736 17.8609 1.736 18.5516 6.328ZM26.7375 10.3227C26.7561 10.3413 26.7748 10.3413 26.8121 10.36C26.8868 10.2107 26.9801 10.08 27.0548 9.94933C28.4175 7.48533 30.0788 4.44267 30.9561 2.94933C33.0655 1.71733 37.6948 1.86667 37.9375 5.73067C38.1241 8.75467 37.8815 16.968 37.6948 20.3093C34.4841 22.4 31.2361 20.888 31.0868 18.0507C31.0308 16.912 31.1055 16.2587 31.1801 13.944C31.1241 13.944 31.0868 13.9253 31.0308 13.9253C30.9561 14.0373 30.8815 14.1307 30.8068 14.2613C30.3775 14.9333 27.7828 19.432 27.1295 20.4773C24.0681 22.456 20.4655 20.8133 20.0175 17.08C19.6628 14.0747 19.8121 5.30133 19.9055 3.26667C21.8655 1.15733 26.4388 2.25867 26.7001 4.90933C26.9055 7.01867 26.7375 7.70933 26.7375 10.3227ZM51.8215 9.576C55.2935 12.1707 54.3788 17.5467 51.8588 19.7307C49.8055 21.504 44.8401 21.7653 42.5068 20.272C40.6401 19.0773 39.6695 17.3413 39.4081 14.7653C38.9041 10.024 39.4641 4.648 39.7255 2.38933C42.6935 2.10933 49.1148 2.184 52.2881 2.408C52.9415 3.36 53.3895 7.54133 49.1148 7.54133C48.1815 7.54133 47.7708 7.54133 45.6988 7.54133C45.6988 7.91467 45.6988 8.41867 45.6988 8.512C45.6988 8.53067 45.7175 8.53067 45.7361 8.54933C45.7548 8.54933 45.7735 8.568 45.7921 8.568C45.8108 8.568 45.8108 8.568 45.8295 8.568C46.0908 8.4 49.2081 7.616 51.8215 9.576ZM46.1095 15.3253C47.2481 16.016 48.2935 15.4747 48.3868 14.504C48.4988 13.2347 47.1735 12.544 46.1281 13.496C46.0721 14.0187 45.9975 14.6907 46.1095 15.3253ZM61.9836 10.3227C62.0022 10.3413 62.0209 10.3413 62.0582 10.36C62.1329 10.2107 62.2262 10.08 62.3009 9.94933C63.6636 7.48533 65.3249 4.44267 66.2022 2.94933C68.3116 1.71733 72.9409 1.86667 73.1836 5.73067C73.3702 8.75467 73.1276 16.968 72.9409 20.3093C69.7302 22.4 66.4822 20.888 66.3329 18.0507C66.2769 16.912 66.3516 16.2587 66.4262 13.944C66.3702 13.944 66.3329 13.9253 66.2769 13.9253C66.2022 14.0373 66.1276 14.1307 66.0529 14.2613C65.6236 14.9333 63.0289 19.432 62.3756 20.4773C59.3142 22.456 55.7116 20.8133 55.2636 17.08C54.9089 14.0747 55.0582 5.30133 55.1516 3.26667C57.1116 1.15733 61.6849 2.25867 61.9462 4.90933C62.1516 7.01867 61.9836 7.70933 61.9836 10.3227ZM83.6498 15.0267C84.3778 11.2747 86.4311 5.152 87.6258 2.81867C90.1831 1.97867 95.7458 0.802667 97.8738 5.992C98.8818 8.456 100.823 14.6907 101.532 18.6107C101.271 20.6453 95.5778 22.96 94.1031 17.8453C92.9271 17.7893 91.6205 17.864 90.4258 17.8267C90.1085 18.6107 89.8098 19.544 89.5485 20.5147C84.9565 22.1947 82.8471 19.264 83.6498 15.0267ZM91.1538 12.824C91.9565 12.824 92.6845 12.824 93.4498 12.824C93.0951 11.312 92.7218 9.83733 92.3671 8.344C92.3111 8.36267 92.2551 8.36267 92.1991 8.36267C91.8631 9.83733 91.5085 11.2933 91.1538 12.824ZM115.375 14.4853C112.537 16.6133 109.196 15.7547 108.916 15.5867C108.897 15.568 108.897 15.568 108.879 15.5867C108.86 15.5867 108.823 15.6053 108.804 15.6053C108.785 15.6053 108.785 15.624 108.785 15.6427C108.785 15.9787 108.804 18.368 108.599 20.3653C107.031 22.064 102.775 21.6533 101.972 17.4347C101.655 15.7733 101.58 6.02933 102.177 3.77067C103.801 2.20267 111.66 1.04533 115.412 3.56533C118.38 5.56267 119.108 11.704 115.375 14.4853ZM111.66 9.20267C111.66 8.41867 110.447 7.57867 109.215 8.30667C109.215 9.09067 109.215 9.632 109.233 10.2667C109.233 10.36 109.364 10.4907 109.439 10.4907C109.905 10.4907 110.372 10.5093 110.839 10.4347C111.399 10.3227 111.66 9.93067 111.66 9.20267ZM134.593 2.59467C135.583 3.864 136.049 8.456 131.849 8.69867C131.196 8.736 130.729 8.77333 130.655 8.77333C130.785 12.1707 130.636 17.8827 130.281 20.384C128.713 22.0827 124.625 21.4667 123.804 17.2667C123.617 16.24 123.468 12.2267 123.505 8.77333C122.273 8.848 120.892 8.86667 119.679 8.64267C118.484 7.13067 118.745 2.856 122.292 2.65067C124.644 2.50133 132.465 2.61333 134.593 2.59467Z" fill="#9D182B"/>
</svg>
